<mxfile host="app.diagrams.net" modified="2023-05-02T16:51:44.087Z" agent="Mozilla/5.0 (Windows NT 10.0; Win64; x64) AppleWebKit/537.36 (KHTML, like Gecko) Chrome/112.0.0.0 Safari/537.36" etag="uMMJnR0fMBQGpdOn3PPW" version="21.2.3" type="github" pages="5">
  <diagram name="GATE" id="J0SNbZYuJ32HAvjmQnRi">
    <mxGraphModel dx="423" dy="179" grid="1" gridSize="10" guides="1" tooltips="1" connect="1" arrows="1" fold="1" page="1" pageScale="1" pageWidth="827" pageHeight="1169" math="0" shadow="0">
      <root>
        <mxCell id="0" />
        <mxCell id="1" parent="0" />
        <mxCell id="dZ_lxA_ML4lJaGtHK1w9-1" value="" style="pointerEvents=1;verticalLabelPosition=bottom;shadow=0;dashed=0;align=center;html=1;verticalAlign=top;shape=mxgraph.electrical.miscellaneous.circuit_breaker;rotation=90;" vertex="1" parent="1">
          <mxGeometry x="110" y="351" width="60" height="20" as="geometry" />
        </mxCell>
        <mxCell id="dZ_lxA_ML4lJaGtHK1w9-2" value="" style="verticalLabelPosition=bottom;shadow=0;dashed=0;align=center;html=1;verticalAlign=top;shape=mxgraph.electrical.logic_gates.inverting_contact;" vertex="1" parent="1">
          <mxGeometry x="60" y="311" width="10" height="10" as="geometry" />
        </mxCell>
        <mxCell id="dZ_lxA_ML4lJaGtHK1w9-3" value="a" style="rounded=0;whiteSpace=wrap;html=1;" vertex="1" parent="1">
          <mxGeometry x="125" y="200" width="30" height="10" as="geometry" />
        </mxCell>
        <mxCell id="dZ_lxA_ML4lJaGtHK1w9-4" value="" style="group" vertex="1" connectable="0" parent="1">
          <mxGeometry x="250" y="150" width="170" height="60" as="geometry" />
        </mxCell>
        <mxCell id="dZ_lxA_ML4lJaGtHK1w9-5" value="" style="endArrow=none;html=1;rounded=0;entryX=0;entryY=0.25;entryDx=0;entryDy=0;entryPerimeter=0;exitX=1;exitY=0.5;exitDx=0;exitDy=0;" edge="1" parent="dZ_lxA_ML4lJaGtHK1w9-4" target="dZ_lxA_ML4lJaGtHK1w9-7">
          <mxGeometry width="50" height="50" relative="1" as="geometry">
            <mxPoint y="15" as="sourcePoint" />
            <mxPoint x="30" y="20" as="targetPoint" />
          </mxGeometry>
        </mxCell>
        <mxCell id="dZ_lxA_ML4lJaGtHK1w9-6" value="" style="endArrow=none;html=1;rounded=0;entryX=0;entryY=0.75;entryDx=0;entryDy=0;entryPerimeter=0;exitX=1;exitY=0.5;exitDx=0;exitDy=0;" edge="1" parent="dZ_lxA_ML4lJaGtHK1w9-4" target="dZ_lxA_ML4lJaGtHK1w9-7">
          <mxGeometry width="50" height="50" relative="1" as="geometry">
            <mxPoint y="45" as="sourcePoint" />
            <mxPoint x="-30" y="90" as="targetPoint" />
          </mxGeometry>
        </mxCell>
        <mxCell id="dZ_lxA_ML4lJaGtHK1w9-7" value="" style="verticalLabelPosition=bottom;shadow=0;dashed=0;align=center;html=1;verticalAlign=top;shape=mxgraph.electrical.logic_gates.logic_gate;operation=and;negating=1;negSize=0.15;" vertex="1" parent="dZ_lxA_ML4lJaGtHK1w9-4">
          <mxGeometry x="30" width="100" height="60" as="geometry" />
        </mxCell>
        <mxCell id="dZ_lxA_ML4lJaGtHK1w9-8" value="" style="endArrow=none;html=1;rounded=0;exitX=1;exitY=0.5;exitDx=0;exitDy=0;exitPerimeter=0;" edge="1" parent="dZ_lxA_ML4lJaGtHK1w9-4" source="dZ_lxA_ML4lJaGtHK1w9-7">
          <mxGeometry width="50" height="50" relative="1" as="geometry">
            <mxPoint x="250" y="100" as="sourcePoint" />
            <mxPoint x="170" y="30" as="targetPoint" />
          </mxGeometry>
        </mxCell>
        <mxCell id="dZ_lxA_ML4lJaGtHK1w9-9" value="out" style="text;html=1;strokeColor=none;fillColor=none;align=center;verticalAlign=middle;whiteSpace=wrap;rounded=0;" vertex="1" parent="dZ_lxA_ML4lJaGtHK1w9-4">
          <mxGeometry x="114" y="17" width="30" height="10" as="geometry" />
        </mxCell>
        <mxCell id="dZ_lxA_ML4lJaGtHK1w9-10" value="a" style="text;html=1;strokeColor=none;fillColor=none;align=center;verticalAlign=middle;whiteSpace=wrap;rounded=0;" vertex="1" parent="dZ_lxA_ML4lJaGtHK1w9-4">
          <mxGeometry x="20" width="30" height="10" as="geometry" />
        </mxCell>
        <mxCell id="dZ_lxA_ML4lJaGtHK1w9-11" value="b" style="text;html=1;strokeColor=none;fillColor=none;align=center;verticalAlign=middle;whiteSpace=wrap;rounded=0;" vertex="1" parent="dZ_lxA_ML4lJaGtHK1w9-4">
          <mxGeometry x="20" y="30" width="30" height="10" as="geometry" />
        </mxCell>
        <mxCell id="dZ_lxA_ML4lJaGtHK1w9-12" value="" style="group" vertex="1" connectable="0" parent="1">
          <mxGeometry x="250" y="320" width="170" height="60" as="geometry" />
        </mxCell>
        <mxCell id="dZ_lxA_ML4lJaGtHK1w9-13" value="" style="verticalLabelPosition=bottom;shadow=0;dashed=0;align=center;html=1;verticalAlign=top;shape=mxgraph.electrical.logic_gates.inverter_2" vertex="1" parent="dZ_lxA_ML4lJaGtHK1w9-12">
          <mxGeometry x="30" width="100" height="60" as="geometry" />
        </mxCell>
        <mxCell id="dZ_lxA_ML4lJaGtHK1w9-14" value="" style="endArrow=none;html=1;rounded=0;exitX=1;exitY=0.5;exitDx=0;exitDy=0;entryX=0;entryY=0.5;entryDx=0;entryDy=0;entryPerimeter=0;" edge="1" parent="dZ_lxA_ML4lJaGtHK1w9-12" target="dZ_lxA_ML4lJaGtHK1w9-13">
          <mxGeometry width="50" height="50" relative="1" as="geometry">
            <mxPoint y="30" as="sourcePoint" />
            <mxPoint x="20" y="60" as="targetPoint" />
          </mxGeometry>
        </mxCell>
        <mxCell id="dZ_lxA_ML4lJaGtHK1w9-15" value="in" style="text;html=1;strokeColor=none;fillColor=none;align=center;verticalAlign=middle;whiteSpace=wrap;rounded=0;" vertex="1" parent="dZ_lxA_ML4lJaGtHK1w9-12">
          <mxGeometry x="20" y="15" width="30" height="10" as="geometry" />
        </mxCell>
        <mxCell id="dZ_lxA_ML4lJaGtHK1w9-16" value="" style="endArrow=none;html=1;rounded=0;exitX=1;exitY=0.5;exitDx=0;exitDy=0;exitPerimeter=0;" edge="1" parent="dZ_lxA_ML4lJaGtHK1w9-12" source="dZ_lxA_ML4lJaGtHK1w9-13">
          <mxGeometry width="50" height="50" relative="1" as="geometry">
            <mxPoint x="160" y="25" as="sourcePoint" />
            <mxPoint x="170" y="30" as="targetPoint" />
          </mxGeometry>
        </mxCell>
        <mxCell id="dZ_lxA_ML4lJaGtHK1w9-17" value="out" style="text;html=1;strokeColor=none;fillColor=none;align=center;verticalAlign=middle;whiteSpace=wrap;rounded=0;" vertex="1" parent="dZ_lxA_ML4lJaGtHK1w9-12">
          <mxGeometry x="111" y="16" width="30" height="10" as="geometry" />
        </mxCell>
        <mxCell id="dZ_lxA_ML4lJaGtHK1w9-18" value="" style="group" vertex="1" connectable="0" parent="1">
          <mxGeometry x="250" y="400" width="170" height="60" as="geometry" />
        </mxCell>
        <mxCell id="dZ_lxA_ML4lJaGtHK1w9-19" value="" style="verticalLabelPosition=bottom;shadow=0;dashed=0;align=center;html=1;verticalAlign=top;shape=mxgraph.electrical.logic_gates.logic_gate;operation=or;" vertex="1" parent="dZ_lxA_ML4lJaGtHK1w9-18">
          <mxGeometry x="35" width="100" height="60" as="geometry" />
        </mxCell>
        <mxCell id="dZ_lxA_ML4lJaGtHK1w9-20" value="" style="endArrow=none;html=1;rounded=0;entryX=0;entryY=0.25;entryDx=0;entryDy=0;entryPerimeter=0;" edge="1" parent="dZ_lxA_ML4lJaGtHK1w9-18" target="dZ_lxA_ML4lJaGtHK1w9-19">
          <mxGeometry width="50" height="50" relative="1" as="geometry">
            <mxPoint y="15" as="sourcePoint" />
            <mxPoint x="20" y="10" as="targetPoint" />
          </mxGeometry>
        </mxCell>
        <mxCell id="dZ_lxA_ML4lJaGtHK1w9-21" value="" style="endArrow=none;html=1;rounded=0;entryX=0;entryY=0.75;entryDx=0;entryDy=0;entryPerimeter=0;" edge="1" parent="dZ_lxA_ML4lJaGtHK1w9-18" target="dZ_lxA_ML4lJaGtHK1w9-19">
          <mxGeometry width="50" height="50" relative="1" as="geometry">
            <mxPoint y="45" as="sourcePoint" />
            <mxPoint x="30" y="50" as="targetPoint" />
          </mxGeometry>
        </mxCell>
        <mxCell id="dZ_lxA_ML4lJaGtHK1w9-22" value="" style="endArrow=none;html=1;rounded=0;exitX=1;exitY=0.5;exitDx=0;exitDy=0;exitPerimeter=0;" edge="1" parent="dZ_lxA_ML4lJaGtHK1w9-18" source="dZ_lxA_ML4lJaGtHK1w9-19">
          <mxGeometry width="50" height="50" relative="1" as="geometry">
            <mxPoint x="164" y="29.80000000000001" as="sourcePoint" />
            <mxPoint x="170" y="30" as="targetPoint" />
          </mxGeometry>
        </mxCell>
        <mxCell id="dZ_lxA_ML4lJaGtHK1w9-23" value="a" style="text;html=1;strokeColor=none;fillColor=none;align=center;verticalAlign=middle;whiteSpace=wrap;rounded=0;" vertex="1" parent="dZ_lxA_ML4lJaGtHK1w9-18">
          <mxGeometry x="20" width="30" height="10" as="geometry" />
        </mxCell>
        <mxCell id="dZ_lxA_ML4lJaGtHK1w9-24" value="b" style="text;html=1;strokeColor=none;fillColor=none;align=center;verticalAlign=middle;whiteSpace=wrap;rounded=0;" vertex="1" parent="dZ_lxA_ML4lJaGtHK1w9-18">
          <mxGeometry x="20" y="30" width="30" height="10" as="geometry" />
        </mxCell>
        <mxCell id="dZ_lxA_ML4lJaGtHK1w9-25" style="edgeStyle=orthogonalEdgeStyle;rounded=0;orthogonalLoop=1;jettySize=auto;html=1;exitX=0.5;exitY=1;exitDx=0;exitDy=0;" edge="1" parent="dZ_lxA_ML4lJaGtHK1w9-18" source="dZ_lxA_ML4lJaGtHK1w9-24" target="dZ_lxA_ML4lJaGtHK1w9-24">
          <mxGeometry relative="1" as="geometry" />
        </mxCell>
        <mxCell id="dZ_lxA_ML4lJaGtHK1w9-26" value="out" style="text;html=1;strokeColor=none;fillColor=none;align=center;verticalAlign=middle;whiteSpace=wrap;rounded=0;" vertex="1" parent="dZ_lxA_ML4lJaGtHK1w9-18">
          <mxGeometry x="110" y="16" width="30" height="10" as="geometry" />
        </mxCell>
        <mxCell id="dZ_lxA_ML4lJaGtHK1w9-27" value="" style="group" vertex="1" connectable="0" parent="1">
          <mxGeometry x="250" y="240" width="170" height="60" as="geometry" />
        </mxCell>
        <mxCell id="dZ_lxA_ML4lJaGtHK1w9-28" value="" style="verticalLabelPosition=bottom;shadow=0;dashed=0;align=center;html=1;verticalAlign=top;shape=mxgraph.electrical.logic_gates.logic_gate;operation=and;" vertex="1" parent="dZ_lxA_ML4lJaGtHK1w9-27">
          <mxGeometry x="30" width="100" height="60" as="geometry" />
        </mxCell>
        <mxCell id="dZ_lxA_ML4lJaGtHK1w9-29" value="" style="endArrow=none;html=1;rounded=0;entryX=0;entryY=0.25;entryDx=0;entryDy=0;entryPerimeter=0;" edge="1" parent="dZ_lxA_ML4lJaGtHK1w9-27" target="dZ_lxA_ML4lJaGtHK1w9-28">
          <mxGeometry width="50" height="50" relative="1" as="geometry">
            <mxPoint y="15" as="sourcePoint" />
            <mxPoint x="30" y="10" as="targetPoint" />
          </mxGeometry>
        </mxCell>
        <mxCell id="dZ_lxA_ML4lJaGtHK1w9-30" value="" style="endArrow=none;html=1;rounded=0;entryX=0;entryY=0.75;entryDx=0;entryDy=0;entryPerimeter=0;" edge="1" parent="dZ_lxA_ML4lJaGtHK1w9-27" target="dZ_lxA_ML4lJaGtHK1w9-28">
          <mxGeometry width="50" height="50" relative="1" as="geometry">
            <mxPoint y="45" as="sourcePoint" />
            <mxPoint x="40" y="25" as="targetPoint" />
          </mxGeometry>
        </mxCell>
        <mxCell id="dZ_lxA_ML4lJaGtHK1w9-31" value="" style="endArrow=none;html=1;rounded=0;exitX=1;exitY=0.5;exitDx=0;exitDy=0;exitPerimeter=0;" edge="1" parent="dZ_lxA_ML4lJaGtHK1w9-27" source="dZ_lxA_ML4lJaGtHK1w9-28">
          <mxGeometry width="50" height="50" relative="1" as="geometry">
            <mxPoint x="149" y="40" as="sourcePoint" />
            <mxPoint x="170" y="30" as="targetPoint" />
          </mxGeometry>
        </mxCell>
        <mxCell id="dZ_lxA_ML4lJaGtHK1w9-32" value="a" style="text;html=1;strokeColor=none;fillColor=none;align=center;verticalAlign=middle;whiteSpace=wrap;rounded=0;" vertex="1" parent="dZ_lxA_ML4lJaGtHK1w9-27">
          <mxGeometry x="20" width="30" height="10" as="geometry" />
        </mxCell>
        <mxCell id="dZ_lxA_ML4lJaGtHK1w9-33" value="b" style="text;html=1;strokeColor=none;fillColor=none;align=center;verticalAlign=middle;whiteSpace=wrap;rounded=0;" vertex="1" parent="dZ_lxA_ML4lJaGtHK1w9-27">
          <mxGeometry x="20" y="30" width="30" height="10" as="geometry" />
        </mxCell>
        <mxCell id="dZ_lxA_ML4lJaGtHK1w9-34" value="out" style="text;html=1;strokeColor=none;fillColor=none;align=center;verticalAlign=middle;whiteSpace=wrap;rounded=0;" vertex="1" parent="dZ_lxA_ML4lJaGtHK1w9-27">
          <mxGeometry x="110" y="16" width="30" height="10" as="geometry" />
        </mxCell>
        <mxCell id="dZ_lxA_ML4lJaGtHK1w9-35" value="" style="group" vertex="1" connectable="0" parent="1">
          <mxGeometry x="240" y="500" width="180" height="80" as="geometry" />
        </mxCell>
        <mxCell id="dZ_lxA_ML4lJaGtHK1w9-36" value="" style="triangle;whiteSpace=wrap;html=1;" vertex="1" parent="dZ_lxA_ML4lJaGtHK1w9-35">
          <mxGeometry x="60" width="60" height="60" as="geometry" />
        </mxCell>
        <mxCell id="dZ_lxA_ML4lJaGtHK1w9-37" value="" style="endArrow=none;html=1;rounded=0;entryX=0;entryY=0.25;entryDx=0;entryDy=0;" edge="1" parent="dZ_lxA_ML4lJaGtHK1w9-35" target="dZ_lxA_ML4lJaGtHK1w9-36">
          <mxGeometry width="50" height="50" relative="1" as="geometry">
            <mxPoint y="15" as="sourcePoint" />
            <mxPoint x="20" y="10" as="targetPoint" />
          </mxGeometry>
        </mxCell>
        <mxCell id="dZ_lxA_ML4lJaGtHK1w9-38" value="" style="endArrow=none;html=1;rounded=0;entryX=0;entryY=0.75;entryDx=0;entryDy=0;" edge="1" parent="dZ_lxA_ML4lJaGtHK1w9-35" target="dZ_lxA_ML4lJaGtHK1w9-36">
          <mxGeometry width="50" height="50" relative="1" as="geometry">
            <mxPoint y="45" as="sourcePoint" />
            <mxPoint x="40" y="60" as="targetPoint" />
          </mxGeometry>
        </mxCell>
        <mxCell id="dZ_lxA_ML4lJaGtHK1w9-39" value="" style="endArrow=none;html=1;rounded=0;entryX=0.5;entryY=1;entryDx=0;entryDy=0;" edge="1" parent="dZ_lxA_ML4lJaGtHK1w9-35" target="dZ_lxA_ML4lJaGtHK1w9-36">
          <mxGeometry width="50" height="50" relative="1" as="geometry">
            <mxPoint x="90" y="80" as="sourcePoint" />
            <mxPoint x="70" y="55" as="targetPoint" />
          </mxGeometry>
        </mxCell>
        <mxCell id="dZ_lxA_ML4lJaGtHK1w9-40" value="" style="endArrow=none;html=1;rounded=0;entryX=1;entryY=0.5;entryDx=0;entryDy=0;" edge="1" parent="dZ_lxA_ML4lJaGtHK1w9-35" target="dZ_lxA_ML4lJaGtHK1w9-36">
          <mxGeometry width="50" height="50" relative="1" as="geometry">
            <mxPoint x="180" y="30" as="sourcePoint" />
            <mxPoint x="80" y="65" as="targetPoint" />
          </mxGeometry>
        </mxCell>
        <mxCell id="dZ_lxA_ML4lJaGtHK1w9-41" value="a" style="text;html=1;strokeColor=none;fillColor=none;align=center;verticalAlign=middle;whiteSpace=wrap;rounded=0;" vertex="1" parent="dZ_lxA_ML4lJaGtHK1w9-35">
          <mxGeometry x="30" width="30" height="10" as="geometry" />
        </mxCell>
        <mxCell id="dZ_lxA_ML4lJaGtHK1w9-42" value="b" style="text;html=1;strokeColor=none;fillColor=none;align=center;verticalAlign=middle;whiteSpace=wrap;rounded=0;" vertex="1" parent="dZ_lxA_ML4lJaGtHK1w9-35">
          <mxGeometry x="30" y="30" width="30" height="10" as="geometry" />
        </mxCell>
        <mxCell id="dZ_lxA_ML4lJaGtHK1w9-43" value="sel" style="text;html=1;strokeColor=none;fillColor=none;align=center;verticalAlign=middle;whiteSpace=wrap;rounded=0;" vertex="1" parent="dZ_lxA_ML4lJaGtHK1w9-35">
          <mxGeometry x="90" y="50" width="30" height="10" as="geometry" />
        </mxCell>
        <mxCell id="dZ_lxA_ML4lJaGtHK1w9-44" value="out" style="text;html=1;strokeColor=none;fillColor=none;align=center;verticalAlign=middle;whiteSpace=wrap;rounded=0;" vertex="1" parent="dZ_lxA_ML4lJaGtHK1w9-35">
          <mxGeometry x="117" y="16" width="30" height="10" as="geometry" />
        </mxCell>
        <mxCell id="dZ_lxA_ML4lJaGtHK1w9-45" value="" style="group" vertex="1" connectable="0" parent="1">
          <mxGeometry x="480" y="160" width="180" height="80" as="geometry" />
        </mxCell>
        <mxCell id="dZ_lxA_ML4lJaGtHK1w9-46" value="" style="triangle;whiteSpace=wrap;html=1;" vertex="1" parent="dZ_lxA_ML4lJaGtHK1w9-45">
          <mxGeometry x="60" width="60" height="60" as="geometry" />
        </mxCell>
        <mxCell id="dZ_lxA_ML4lJaGtHK1w9-47" value="" style="endArrow=none;html=1;rounded=0;entryX=0;entryY=0.25;entryDx=0;entryDy=0;" edge="1" parent="dZ_lxA_ML4lJaGtHK1w9-45" target="dZ_lxA_ML4lJaGtHK1w9-46">
          <mxGeometry width="50" height="50" relative="1" as="geometry">
            <mxPoint y="15" as="sourcePoint" />
            <mxPoint x="20" y="10" as="targetPoint" />
          </mxGeometry>
        </mxCell>
        <mxCell id="dZ_lxA_ML4lJaGtHK1w9-48" value="" style="endArrow=none;html=1;rounded=0;entryX=0;entryY=0.75;entryDx=0;entryDy=0;" edge="1" parent="dZ_lxA_ML4lJaGtHK1w9-45" target="dZ_lxA_ML4lJaGtHK1w9-46">
          <mxGeometry width="50" height="50" relative="1" as="geometry">
            <mxPoint y="45" as="sourcePoint" />
            <mxPoint x="40" y="60" as="targetPoint" />
          </mxGeometry>
        </mxCell>
        <mxCell id="dZ_lxA_ML4lJaGtHK1w9-49" value="" style="endArrow=none;html=1;rounded=0;entryX=0.5;entryY=1;entryDx=0;entryDy=0;" edge="1" parent="dZ_lxA_ML4lJaGtHK1w9-45" target="dZ_lxA_ML4lJaGtHK1w9-46">
          <mxGeometry width="50" height="50" relative="1" as="geometry">
            <mxPoint x="90" y="80" as="sourcePoint" />
            <mxPoint x="70" y="55" as="targetPoint" />
          </mxGeometry>
        </mxCell>
        <mxCell id="dZ_lxA_ML4lJaGtHK1w9-50" value="" style="endArrow=none;html=1;rounded=0;entryX=1;entryY=0.5;entryDx=0;entryDy=0;" edge="1" parent="dZ_lxA_ML4lJaGtHK1w9-45" target="dZ_lxA_ML4lJaGtHK1w9-46">
          <mxGeometry width="50" height="50" relative="1" as="geometry">
            <mxPoint x="180" y="30" as="sourcePoint" />
            <mxPoint x="80" y="65" as="targetPoint" />
          </mxGeometry>
        </mxCell>
        <mxCell id="dZ_lxA_ML4lJaGtHK1w9-51" value="a[0..15]" style="text;html=1;strokeColor=none;fillColor=none;align=center;verticalAlign=middle;whiteSpace=wrap;rounded=0;" vertex="1" parent="dZ_lxA_ML4lJaGtHK1w9-45">
          <mxGeometry x="18" y="-3" width="40" height="10" as="geometry" />
        </mxCell>
        <mxCell id="dZ_lxA_ML4lJaGtHK1w9-52" value="b[0..15]" style="text;html=1;strokeColor=none;fillColor=none;align=center;verticalAlign=middle;whiteSpace=wrap;rounded=0;" vertex="1" parent="dZ_lxA_ML4lJaGtHK1w9-45">
          <mxGeometry x="18" y="27" width="40" height="10" as="geometry" />
        </mxCell>
        <mxCell id="dZ_lxA_ML4lJaGtHK1w9-53" value="sel" style="text;html=1;strokeColor=none;fillColor=none;align=center;verticalAlign=middle;whiteSpace=wrap;rounded=0;" vertex="1" parent="dZ_lxA_ML4lJaGtHK1w9-45">
          <mxGeometry x="90" y="50" width="30" height="10" as="geometry" />
        </mxCell>
        <mxCell id="dZ_lxA_ML4lJaGtHK1w9-54" value="out[0..15]" style="text;html=1;strokeColor=none;fillColor=none;align=center;verticalAlign=middle;whiteSpace=wrap;rounded=0;" vertex="1" parent="dZ_lxA_ML4lJaGtHK1w9-45">
          <mxGeometry x="117" y="12" width="43" height="10" as="geometry" />
        </mxCell>
        <mxCell id="dZ_lxA_ML4lJaGtHK1w9-55" value="&lt;font style=&quot;font-size: 10px;&quot;&gt;MUX16&lt;/font&gt;" style="text;html=1;strokeColor=none;fillColor=none;align=center;verticalAlign=middle;whiteSpace=wrap;rounded=0;" vertex="1" parent="dZ_lxA_ML4lJaGtHK1w9-45">
          <mxGeometry x="50" y="15" width="60" height="30" as="geometry" />
        </mxCell>
        <mxCell id="dZ_lxA_ML4lJaGtHK1w9-56" value="" style="endArrow=none;html=1;rounded=0;" edge="1" parent="dZ_lxA_ML4lJaGtHK1w9-45">
          <mxGeometry width="50" height="50" relative="1" as="geometry">
            <mxPoint x="10" y="20" as="sourcePoint" />
            <mxPoint x="20" y="10" as="targetPoint" />
          </mxGeometry>
        </mxCell>
        <mxCell id="dZ_lxA_ML4lJaGtHK1w9-57" value="" style="endArrow=none;html=1;rounded=0;" edge="1" parent="dZ_lxA_ML4lJaGtHK1w9-45">
          <mxGeometry width="50" height="50" relative="1" as="geometry">
            <mxPoint x="10" y="50" as="sourcePoint" />
            <mxPoint x="20" y="40" as="targetPoint" />
          </mxGeometry>
        </mxCell>
        <mxCell id="dZ_lxA_ML4lJaGtHK1w9-58" value="" style="endArrow=none;html=1;rounded=0;" edge="1" parent="dZ_lxA_ML4lJaGtHK1w9-45">
          <mxGeometry width="50" height="50" relative="1" as="geometry">
            <mxPoint x="150" y="35" as="sourcePoint" />
            <mxPoint x="160" y="25" as="targetPoint" />
          </mxGeometry>
        </mxCell>
        <mxCell id="dZ_lxA_ML4lJaGtHK1w9-59" value="" style="group" vertex="1" connectable="0" parent="1">
          <mxGeometry x="470" y="275" width="200" height="105" as="geometry" />
        </mxCell>
        <mxCell id="dZ_lxA_ML4lJaGtHK1w9-60" value="" style="triangle;whiteSpace=wrap;html=1;" vertex="1" parent="dZ_lxA_ML4lJaGtHK1w9-59">
          <mxGeometry x="70" y="5" width="80" height="80" as="geometry" />
        </mxCell>
        <mxCell id="dZ_lxA_ML4lJaGtHK1w9-61" value="" style="endArrow=none;html=1;rounded=0;entryX=0.006;entryY=0.117;entryDx=0;entryDy=0;entryPerimeter=0;" edge="1" parent="dZ_lxA_ML4lJaGtHK1w9-59" target="dZ_lxA_ML4lJaGtHK1w9-60">
          <mxGeometry width="50" height="50" relative="1" as="geometry">
            <mxPoint y="15" as="sourcePoint" />
            <mxPoint x="40" y="25" as="targetPoint" />
          </mxGeometry>
        </mxCell>
        <mxCell id="dZ_lxA_ML4lJaGtHK1w9-62" value="" style="endArrow=none;html=1;rounded=0;entryX=0.004;entryY=0.371;entryDx=0;entryDy=0;entryPerimeter=0;" edge="1" parent="dZ_lxA_ML4lJaGtHK1w9-59" target="dZ_lxA_ML4lJaGtHK1w9-60">
          <mxGeometry width="50" height="50" relative="1" as="geometry">
            <mxPoint y="35" as="sourcePoint" />
            <mxPoint x="60" y="35" as="targetPoint" />
          </mxGeometry>
        </mxCell>
        <mxCell id="dZ_lxA_ML4lJaGtHK1w9-63" value="" style="endArrow=none;html=1;rounded=0;entryX=0.004;entryY=0.371;entryDx=0;entryDy=0;entryPerimeter=0;" edge="1" parent="dZ_lxA_ML4lJaGtHK1w9-59">
          <mxGeometry width="50" height="50" relative="1" as="geometry">
            <mxPoint y="74.88999999999999" as="sourcePoint" />
            <mxPoint x="70" y="74.88999999999999" as="targetPoint" />
          </mxGeometry>
        </mxCell>
        <mxCell id="dZ_lxA_ML4lJaGtHK1w9-64" value="" style="endArrow=none;html=1;rounded=0;entryX=0.004;entryY=0.371;entryDx=0;entryDy=0;entryPerimeter=0;" edge="1" parent="dZ_lxA_ML4lJaGtHK1w9-59">
          <mxGeometry width="50" height="50" relative="1" as="geometry">
            <mxPoint y="55" as="sourcePoint" />
            <mxPoint x="70" y="55" as="targetPoint" />
          </mxGeometry>
        </mxCell>
        <mxCell id="dZ_lxA_ML4lJaGtHK1w9-65" value="" style="endArrow=none;html=1;rounded=0;" edge="1" parent="dZ_lxA_ML4lJaGtHK1w9-59">
          <mxGeometry width="50" height="50" relative="1" as="geometry">
            <mxPoint x="90" y="105" as="sourcePoint" />
            <mxPoint x="90" y="105" as="targetPoint" />
            <Array as="points">
              <mxPoint x="90" y="75" />
              <mxPoint x="90" y="105" />
            </Array>
          </mxGeometry>
        </mxCell>
        <mxCell id="dZ_lxA_ML4lJaGtHK1w9-66" value="" style="endArrow=none;html=1;rounded=0;entryX=0.627;entryY=0.687;entryDx=0;entryDy=0;entryPerimeter=0;" edge="1" parent="dZ_lxA_ML4lJaGtHK1w9-59">
          <mxGeometry width="50" height="50" relative="1" as="geometry">
            <mxPoint x="120" y="105" as="sourcePoint" />
            <mxPoint x="120" y="60" as="targetPoint" />
          </mxGeometry>
        </mxCell>
        <mxCell id="dZ_lxA_ML4lJaGtHK1w9-67" value="" style="endArrow=none;html=1;rounded=0;exitX=1;exitY=0.5;exitDx=0;exitDy=0;" edge="1" parent="dZ_lxA_ML4lJaGtHK1w9-59" source="dZ_lxA_ML4lJaGtHK1w9-60">
          <mxGeometry width="50" height="50" relative="1" as="geometry">
            <mxPoint x="160" y="47" as="sourcePoint" />
            <mxPoint x="200" y="45" as="targetPoint" />
          </mxGeometry>
        </mxCell>
        <mxCell id="dZ_lxA_ML4lJaGtHK1w9-68" value="a[0..15]" style="text;html=1;strokeColor=none;fillColor=none;align=center;verticalAlign=middle;whiteSpace=wrap;rounded=0;" vertex="1" parent="dZ_lxA_ML4lJaGtHK1w9-59">
          <mxGeometry x="26" width="40" height="10" as="geometry" />
        </mxCell>
        <mxCell id="dZ_lxA_ML4lJaGtHK1w9-69" value="b[0..15]" style="text;html=1;strokeColor=none;fillColor=none;align=center;verticalAlign=middle;whiteSpace=wrap;rounded=0;" vertex="1" parent="dZ_lxA_ML4lJaGtHK1w9-59">
          <mxGeometry x="26" y="21" width="40" height="10" as="geometry" />
        </mxCell>
        <mxCell id="dZ_lxA_ML4lJaGtHK1w9-70" value="c[0..15]" style="text;html=1;strokeColor=none;fillColor=none;align=center;verticalAlign=middle;whiteSpace=wrap;rounded=0;" vertex="1" parent="dZ_lxA_ML4lJaGtHK1w9-59">
          <mxGeometry x="26" y="42" width="40" height="10" as="geometry" />
        </mxCell>
        <mxCell id="dZ_lxA_ML4lJaGtHK1w9-71" value="d[0..15]" style="text;html=1;strokeColor=none;fillColor=none;align=center;verticalAlign=middle;whiteSpace=wrap;rounded=0;" vertex="1" parent="dZ_lxA_ML4lJaGtHK1w9-59">
          <mxGeometry x="26" y="61" width="40" height="10" as="geometry" />
        </mxCell>
        <mxCell id="dZ_lxA_ML4lJaGtHK1w9-72" value="&lt;font style=&quot;font-size: 9px;&quot;&gt;MUX4WAY16&lt;/font&gt;" style="text;html=1;strokeColor=none;fillColor=none;align=center;verticalAlign=middle;whiteSpace=wrap;rounded=0;" vertex="1" parent="dZ_lxA_ML4lJaGtHK1w9-59">
          <mxGeometry x="73" y="30" width="60" height="30" as="geometry" />
        </mxCell>
        <mxCell id="dZ_lxA_ML4lJaGtHK1w9-73" value="" style="endArrow=none;html=1;rounded=0;" edge="1" parent="dZ_lxA_ML4lJaGtHK1w9-59">
          <mxGeometry width="50" height="50" relative="1" as="geometry">
            <mxPoint x="10" y="20" as="sourcePoint" />
            <mxPoint x="20" y="10" as="targetPoint" />
          </mxGeometry>
        </mxCell>
        <mxCell id="dZ_lxA_ML4lJaGtHK1w9-74" value="" style="endArrow=none;html=1;rounded=0;" edge="1" parent="dZ_lxA_ML4lJaGtHK1w9-59">
          <mxGeometry width="50" height="50" relative="1" as="geometry">
            <mxPoint x="10" y="40" as="sourcePoint" />
            <mxPoint x="20" y="30" as="targetPoint" />
          </mxGeometry>
        </mxCell>
        <mxCell id="dZ_lxA_ML4lJaGtHK1w9-75" value="" style="endArrow=none;html=1;rounded=0;" edge="1" parent="dZ_lxA_ML4lJaGtHK1w9-59">
          <mxGeometry width="50" height="50" relative="1" as="geometry">
            <mxPoint x="10" y="60" as="sourcePoint" />
            <mxPoint x="20" y="50" as="targetPoint" />
          </mxGeometry>
        </mxCell>
        <mxCell id="dZ_lxA_ML4lJaGtHK1w9-76" value="" style="endArrow=none;html=1;rounded=0;" edge="1" parent="dZ_lxA_ML4lJaGtHK1w9-59">
          <mxGeometry width="50" height="50" relative="1" as="geometry">
            <mxPoint x="10" y="80" as="sourcePoint" />
            <mxPoint x="20" y="70" as="targetPoint" />
          </mxGeometry>
        </mxCell>
        <mxCell id="dZ_lxA_ML4lJaGtHK1w9-77" value="&lt;font style=&quot;font-size: 10px;&quot;&gt;sel[0]&lt;/font&gt;" style="text;html=1;strokeColor=none;fillColor=none;align=center;verticalAlign=middle;whiteSpace=wrap;rounded=0;" vertex="1" parent="dZ_lxA_ML4lJaGtHK1w9-59">
          <mxGeometry x="119" y="78" width="30" height="10" as="geometry" />
        </mxCell>
        <mxCell id="dZ_lxA_ML4lJaGtHK1w9-78" value="&lt;font style=&quot;font-size: 10px;&quot;&gt;sel[1]&lt;/font&gt;" style="text;html=1;strokeColor=none;fillColor=none;align=center;verticalAlign=middle;whiteSpace=wrap;rounded=0;" vertex="1" parent="dZ_lxA_ML4lJaGtHK1w9-59">
          <mxGeometry x="89" y="78" width="30" height="10" as="geometry" />
        </mxCell>
        <mxCell id="dZ_lxA_ML4lJaGtHK1w9-79" value="out[0..15]" style="text;html=1;strokeColor=none;fillColor=none;align=center;verticalAlign=middle;whiteSpace=wrap;rounded=0;" vertex="1" parent="dZ_lxA_ML4lJaGtHK1w9-59">
          <mxGeometry x="153" y="26" width="43" height="10" as="geometry" />
        </mxCell>
        <mxCell id="dZ_lxA_ML4lJaGtHK1w9-80" value="" style="endArrow=none;html=1;rounded=0;" edge="1" parent="dZ_lxA_ML4lJaGtHK1w9-59">
          <mxGeometry width="50" height="50" relative="1" as="geometry">
            <mxPoint x="170" y="50" as="sourcePoint" />
            <mxPoint x="180" y="40" as="targetPoint" />
          </mxGeometry>
        </mxCell>
        <mxCell id="dZ_lxA_ML4lJaGtHK1w9-81" value="" style="group" vertex="1" connectable="0" parent="1">
          <mxGeometry x="480" y="420" width="180" height="80" as="geometry" />
        </mxCell>
        <mxCell id="dZ_lxA_ML4lJaGtHK1w9-82" value="" style="triangle;whiteSpace=wrap;html=1;rotation=-180;" vertex="1" parent="dZ_lxA_ML4lJaGtHK1w9-81">
          <mxGeometry x="60" width="60" height="60" as="geometry" />
        </mxCell>
        <mxCell id="dZ_lxA_ML4lJaGtHK1w9-83" value="&lt;font style=&quot;font-size: 10px;&quot;&gt;DMUX&lt;/font&gt;" style="text;html=1;strokeColor=none;fillColor=none;align=center;verticalAlign=middle;whiteSpace=wrap;rounded=0;" vertex="1" parent="dZ_lxA_ML4lJaGtHK1w9-81">
          <mxGeometry x="70" y="15" width="60" height="30" as="geometry" />
        </mxCell>
        <mxCell id="dZ_lxA_ML4lJaGtHK1w9-84" value="" style="endArrow=none;html=1;rounded=0;entryX=1;entryY=0.5;entryDx=0;entryDy=0;" edge="1" parent="dZ_lxA_ML4lJaGtHK1w9-81" target="dZ_lxA_ML4lJaGtHK1w9-82">
          <mxGeometry width="50" height="50" relative="1" as="geometry">
            <mxPoint y="30" as="sourcePoint" />
            <mxPoint x="-10" y="-30" as="targetPoint" />
          </mxGeometry>
        </mxCell>
        <mxCell id="dZ_lxA_ML4lJaGtHK1w9-85" value="in" style="text;html=1;strokeColor=none;fillColor=none;align=center;verticalAlign=middle;whiteSpace=wrap;rounded=0;" vertex="1" parent="dZ_lxA_ML4lJaGtHK1w9-81">
          <mxGeometry x="27" y="15" width="43" height="10" as="geometry" />
        </mxCell>
        <mxCell id="dZ_lxA_ML4lJaGtHK1w9-86" value="" style="endArrow=none;html=1;rounded=0;entryX=1;entryY=0.5;entryDx=0;entryDy=0;" edge="1" parent="dZ_lxA_ML4lJaGtHK1w9-81">
          <mxGeometry width="50" height="50" relative="1" as="geometry">
            <mxPoint x="120" y="15" as="sourcePoint" />
            <mxPoint x="180" y="15" as="targetPoint" />
          </mxGeometry>
        </mxCell>
        <mxCell id="dZ_lxA_ML4lJaGtHK1w9-87" value="" style="endArrow=none;html=1;rounded=0;entryX=1;entryY=0.5;entryDx=0;entryDy=0;" edge="1" parent="dZ_lxA_ML4lJaGtHK1w9-81">
          <mxGeometry width="50" height="50" relative="1" as="geometry">
            <mxPoint x="120" y="45" as="sourcePoint" />
            <mxPoint x="180" y="45" as="targetPoint" />
          </mxGeometry>
        </mxCell>
        <mxCell id="dZ_lxA_ML4lJaGtHK1w9-88" value="a" style="text;html=1;strokeColor=none;fillColor=none;align=center;verticalAlign=middle;whiteSpace=wrap;rounded=0;" vertex="1" parent="dZ_lxA_ML4lJaGtHK1w9-81">
          <mxGeometry x="120" width="30" height="10" as="geometry" />
        </mxCell>
        <mxCell id="dZ_lxA_ML4lJaGtHK1w9-89" value="b" style="text;html=1;strokeColor=none;fillColor=none;align=center;verticalAlign=middle;whiteSpace=wrap;rounded=0;" vertex="1" parent="dZ_lxA_ML4lJaGtHK1w9-81">
          <mxGeometry x="120" y="30" width="30" height="10" as="geometry" />
        </mxCell>
        <mxCell id="dZ_lxA_ML4lJaGtHK1w9-90" value="" style="endArrow=none;html=1;rounded=0;entryX=0.5;entryY=1;entryDx=0;entryDy=0;" edge="1" parent="dZ_lxA_ML4lJaGtHK1w9-81">
          <mxGeometry width="50" height="50" relative="1" as="geometry">
            <mxPoint x="89" y="80" as="sourcePoint" />
            <mxPoint x="89" y="45" as="targetPoint" />
          </mxGeometry>
        </mxCell>
        <mxCell id="dZ_lxA_ML4lJaGtHK1w9-91" value="sel" style="text;html=1;strokeColor=none;fillColor=none;align=center;verticalAlign=middle;whiteSpace=wrap;rounded=0;" vertex="1" parent="dZ_lxA_ML4lJaGtHK1w9-81">
          <mxGeometry x="85" y="57" width="30" height="10" as="geometry" />
        </mxCell>
        <mxCell id="dZ_lxA_ML4lJaGtHK1w9-92" value="" style="group" vertex="1" connectable="0" parent="1">
          <mxGeometry x="480" y="525" width="210" height="105" as="geometry" />
        </mxCell>
        <mxCell id="dZ_lxA_ML4lJaGtHK1w9-93" value="" style="triangle;whiteSpace=wrap;html=1;rotation=-180;" vertex="1" parent="dZ_lxA_ML4lJaGtHK1w9-92">
          <mxGeometry x="60" y="5" width="80" height="80" as="geometry" />
        </mxCell>
        <mxCell id="dZ_lxA_ML4lJaGtHK1w9-94" value="" style="endArrow=none;html=1;rounded=0;entryX=0.006;entryY=0.117;entryDx=0;entryDy=0;entryPerimeter=0;" edge="1" parent="dZ_lxA_ML4lJaGtHK1w9-92">
          <mxGeometry width="50" height="50" relative="1" as="geometry">
            <mxPoint x="140" y="15" as="sourcePoint" />
            <mxPoint x="210" y="14" as="targetPoint" />
          </mxGeometry>
        </mxCell>
        <mxCell id="dZ_lxA_ML4lJaGtHK1w9-95" value="" style="endArrow=none;html=1;rounded=0;entryX=0.004;entryY=0.371;entryDx=0;entryDy=0;entryPerimeter=0;" edge="1" parent="dZ_lxA_ML4lJaGtHK1w9-92">
          <mxGeometry width="50" height="50" relative="1" as="geometry">
            <mxPoint x="140" y="35" as="sourcePoint" />
            <mxPoint x="210" y="35" as="targetPoint" />
          </mxGeometry>
        </mxCell>
        <mxCell id="dZ_lxA_ML4lJaGtHK1w9-96" value="" style="endArrow=none;html=1;rounded=0;entryX=0.004;entryY=0.371;entryDx=0;entryDy=0;entryPerimeter=0;" edge="1" parent="dZ_lxA_ML4lJaGtHK1w9-92">
          <mxGeometry width="50" height="50" relative="1" as="geometry">
            <mxPoint x="140" y="74.88999999999999" as="sourcePoint" />
            <mxPoint x="210" y="74.88999999999999" as="targetPoint" />
          </mxGeometry>
        </mxCell>
        <mxCell id="dZ_lxA_ML4lJaGtHK1w9-97" value="" style="endArrow=none;html=1;rounded=0;entryX=0.004;entryY=0.371;entryDx=0;entryDy=0;entryPerimeter=0;" edge="1" parent="dZ_lxA_ML4lJaGtHK1w9-92">
          <mxGeometry width="50" height="50" relative="1" as="geometry">
            <mxPoint x="140" y="55" as="sourcePoint" />
            <mxPoint x="210" y="55" as="targetPoint" />
          </mxGeometry>
        </mxCell>
        <mxCell id="dZ_lxA_ML4lJaGtHK1w9-98" value="a[0..15]" style="text;html=1;strokeColor=none;fillColor=none;align=center;verticalAlign=middle;whiteSpace=wrap;rounded=0;" vertex="1" parent="dZ_lxA_ML4lJaGtHK1w9-92">
          <mxGeometry x="166" width="40" height="10" as="geometry" />
        </mxCell>
        <mxCell id="dZ_lxA_ML4lJaGtHK1w9-99" value="b[0..15]" style="text;html=1;strokeColor=none;fillColor=none;align=center;verticalAlign=middle;whiteSpace=wrap;rounded=0;" vertex="1" parent="dZ_lxA_ML4lJaGtHK1w9-92">
          <mxGeometry x="166" y="21" width="40" height="10" as="geometry" />
        </mxCell>
        <mxCell id="dZ_lxA_ML4lJaGtHK1w9-100" value="c[0..15]" style="text;html=1;strokeColor=none;fillColor=none;align=center;verticalAlign=middle;whiteSpace=wrap;rounded=0;" vertex="1" parent="dZ_lxA_ML4lJaGtHK1w9-92">
          <mxGeometry x="166" y="42" width="40" height="10" as="geometry" />
        </mxCell>
        <mxCell id="dZ_lxA_ML4lJaGtHK1w9-101" value="d[0..15]" style="text;html=1;strokeColor=none;fillColor=none;align=center;verticalAlign=middle;whiteSpace=wrap;rounded=0;" vertex="1" parent="dZ_lxA_ML4lJaGtHK1w9-92">
          <mxGeometry x="166" y="61" width="40" height="10" as="geometry" />
        </mxCell>
        <mxCell id="dZ_lxA_ML4lJaGtHK1w9-102" value="" style="endArrow=none;html=1;rounded=0;" edge="1" parent="dZ_lxA_ML4lJaGtHK1w9-92">
          <mxGeometry width="50" height="50" relative="1" as="geometry">
            <mxPoint x="150" y="20" as="sourcePoint" />
            <mxPoint x="160" y="10" as="targetPoint" />
          </mxGeometry>
        </mxCell>
        <mxCell id="dZ_lxA_ML4lJaGtHK1w9-103" value="" style="endArrow=none;html=1;rounded=0;" edge="1" parent="dZ_lxA_ML4lJaGtHK1w9-92">
          <mxGeometry width="50" height="50" relative="1" as="geometry">
            <mxPoint x="150" y="40" as="sourcePoint" />
            <mxPoint x="160" y="30" as="targetPoint" />
          </mxGeometry>
        </mxCell>
        <mxCell id="dZ_lxA_ML4lJaGtHK1w9-104" value="" style="endArrow=none;html=1;rounded=0;" edge="1" parent="dZ_lxA_ML4lJaGtHK1w9-92">
          <mxGeometry width="50" height="50" relative="1" as="geometry">
            <mxPoint x="150" y="60" as="sourcePoint" />
            <mxPoint x="160" y="50" as="targetPoint" />
          </mxGeometry>
        </mxCell>
        <mxCell id="dZ_lxA_ML4lJaGtHK1w9-105" value="" style="endArrow=none;html=1;rounded=0;" edge="1" parent="dZ_lxA_ML4lJaGtHK1w9-92">
          <mxGeometry width="50" height="50" relative="1" as="geometry">
            <mxPoint x="150" y="80" as="sourcePoint" />
            <mxPoint x="160" y="70" as="targetPoint" />
          </mxGeometry>
        </mxCell>
        <mxCell id="dZ_lxA_ML4lJaGtHK1w9-106" value="" style="endArrow=none;html=1;rounded=0;entryX=1;entryY=0.5;entryDx=0;entryDy=0;" edge="1" parent="dZ_lxA_ML4lJaGtHK1w9-92">
          <mxGeometry width="50" height="50" relative="1" as="geometry">
            <mxPoint y="45.039999999999964" as="sourcePoint" />
            <mxPoint x="60" y="45.039999999999964" as="targetPoint" />
          </mxGeometry>
        </mxCell>
        <mxCell id="dZ_lxA_ML4lJaGtHK1w9-107" value="in" style="text;html=1;strokeColor=none;fillColor=none;align=center;verticalAlign=middle;whiteSpace=wrap;rounded=0;" vertex="1" parent="dZ_lxA_ML4lJaGtHK1w9-92">
          <mxGeometry x="27" y="30.039999999999964" width="43" height="10" as="geometry" />
        </mxCell>
        <mxCell id="dZ_lxA_ML4lJaGtHK1w9-108" value="" style="endArrow=none;html=1;rounded=0;entryX=0.627;entryY=0.687;entryDx=0;entryDy=0;entryPerimeter=0;" edge="1" parent="dZ_lxA_ML4lJaGtHK1w9-92">
          <mxGeometry width="50" height="50" relative="1" as="geometry">
            <mxPoint x="120" y="105" as="sourcePoint" />
            <mxPoint x="120" y="75" as="targetPoint" />
          </mxGeometry>
        </mxCell>
        <mxCell id="dZ_lxA_ML4lJaGtHK1w9-109" value="&lt;font style=&quot;font-size: 10px;&quot;&gt;sel[0]&lt;/font&gt;" style="text;html=1;strokeColor=none;fillColor=none;align=center;verticalAlign=middle;whiteSpace=wrap;rounded=0;" vertex="1" parent="dZ_lxA_ML4lJaGtHK1w9-92">
          <mxGeometry x="119" y="88" width="30" height="10" as="geometry" />
        </mxCell>
        <mxCell id="dZ_lxA_ML4lJaGtHK1w9-110" value="&lt;font style=&quot;font-size: 10px;&quot;&gt;sel[1]&lt;/font&gt;" style="text;html=1;strokeColor=none;fillColor=none;align=center;verticalAlign=middle;whiteSpace=wrap;rounded=0;" vertex="1" parent="dZ_lxA_ML4lJaGtHK1w9-92">
          <mxGeometry x="89" y="88" width="30" height="10" as="geometry" />
        </mxCell>
        <mxCell id="dZ_lxA_ML4lJaGtHK1w9-111" value="" style="endArrow=none;html=1;rounded=0;exitX=0.628;exitY=0.31;exitDx=0;exitDy=0;exitPerimeter=0;" edge="1" parent="dZ_lxA_ML4lJaGtHK1w9-92" source="dZ_lxA_ML4lJaGtHK1w9-93">
          <mxGeometry width="50" height="50" relative="1" as="geometry">
            <mxPoint x="90" y="65" as="sourcePoint" />
            <mxPoint x="90" y="105" as="targetPoint" />
          </mxGeometry>
        </mxCell>
        <mxCell id="dZ_lxA_ML4lJaGtHK1w9-112" value="&lt;span style=&quot;color: rgb(0, 0, 0); font-family: Helvetica; font-size: 9px; font-style: normal; font-variant-ligatures: normal; font-variant-caps: normal; font-weight: 400; letter-spacing: normal; orphans: 2; text-align: center; text-indent: 0px; text-transform: none; widows: 2; word-spacing: 0px; -webkit-text-stroke-width: 0px; background-color: rgb(251, 251, 251); text-decoration-thickness: initial; text-decoration-style: initial; text-decoration-color: initial; float: none; display: inline !important;&quot;&gt;DMUX4WAY&lt;/span&gt;" style="text;whiteSpace=wrap;html=1;" vertex="1" parent="dZ_lxA_ML4lJaGtHK1w9-92">
          <mxGeometry x="76" y="30.039999999999964" width="64" height="24.96" as="geometry" />
        </mxCell>
        <mxCell id="xL7NqKNDoJ472OUH4kUm-9" value="" style="group" vertex="1" connectable="0" parent="1">
          <mxGeometry x="240" y="620" width="180" height="60" as="geometry" />
        </mxCell>
        <mxCell id="xL7NqKNDoJ472OUH4kUm-1" value="" style="verticalLabelPosition=bottom;shadow=0;dashed=0;align=center;html=1;verticalAlign=top;shape=mxgraph.electrical.logic_gates.logic_gate;operation=xor;" vertex="1" parent="xL7NqKNDoJ472OUH4kUm-9">
          <mxGeometry x="45" width="100" height="60" as="geometry" />
        </mxCell>
        <mxCell id="xL7NqKNDoJ472OUH4kUm-2" value="" style="endArrow=none;html=1;rounded=0;entryX=0;entryY=0.25;entryDx=0;entryDy=0;entryPerimeter=0;" edge="1" parent="xL7NqKNDoJ472OUH4kUm-9" target="xL7NqKNDoJ472OUH4kUm-1">
          <mxGeometry width="50" height="50" relative="1" as="geometry">
            <mxPoint y="15" as="sourcePoint" />
            <mxPoint x="30" y="30" as="targetPoint" />
          </mxGeometry>
        </mxCell>
        <mxCell id="xL7NqKNDoJ472OUH4kUm-3" value="" style="endArrow=none;html=1;rounded=0;entryX=0;entryY=0.75;entryDx=0;entryDy=0;entryPerimeter=0;" edge="1" parent="xL7NqKNDoJ472OUH4kUm-9" target="xL7NqKNDoJ472OUH4kUm-1">
          <mxGeometry width="50" height="50" relative="1" as="geometry">
            <mxPoint y="45" as="sourcePoint" />
            <mxPoint x="55" y="25" as="targetPoint" />
          </mxGeometry>
        </mxCell>
        <mxCell id="xL7NqKNDoJ472OUH4kUm-4" value="a" style="text;html=1;strokeColor=none;fillColor=none;align=center;verticalAlign=middle;whiteSpace=wrap;rounded=0;" vertex="1" parent="xL7NqKNDoJ472OUH4kUm-9">
          <mxGeometry x="30" width="30" height="10" as="geometry" />
        </mxCell>
        <mxCell id="xL7NqKNDoJ472OUH4kUm-5" value="b" style="text;html=1;strokeColor=none;fillColor=none;align=center;verticalAlign=middle;whiteSpace=wrap;rounded=0;" vertex="1" parent="xL7NqKNDoJ472OUH4kUm-9">
          <mxGeometry x="30" y="30" width="30" height="10" as="geometry" />
        </mxCell>
        <mxCell id="xL7NqKNDoJ472OUH4kUm-6" value="out" style="text;html=1;strokeColor=none;fillColor=none;align=center;verticalAlign=middle;whiteSpace=wrap;rounded=0;" vertex="1" parent="xL7NqKNDoJ472OUH4kUm-9">
          <mxGeometry x="120" y="15" width="30" height="10" as="geometry" />
        </mxCell>
        <mxCell id="xL7NqKNDoJ472OUH4kUm-8" value="" style="endArrow=none;html=1;rounded=0;entryX=1;entryY=0.5;entryDx=0;entryDy=0;entryPerimeter=0;" edge="1" parent="xL7NqKNDoJ472OUH4kUm-9" target="xL7NqKNDoJ472OUH4kUm-1">
          <mxGeometry width="50" height="50" relative="1" as="geometry">
            <mxPoint x="180" y="30" as="sourcePoint" />
            <mxPoint x="150" y="30" as="targetPoint" />
          </mxGeometry>
        </mxCell>
        <mxCell id="FN2VuZSfmct9nAiLsJR0-21" value="" style="group" vertex="1" connectable="0" parent="1">
          <mxGeometry y="480" width="150" height="60" as="geometry" />
        </mxCell>
        <mxCell id="FN2VuZSfmct9nAiLsJR0-2" value="Half&lt;br&gt;Adder" style="rounded=0;whiteSpace=wrap;html=1;" vertex="1" parent="FN2VuZSfmct9nAiLsJR0-21">
          <mxGeometry x="40" width="70" height="60" as="geometry" />
        </mxCell>
        <mxCell id="FN2VuZSfmct9nAiLsJR0-3" value="" style="endArrow=none;html=1;rounded=0;entryX=-0.005;entryY=0.319;entryDx=0;entryDy=0;entryPerimeter=0;" edge="1" parent="FN2VuZSfmct9nAiLsJR0-21" target="FN2VuZSfmct9nAiLsJR0-2">
          <mxGeometry width="50" height="50" relative="1" as="geometry">
            <mxPoint y="19" as="sourcePoint" />
            <mxPoint x="30" y="20" as="targetPoint" />
          </mxGeometry>
        </mxCell>
        <mxCell id="FN2VuZSfmct9nAiLsJR0-4" value="" style="endArrow=none;html=1;rounded=0;entryX=0;entryY=0.663;entryDx=0;entryDy=0;entryPerimeter=0;" edge="1" parent="FN2VuZSfmct9nAiLsJR0-21" target="FN2VuZSfmct9nAiLsJR0-2">
          <mxGeometry width="50" height="50" relative="1" as="geometry">
            <mxPoint y="40" as="sourcePoint" />
            <mxPoint x="30" y="40" as="targetPoint" />
          </mxGeometry>
        </mxCell>
        <mxCell id="FN2VuZSfmct9nAiLsJR0-15" value="a" style="text;html=1;strokeColor=none;fillColor=none;align=center;verticalAlign=middle;whiteSpace=wrap;rounded=0;" vertex="1" parent="FN2VuZSfmct9nAiLsJR0-21">
          <mxGeometry x="10" y="7" width="30" height="10" as="geometry" />
        </mxCell>
        <mxCell id="FN2VuZSfmct9nAiLsJR0-16" value="b" style="text;html=1;strokeColor=none;fillColor=none;align=center;verticalAlign=middle;whiteSpace=wrap;rounded=0;" vertex="1" parent="FN2VuZSfmct9nAiLsJR0-21">
          <mxGeometry x="10" y="29" width="30" height="10" as="geometry" />
        </mxCell>
        <mxCell id="FN2VuZSfmct9nAiLsJR0-17" value="" style="endArrow=none;html=1;rounded=0;entryX=-0.005;entryY=0.319;entryDx=0;entryDy=0;entryPerimeter=0;" edge="1" parent="FN2VuZSfmct9nAiLsJR0-21">
          <mxGeometry width="50" height="50" relative="1" as="geometry">
            <mxPoint x="110" y="19" as="sourcePoint" />
            <mxPoint x="150" y="19" as="targetPoint" />
          </mxGeometry>
        </mxCell>
        <mxCell id="FN2VuZSfmct9nAiLsJR0-18" value="" style="endArrow=none;html=1;rounded=0;entryX=0;entryY=0.663;entryDx=0;entryDy=0;entryPerimeter=0;" edge="1" parent="FN2VuZSfmct9nAiLsJR0-21">
          <mxGeometry width="50" height="50" relative="1" as="geometry">
            <mxPoint x="110" y="40" as="sourcePoint" />
            <mxPoint x="150" y="40" as="targetPoint" />
          </mxGeometry>
        </mxCell>
        <mxCell id="FN2VuZSfmct9nAiLsJR0-19" value="sum" style="text;html=1;strokeColor=none;fillColor=none;align=center;verticalAlign=middle;whiteSpace=wrap;rounded=0;" vertex="1" parent="FN2VuZSfmct9nAiLsJR0-21">
          <mxGeometry x="120" y="7" width="30" height="10" as="geometry" />
        </mxCell>
        <mxCell id="FN2VuZSfmct9nAiLsJR0-20" value="carry" style="text;html=1;strokeColor=none;fillColor=none;align=center;verticalAlign=middle;whiteSpace=wrap;rounded=0;" vertex="1" parent="FN2VuZSfmct9nAiLsJR0-21">
          <mxGeometry x="120" y="29" width="30" height="10" as="geometry" />
        </mxCell>
        <mxCell id="f9AIUI6LQqhymuwZp6Ry-23" value="" style="group" vertex="1" connectable="0" parent="1">
          <mxGeometry y="600" width="150" height="80" as="geometry" />
        </mxCell>
        <mxCell id="f9AIUI6LQqhymuwZp6Ry-1" value="" style="group" vertex="1" connectable="0" parent="f9AIUI6LQqhymuwZp6Ry-23">
          <mxGeometry width="150" height="80" as="geometry" />
        </mxCell>
        <mxCell id="f9AIUI6LQqhymuwZp6Ry-2" value="Full&lt;br&gt;Adder" style="rounded=0;whiteSpace=wrap;html=1;" vertex="1" parent="f9AIUI6LQqhymuwZp6Ry-1">
          <mxGeometry x="40" width="70" height="80" as="geometry" />
        </mxCell>
        <mxCell id="f9AIUI6LQqhymuwZp6Ry-3" value="" style="endArrow=none;html=1;rounded=0;entryX=0;entryY=0.25;entryDx=0;entryDy=0;" edge="1" parent="f9AIUI6LQqhymuwZp6Ry-1" target="f9AIUI6LQqhymuwZp6Ry-2">
          <mxGeometry width="50" height="50" relative="1" as="geometry">
            <mxPoint y="20" as="sourcePoint" />
            <mxPoint x="30" y="20" as="targetPoint" />
          </mxGeometry>
        </mxCell>
        <mxCell id="f9AIUI6LQqhymuwZp6Ry-4" value="" style="endArrow=none;html=1;rounded=0;entryX=0;entryY=0.5;entryDx=0;entryDy=0;" edge="1" parent="f9AIUI6LQqhymuwZp6Ry-1" target="f9AIUI6LQqhymuwZp6Ry-2">
          <mxGeometry width="50" height="50" relative="1" as="geometry">
            <mxPoint y="40" as="sourcePoint" />
            <mxPoint x="30" y="40" as="targetPoint" />
          </mxGeometry>
        </mxCell>
        <mxCell id="f9AIUI6LQqhymuwZp6Ry-5" value="a" style="text;html=1;strokeColor=none;fillColor=none;align=center;verticalAlign=middle;whiteSpace=wrap;rounded=0;" vertex="1" parent="f9AIUI6LQqhymuwZp6Ry-1">
          <mxGeometry x="10" y="7" width="30" height="10" as="geometry" />
        </mxCell>
        <mxCell id="f9AIUI6LQqhymuwZp6Ry-6" value="b" style="text;html=1;strokeColor=none;fillColor=none;align=center;verticalAlign=middle;whiteSpace=wrap;rounded=0;" vertex="1" parent="f9AIUI6LQqhymuwZp6Ry-1">
          <mxGeometry x="10" y="29" width="30" height="10" as="geometry" />
        </mxCell>
        <mxCell id="f9AIUI6LQqhymuwZp6Ry-7" value="" style="endArrow=none;html=1;rounded=0;entryX=-0.005;entryY=0.319;entryDx=0;entryDy=0;entryPerimeter=0;" edge="1" parent="f9AIUI6LQqhymuwZp6Ry-1">
          <mxGeometry width="50" height="50" relative="1" as="geometry">
            <mxPoint x="110" y="19" as="sourcePoint" />
            <mxPoint x="150" y="19" as="targetPoint" />
          </mxGeometry>
        </mxCell>
        <mxCell id="f9AIUI6LQqhymuwZp6Ry-8" value="" style="endArrow=none;html=1;rounded=0;entryX=0;entryY=0.663;entryDx=0;entryDy=0;entryPerimeter=0;" edge="1" parent="f9AIUI6LQqhymuwZp6Ry-1">
          <mxGeometry width="50" height="50" relative="1" as="geometry">
            <mxPoint x="110" y="60" as="sourcePoint" />
            <mxPoint x="150" y="60" as="targetPoint" />
          </mxGeometry>
        </mxCell>
        <mxCell id="f9AIUI6LQqhymuwZp6Ry-9" value="sum" style="text;html=1;strokeColor=none;fillColor=none;align=center;verticalAlign=middle;whiteSpace=wrap;rounded=0;" vertex="1" parent="f9AIUI6LQqhymuwZp6Ry-1">
          <mxGeometry x="120" y="7" width="30" height="10" as="geometry" />
        </mxCell>
        <mxCell id="f9AIUI6LQqhymuwZp6Ry-10" value="carry" style="text;html=1;strokeColor=none;fillColor=none;align=center;verticalAlign=middle;whiteSpace=wrap;rounded=0;" vertex="1" parent="f9AIUI6LQqhymuwZp6Ry-1">
          <mxGeometry x="120" y="49" width="30" height="10" as="geometry" />
        </mxCell>
        <mxCell id="f9AIUI6LQqhymuwZp6Ry-22" value="c" style="text;html=1;strokeColor=none;fillColor=none;align=center;verticalAlign=middle;whiteSpace=wrap;rounded=0;" vertex="1" parent="f9AIUI6LQqhymuwZp6Ry-1">
          <mxGeometry x="10" y="49" width="30" height="10" as="geometry" />
        </mxCell>
        <mxCell id="f9AIUI6LQqhymuwZp6Ry-11" value="" style="endArrow=none;html=1;rounded=0;entryX=0;entryY=0.75;entryDx=0;entryDy=0;" edge="1" parent="f9AIUI6LQqhymuwZp6Ry-23" target="f9AIUI6LQqhymuwZp6Ry-2">
          <mxGeometry width="50" height="50" relative="1" as="geometry">
            <mxPoint y="60" as="sourcePoint" />
            <mxPoint x="50" y="50" as="targetPoint" />
          </mxGeometry>
        </mxCell>
        <mxCell id="sXk1QTeG2uJjv-Yh6nv5-13" value="" style="group" vertex="1" connectable="0" parent="1">
          <mxGeometry x="40" y="720" width="180" height="60" as="geometry" />
        </mxCell>
        <mxCell id="sXk1QTeG2uJjv-Yh6nv5-1" value="" style="group" vertex="1" connectable="0" parent="sXk1QTeG2uJjv-Yh6nv5-13">
          <mxGeometry width="180" height="60" as="geometry" />
        </mxCell>
        <mxCell id="sXk1QTeG2uJjv-Yh6nv5-2" value="Add16" style="rounded=0;whiteSpace=wrap;html=1;" vertex="1" parent="sXk1QTeG2uJjv-Yh6nv5-1">
          <mxGeometry x="40" width="70" height="60" as="geometry" />
        </mxCell>
        <mxCell id="sXk1QTeG2uJjv-Yh6nv5-3" value="" style="endArrow=none;html=1;rounded=0;entryX=-0.005;entryY=0.319;entryDx=0;entryDy=0;entryPerimeter=0;" edge="1" parent="sXk1QTeG2uJjv-Yh6nv5-1" target="sXk1QTeG2uJjv-Yh6nv5-2">
          <mxGeometry width="50" height="50" relative="1" as="geometry">
            <mxPoint y="19" as="sourcePoint" />
            <mxPoint x="30" y="20" as="targetPoint" />
          </mxGeometry>
        </mxCell>
        <mxCell id="sXk1QTeG2uJjv-Yh6nv5-4" value="" style="endArrow=none;html=1;rounded=0;entryX=0;entryY=0.663;entryDx=0;entryDy=0;entryPerimeter=0;" edge="1" parent="sXk1QTeG2uJjv-Yh6nv5-1" target="sXk1QTeG2uJjv-Yh6nv5-2">
          <mxGeometry width="50" height="50" relative="1" as="geometry">
            <mxPoint y="40" as="sourcePoint" />
            <mxPoint x="30" y="40" as="targetPoint" />
          </mxGeometry>
        </mxCell>
        <mxCell id="sXk1QTeG2uJjv-Yh6nv5-5" value="a[0..15]" style="text;html=1;strokeColor=none;fillColor=none;align=center;verticalAlign=middle;whiteSpace=wrap;rounded=0;" vertex="1" parent="sXk1QTeG2uJjv-Yh6nv5-1">
          <mxGeometry x="-10" y="2" width="49" height="10" as="geometry" />
        </mxCell>
        <mxCell id="sXk1QTeG2uJjv-Yh6nv5-6" value="b[0..15]" style="text;html=1;strokeColor=none;fillColor=none;align=center;verticalAlign=middle;whiteSpace=wrap;rounded=0;" vertex="1" parent="sXk1QTeG2uJjv-Yh6nv5-1">
          <mxGeometry x="-10" y="25" width="50" height="10" as="geometry" />
        </mxCell>
        <mxCell id="sXk1QTeG2uJjv-Yh6nv5-7" value="" style="endArrow=none;html=1;rounded=0;entryX=-0.005;entryY=0.319;entryDx=0;entryDy=0;entryPerimeter=0;" edge="1" parent="sXk1QTeG2uJjv-Yh6nv5-1">
          <mxGeometry width="50" height="50" relative="1" as="geometry">
            <mxPoint x="110" y="29" as="sourcePoint" />
            <mxPoint x="150" y="29" as="targetPoint" />
          </mxGeometry>
        </mxCell>
        <mxCell id="sXk1QTeG2uJjv-Yh6nv5-9" value="out[0..15]" style="text;html=1;strokeColor=none;fillColor=none;align=center;verticalAlign=middle;whiteSpace=wrap;rounded=0;" vertex="1" parent="sXk1QTeG2uJjv-Yh6nv5-1">
          <mxGeometry x="106" y="15" width="60" height="10" as="geometry" />
        </mxCell>
        <mxCell id="sXk1QTeG2uJjv-Yh6nv5-11" value="" style="endArrow=none;html=1;rounded=0;" edge="1" parent="sXk1QTeG2uJjv-Yh6nv5-1">
          <mxGeometry width="50" height="50" relative="1" as="geometry">
            <mxPoint x="10" y="45" as="sourcePoint" />
            <mxPoint x="20" y="35" as="targetPoint" />
          </mxGeometry>
        </mxCell>
        <mxCell id="sXk1QTeG2uJjv-Yh6nv5-12" value="" style="endArrow=none;html=1;rounded=0;" edge="1" parent="sXk1QTeG2uJjv-Yh6nv5-13">
          <mxGeometry width="50" height="50" relative="1" as="geometry">
            <mxPoint x="10" y="24" as="sourcePoint" />
            <mxPoint x="20" y="14" as="targetPoint" />
          </mxGeometry>
        </mxCell>
      </root>
    </mxGraphModel>
  </diagram>
  <diagram id="d528L4BzlyCA0ADH5RRF" name="HalfAdder">
    <mxGraphModel dx="967" dy="409" grid="1" gridSize="10" guides="1" tooltips="1" connect="1" arrows="1" fold="1" page="1" pageScale="1" pageWidth="827" pageHeight="1169" math="0" shadow="0">
      <root>
        <mxCell id="0" />
        <mxCell id="1" parent="0" />
        <mxCell id="sR2E2555BcfBjOSgUecb-1" value="" style="group" vertex="1" connectable="0" parent="1">
          <mxGeometry x="120" y="230" width="180" height="60" as="geometry" />
        </mxCell>
        <mxCell id="sR2E2555BcfBjOSgUecb-2" value="" style="verticalLabelPosition=bottom;shadow=0;dashed=0;align=center;html=1;verticalAlign=top;shape=mxgraph.electrical.logic_gates.logic_gate;operation=xor;" vertex="1" parent="sR2E2555BcfBjOSgUecb-1">
          <mxGeometry x="45" width="100" height="60" as="geometry" />
        </mxCell>
        <mxCell id="sR2E2555BcfBjOSgUecb-5" value="a" style="text;html=1;strokeColor=none;fillColor=none;align=center;verticalAlign=middle;whiteSpace=wrap;rounded=0;" vertex="1" parent="sR2E2555BcfBjOSgUecb-1">
          <mxGeometry x="30" width="30" height="10" as="geometry" />
        </mxCell>
        <mxCell id="sR2E2555BcfBjOSgUecb-6" value="b" style="text;html=1;strokeColor=none;fillColor=none;align=center;verticalAlign=middle;whiteSpace=wrap;rounded=0;" vertex="1" parent="sR2E2555BcfBjOSgUecb-1">
          <mxGeometry x="30" y="30" width="30" height="10" as="geometry" />
        </mxCell>
        <mxCell id="sR2E2555BcfBjOSgUecb-7" value="out" style="text;html=1;strokeColor=none;fillColor=none;align=center;verticalAlign=middle;whiteSpace=wrap;rounded=0;" vertex="1" parent="sR2E2555BcfBjOSgUecb-1">
          <mxGeometry x="120" y="15" width="30" height="10" as="geometry" />
        </mxCell>
        <mxCell id="sR2E2555BcfBjOSgUecb-8" value="" style="endArrow=none;html=1;rounded=0;entryX=1;entryY=0.5;entryDx=0;entryDy=0;entryPerimeter=0;" edge="1" parent="sR2E2555BcfBjOSgUecb-1" target="sR2E2555BcfBjOSgUecb-2">
          <mxGeometry width="50" height="50" relative="1" as="geometry">
            <mxPoint x="170" y="30" as="sourcePoint" />
            <mxPoint x="150" y="30" as="targetPoint" />
          </mxGeometry>
        </mxCell>
        <mxCell id="jxBDxKFot7DJ9WabX3CJ-1" value="" style="group" vertex="1" connectable="0" parent="1">
          <mxGeometry x="120" y="340" width="170" height="60" as="geometry" />
        </mxCell>
        <mxCell id="jxBDxKFot7DJ9WabX3CJ-2" value="" style="verticalLabelPosition=bottom;shadow=0;dashed=0;align=center;html=1;verticalAlign=top;shape=mxgraph.electrical.logic_gates.logic_gate;operation=and;" vertex="1" parent="jxBDxKFot7DJ9WabX3CJ-1">
          <mxGeometry x="30" width="100" height="60" as="geometry" />
        </mxCell>
        <mxCell id="jxBDxKFot7DJ9WabX3CJ-3" value="" style="endArrow=none;html=1;rounded=0;entryX=0;entryY=0.25;entryDx=0;entryDy=0;entryPerimeter=0;" edge="1" parent="jxBDxKFot7DJ9WabX3CJ-1" target="jxBDxKFot7DJ9WabX3CJ-2">
          <mxGeometry width="50" height="50" relative="1" as="geometry">
            <mxPoint x="-30" y="-100" as="sourcePoint" />
            <mxPoint x="30" y="10" as="targetPoint" />
            <Array as="points">
              <mxPoint x="-30" y="15" />
            </Array>
          </mxGeometry>
        </mxCell>
        <mxCell id="jxBDxKFot7DJ9WabX3CJ-4" value="" style="endArrow=none;html=1;rounded=0;entryX=0;entryY=0.75;entryDx=0;entryDy=0;entryPerimeter=0;" edge="1" parent="jxBDxKFot7DJ9WabX3CJ-1" target="jxBDxKFot7DJ9WabX3CJ-2">
          <mxGeometry width="50" height="50" relative="1" as="geometry">
            <mxPoint y="45" as="sourcePoint" />
            <mxPoint x="40" y="25" as="targetPoint" />
          </mxGeometry>
        </mxCell>
        <mxCell id="jxBDxKFot7DJ9WabX3CJ-5" value="" style="endArrow=none;html=1;rounded=0;exitX=1;exitY=0.5;exitDx=0;exitDy=0;exitPerimeter=0;" edge="1" parent="jxBDxKFot7DJ9WabX3CJ-1" source="jxBDxKFot7DJ9WabX3CJ-2">
          <mxGeometry width="50" height="50" relative="1" as="geometry">
            <mxPoint x="149" y="40" as="sourcePoint" />
            <mxPoint x="170" y="30" as="targetPoint" />
          </mxGeometry>
        </mxCell>
        <mxCell id="jxBDxKFot7DJ9WabX3CJ-6" value="a" style="text;html=1;strokeColor=none;fillColor=none;align=center;verticalAlign=middle;whiteSpace=wrap;rounded=0;" vertex="1" parent="jxBDxKFot7DJ9WabX3CJ-1">
          <mxGeometry x="20" width="30" height="10" as="geometry" />
        </mxCell>
        <mxCell id="jxBDxKFot7DJ9WabX3CJ-7" value="b" style="text;html=1;strokeColor=none;fillColor=none;align=center;verticalAlign=middle;whiteSpace=wrap;rounded=0;" vertex="1" parent="jxBDxKFot7DJ9WabX3CJ-1">
          <mxGeometry x="20" y="30" width="30" height="10" as="geometry" />
        </mxCell>
        <mxCell id="jxBDxKFot7DJ9WabX3CJ-8" value="out" style="text;html=1;strokeColor=none;fillColor=none;align=center;verticalAlign=middle;whiteSpace=wrap;rounded=0;" vertex="1" parent="jxBDxKFot7DJ9WabX3CJ-1">
          <mxGeometry x="110" y="16" width="30" height="10" as="geometry" />
        </mxCell>
        <mxCell id="RQhMF6r26P4dusi3GGT7-1" value="&lt;font color=&quot;#ff0000&quot;&gt;sum&lt;/font&gt;" style="text;html=1;strokeColor=none;fillColor=none;align=center;verticalAlign=middle;whiteSpace=wrap;rounded=0;" vertex="1" parent="1">
          <mxGeometry x="290" y="255" width="30" height="10" as="geometry" />
        </mxCell>
        <mxCell id="RQhMF6r26P4dusi3GGT7-2" value="&lt;font color=&quot;#ff0000&quot;&gt;carry&lt;/font&gt;" style="text;html=1;strokeColor=none;fillColor=none;align=center;verticalAlign=middle;whiteSpace=wrap;rounded=0;" vertex="1" parent="1">
          <mxGeometry x="290" y="365" width="30" height="10" as="geometry" />
        </mxCell>
        <mxCell id="RQhMF6r26P4dusi3GGT7-3" value="&lt;font color=&quot;#ff0000&quot;&gt;a&lt;/font&gt;" style="text;html=1;strokeColor=none;fillColor=none;align=center;verticalAlign=middle;whiteSpace=wrap;rounded=0;" vertex="1" parent="1">
          <mxGeometry x="30" y="195" width="30" height="10" as="geometry" />
        </mxCell>
        <mxCell id="sR2E2555BcfBjOSgUecb-3" value="" style="endArrow=none;html=1;rounded=0;entryX=0;entryY=0.25;entryDx=0;entryDy=0;entryPerimeter=0;exitX=1;exitY=0.5;exitDx=0;exitDy=0;" edge="1" parent="1" target="sR2E2555BcfBjOSgUecb-2" source="RQhMF6r26P4dusi3GGT7-3">
          <mxGeometry width="50" height="50" relative="1" as="geometry">
            <mxPoint x="120" y="245" as="sourcePoint" />
            <mxPoint x="150" y="260" as="targetPoint" />
            <Array as="points">
              <mxPoint x="90" y="200" />
              <mxPoint x="90" y="245" />
            </Array>
          </mxGeometry>
        </mxCell>
        <mxCell id="RQhMF6r26P4dusi3GGT7-8" value="&lt;font color=&quot;#ff0000&quot;&gt;b&lt;/font&gt;" style="text;html=1;strokeColor=none;fillColor=none;align=center;verticalAlign=middle;whiteSpace=wrap;rounded=0;" vertex="1" parent="1">
          <mxGeometry x="30" y="215" width="30" height="10" as="geometry" />
        </mxCell>
        <mxCell id="RQhMF6r26P4dusi3GGT7-9" value="" style="pointerEvents=1;verticalLabelPosition=bottom;shadow=0;dashed=0;align=center;html=1;verticalAlign=top;shape=mxgraph.electrical.miscellaneous.circuit_breaker;rotation=0;" vertex="1" parent="1">
          <mxGeometry x="80" y="265" width="20" height="10" as="geometry" />
        </mxCell>
        <mxCell id="sR2E2555BcfBjOSgUecb-4" value="" style="endArrow=none;html=1;rounded=0;entryX=0;entryY=0.75;entryDx=0;entryDy=0;entryPerimeter=0;exitX=1;exitY=1;exitDx=0;exitDy=0;exitPerimeter=0;" edge="1" parent="1" target="sR2E2555BcfBjOSgUecb-2" source="RQhMF6r26P4dusi3GGT7-9">
          <mxGeometry width="50" height="50" relative="1" as="geometry">
            <mxPoint x="120" y="275" as="sourcePoint" />
            <mxPoint x="175" y="255" as="targetPoint" />
          </mxGeometry>
        </mxCell>
        <mxCell id="RQhMF6r26P4dusi3GGT7-10" value="" style="endArrow=none;html=1;rounded=0;entryX=1;entryY=0.5;entryDx=0;entryDy=0;" edge="1" parent="1" target="RQhMF6r26P4dusi3GGT7-8">
          <mxGeometry width="50" height="50" relative="1" as="geometry">
            <mxPoint x="80" y="275" as="sourcePoint" />
            <mxPoint x="69" y="219" as="targetPoint" />
            <Array as="points">
              <mxPoint x="70" y="275" />
              <mxPoint x="70" y="220" />
            </Array>
          </mxGeometry>
        </mxCell>
        <mxCell id="RQhMF6r26P4dusi3GGT7-11" value="" style="endArrow=none;html=1;rounded=0;" edge="1" parent="1">
          <mxGeometry width="50" height="50" relative="1" as="geometry">
            <mxPoint x="130" y="385" as="sourcePoint" />
            <mxPoint x="70" y="270" as="targetPoint" />
            <Array as="points">
              <mxPoint x="70" y="385" />
            </Array>
          </mxGeometry>
        </mxCell>
      </root>
    </mxGraphModel>
  </diagram>
  <diagram id="-xOu1tj49E_bje8tbmnf" name="FullAdder">
    <mxGraphModel dx="846" dy="358" grid="1" gridSize="10" guides="1" tooltips="1" connect="1" arrows="1" fold="1" page="1" pageScale="1" pageWidth="827" pageHeight="1169" math="0" shadow="0">
      <root>
        <mxCell id="0" />
        <mxCell id="1" parent="0" />
        <mxCell id="Y5L25fjW0dk2GB3RPWka-1" value="" style="group" vertex="1" connectable="0" parent="1">
          <mxGeometry x="220" y="140" width="150" height="60" as="geometry" />
        </mxCell>
        <mxCell id="Y5L25fjW0dk2GB3RPWka-2" value="Half&lt;br&gt;Adder" style="rounded=0;whiteSpace=wrap;html=1;" vertex="1" parent="Y5L25fjW0dk2GB3RPWka-1">
          <mxGeometry x="40" width="70" height="60" as="geometry" />
        </mxCell>
        <mxCell id="Y5L25fjW0dk2GB3RPWka-4" value="" style="endArrow=none;html=1;rounded=0;entryX=0;entryY=0.663;entryDx=0;entryDy=0;entryPerimeter=0;" edge="1" parent="Y5L25fjW0dk2GB3RPWka-1" target="Y5L25fjW0dk2GB3RPWka-2">
          <mxGeometry width="50" height="50" relative="1" as="geometry">
            <mxPoint y="40" as="sourcePoint" />
            <mxPoint x="30" y="40" as="targetPoint" />
          </mxGeometry>
        </mxCell>
        <mxCell id="Y5L25fjW0dk2GB3RPWka-5" value="a" style="text;html=1;strokeColor=none;fillColor=none;align=center;verticalAlign=middle;whiteSpace=wrap;rounded=0;" vertex="1" parent="Y5L25fjW0dk2GB3RPWka-1">
          <mxGeometry x="10" y="7" width="30" height="10" as="geometry" />
        </mxCell>
        <mxCell id="Y5L25fjW0dk2GB3RPWka-6" value="b" style="text;html=1;strokeColor=none;fillColor=none;align=center;verticalAlign=middle;whiteSpace=wrap;rounded=0;" vertex="1" parent="Y5L25fjW0dk2GB3RPWka-1">
          <mxGeometry x="10" y="29" width="30" height="10" as="geometry" />
        </mxCell>
        <mxCell id="Y5L25fjW0dk2GB3RPWka-7" value="" style="endArrow=none;html=1;rounded=0;entryX=-0.005;entryY=0.319;entryDx=0;entryDy=0;entryPerimeter=0;" edge="1" parent="Y5L25fjW0dk2GB3RPWka-1">
          <mxGeometry width="50" height="50" relative="1" as="geometry">
            <mxPoint x="110" y="19" as="sourcePoint" />
            <mxPoint x="150" y="19" as="targetPoint" />
          </mxGeometry>
        </mxCell>
        <mxCell id="Y5L25fjW0dk2GB3RPWka-8" value="" style="endArrow=none;html=1;rounded=0;entryX=0;entryY=0.663;entryDx=0;entryDy=0;entryPerimeter=0;" edge="1" parent="Y5L25fjW0dk2GB3RPWka-1">
          <mxGeometry width="50" height="50" relative="1" as="geometry">
            <mxPoint x="110" y="40" as="sourcePoint" />
            <mxPoint x="150" y="40" as="targetPoint" />
          </mxGeometry>
        </mxCell>
        <mxCell id="Y5L25fjW0dk2GB3RPWka-9" value="sum" style="text;html=1;strokeColor=none;fillColor=none;align=center;verticalAlign=middle;whiteSpace=wrap;rounded=0;" vertex="1" parent="Y5L25fjW0dk2GB3RPWka-1">
          <mxGeometry x="120" y="7" width="30" height="10" as="geometry" />
        </mxCell>
        <mxCell id="Y5L25fjW0dk2GB3RPWka-10" value="carry" style="text;html=1;strokeColor=none;fillColor=none;align=center;verticalAlign=middle;whiteSpace=wrap;rounded=0;" vertex="1" parent="Y5L25fjW0dk2GB3RPWka-1">
          <mxGeometry x="120" y="29" width="30" height="10" as="geometry" />
        </mxCell>
        <mxCell id="Y5L25fjW0dk2GB3RPWka-11" value="" style="group" vertex="1" connectable="0" parent="1">
          <mxGeometry x="40" y="160" width="150" height="60" as="geometry" />
        </mxCell>
        <mxCell id="Y5L25fjW0dk2GB3RPWka-12" value="Half&lt;br&gt;Adder" style="rounded=0;whiteSpace=wrap;html=1;" vertex="1" parent="Y5L25fjW0dk2GB3RPWka-11">
          <mxGeometry x="40" width="70" height="60" as="geometry" />
        </mxCell>
        <mxCell id="Y5L25fjW0dk2GB3RPWka-13" value="" style="endArrow=none;html=1;rounded=0;entryX=-0.005;entryY=0.319;entryDx=0;entryDy=0;entryPerimeter=0;" edge="1" parent="Y5L25fjW0dk2GB3RPWka-11" target="Y5L25fjW0dk2GB3RPWka-12">
          <mxGeometry width="50" height="50" relative="1" as="geometry">
            <mxPoint y="19" as="sourcePoint" />
            <mxPoint x="30" y="20" as="targetPoint" />
          </mxGeometry>
        </mxCell>
        <mxCell id="Y5L25fjW0dk2GB3RPWka-14" value="" style="endArrow=none;html=1;rounded=0;entryX=0;entryY=0.663;entryDx=0;entryDy=0;entryPerimeter=0;" edge="1" parent="Y5L25fjW0dk2GB3RPWka-11" target="Y5L25fjW0dk2GB3RPWka-12">
          <mxGeometry width="50" height="50" relative="1" as="geometry">
            <mxPoint y="40" as="sourcePoint" />
            <mxPoint x="30" y="40" as="targetPoint" />
          </mxGeometry>
        </mxCell>
        <mxCell id="Y5L25fjW0dk2GB3RPWka-15" value="a" style="text;html=1;strokeColor=none;fillColor=none;align=center;verticalAlign=middle;whiteSpace=wrap;rounded=0;" vertex="1" parent="Y5L25fjW0dk2GB3RPWka-11">
          <mxGeometry x="10" y="7" width="30" height="10" as="geometry" />
        </mxCell>
        <mxCell id="Y5L25fjW0dk2GB3RPWka-16" value="b" style="text;html=1;strokeColor=none;fillColor=none;align=center;verticalAlign=middle;whiteSpace=wrap;rounded=0;" vertex="1" parent="Y5L25fjW0dk2GB3RPWka-11">
          <mxGeometry x="10" y="29" width="30" height="10" as="geometry" />
        </mxCell>
        <mxCell id="Y5L25fjW0dk2GB3RPWka-17" value="" style="endArrow=none;html=1;rounded=0;entryX=-0.005;entryY=0.319;entryDx=0;entryDy=0;entryPerimeter=0;" edge="1" parent="Y5L25fjW0dk2GB3RPWka-11">
          <mxGeometry width="50" height="50" relative="1" as="geometry">
            <mxPoint x="110" y="19" as="sourcePoint" />
            <mxPoint x="150" y="19" as="targetPoint" />
          </mxGeometry>
        </mxCell>
        <mxCell id="Y5L25fjW0dk2GB3RPWka-18" value="" style="endArrow=none;html=1;rounded=0;entryX=0;entryY=0.663;entryDx=0;entryDy=0;entryPerimeter=0;" edge="1" parent="Y5L25fjW0dk2GB3RPWka-11">
          <mxGeometry width="50" height="50" relative="1" as="geometry">
            <mxPoint x="110" y="40" as="sourcePoint" />
            <mxPoint x="150" y="40" as="targetPoint" />
          </mxGeometry>
        </mxCell>
        <mxCell id="Y5L25fjW0dk2GB3RPWka-19" value="sum" style="text;html=1;strokeColor=none;fillColor=none;align=center;verticalAlign=middle;whiteSpace=wrap;rounded=0;" vertex="1" parent="Y5L25fjW0dk2GB3RPWka-11">
          <mxGeometry x="120" y="7" width="30" height="10" as="geometry" />
        </mxCell>
        <mxCell id="Y5L25fjW0dk2GB3RPWka-20" value="carry" style="text;html=1;strokeColor=none;fillColor=none;align=center;verticalAlign=middle;whiteSpace=wrap;rounded=0;" vertex="1" parent="Y5L25fjW0dk2GB3RPWka-11">
          <mxGeometry x="120" y="29" width="30" height="10" as="geometry" />
        </mxCell>
        <mxCell id="uFXCV1BjD8sJfoQ2KLs9-1" value="" style="group" vertex="1" connectable="0" parent="1">
          <mxGeometry x="400" y="165" width="180" height="60" as="geometry" />
        </mxCell>
        <mxCell id="uFXCV1BjD8sJfoQ2KLs9-2" value="" style="verticalLabelPosition=bottom;shadow=0;dashed=0;align=center;html=1;verticalAlign=top;shape=mxgraph.electrical.logic_gates.logic_gate;operation=xor;" vertex="1" parent="uFXCV1BjD8sJfoQ2KLs9-1">
          <mxGeometry x="45" width="100" height="60" as="geometry" />
        </mxCell>
        <mxCell id="uFXCV1BjD8sJfoQ2KLs9-3" value="" style="endArrow=none;html=1;rounded=0;entryX=0;entryY=0.25;entryDx=0;entryDy=0;entryPerimeter=0;" edge="1" parent="uFXCV1BjD8sJfoQ2KLs9-1" target="uFXCV1BjD8sJfoQ2KLs9-2">
          <mxGeometry width="50" height="50" relative="1" as="geometry">
            <mxPoint y="15" as="sourcePoint" />
            <mxPoint x="30" y="30" as="targetPoint" />
          </mxGeometry>
        </mxCell>
        <mxCell id="uFXCV1BjD8sJfoQ2KLs9-4" value="" style="endArrow=none;html=1;rounded=0;entryX=0;entryY=0.75;entryDx=0;entryDy=0;entryPerimeter=0;" edge="1" parent="uFXCV1BjD8sJfoQ2KLs9-1" target="uFXCV1BjD8sJfoQ2KLs9-2">
          <mxGeometry width="50" height="50" relative="1" as="geometry">
            <mxPoint y="45" as="sourcePoint" />
            <mxPoint x="55" y="25" as="targetPoint" />
          </mxGeometry>
        </mxCell>
        <mxCell id="uFXCV1BjD8sJfoQ2KLs9-5" value="a" style="text;html=1;strokeColor=none;fillColor=none;align=center;verticalAlign=middle;whiteSpace=wrap;rounded=0;" vertex="1" parent="uFXCV1BjD8sJfoQ2KLs9-1">
          <mxGeometry x="30" width="30" height="10" as="geometry" />
        </mxCell>
        <mxCell id="uFXCV1BjD8sJfoQ2KLs9-6" value="b" style="text;html=1;strokeColor=none;fillColor=none;align=center;verticalAlign=middle;whiteSpace=wrap;rounded=0;" vertex="1" parent="uFXCV1BjD8sJfoQ2KLs9-1">
          <mxGeometry x="30" y="30" width="30" height="10" as="geometry" />
        </mxCell>
        <mxCell id="uFXCV1BjD8sJfoQ2KLs9-7" value="out" style="text;html=1;strokeColor=none;fillColor=none;align=center;verticalAlign=middle;whiteSpace=wrap;rounded=0;" vertex="1" parent="uFXCV1BjD8sJfoQ2KLs9-1">
          <mxGeometry x="120" y="15" width="30" height="10" as="geometry" />
        </mxCell>
        <mxCell id="uFXCV1BjD8sJfoQ2KLs9-8" value="" style="endArrow=none;html=1;rounded=0;entryX=1;entryY=0.5;entryDx=0;entryDy=0;entryPerimeter=0;" edge="1" parent="uFXCV1BjD8sJfoQ2KLs9-1" target="uFXCV1BjD8sJfoQ2KLs9-2">
          <mxGeometry width="50" height="50" relative="1" as="geometry">
            <mxPoint x="180" y="30" as="sourcePoint" />
            <mxPoint x="150" y="30" as="targetPoint" />
          </mxGeometry>
        </mxCell>
        <mxCell id="CncBW4m-JcHjogt6ybbl-1" value="&lt;font color=&quot;#ff0000&quot;&gt;a&lt;/font&gt;" style="text;html=1;strokeColor=none;fillColor=none;align=center;verticalAlign=middle;whiteSpace=wrap;rounded=0;" vertex="1" parent="1">
          <mxGeometry x="10" y="144" width="30" height="10" as="geometry" />
        </mxCell>
        <mxCell id="CncBW4m-JcHjogt6ybbl-2" value="&lt;font color=&quot;#ff0000&quot;&gt;b&lt;/font&gt;" style="text;html=1;strokeColor=none;fillColor=none;align=center;verticalAlign=middle;whiteSpace=wrap;rounded=0;" vertex="1" parent="1">
          <mxGeometry x="10" y="174" width="30" height="10" as="geometry" />
        </mxCell>
        <mxCell id="CncBW4m-JcHjogt6ybbl-3" value="&lt;font color=&quot;#ff0000&quot;&gt;c&lt;/font&gt;" style="text;html=1;strokeColor=none;fillColor=none;align=center;verticalAlign=middle;whiteSpace=wrap;rounded=0;" vertex="1" parent="1">
          <mxGeometry x="10" y="195" width="30" height="10" as="geometry" />
        </mxCell>
        <mxCell id="0diwWU-np9G5OVkMw-ag-1" value="w1" style="rounded=0;whiteSpace=wrap;html=1;" vertex="1" parent="1">
          <mxGeometry x="190" y="174" width="30" height="10" as="geometry" />
        </mxCell>
        <mxCell id="0diwWU-np9G5OVkMw-ag-2" value="w2" style="rounded=0;whiteSpace=wrap;html=1;" vertex="1" parent="1">
          <mxGeometry x="190" y="195" width="30" height="10" as="geometry" />
        </mxCell>
        <mxCell id="0diwWU-np9G5OVkMw-ag-3" value="&lt;font color=&quot;#ff0000&quot;&gt;sum&lt;/font&gt;" style="text;html=1;strokeColor=none;fillColor=none;align=center;verticalAlign=middle;whiteSpace=wrap;rounded=0;" vertex="1" parent="1">
          <mxGeometry x="370" y="154" width="30" height="10" as="geometry" />
        </mxCell>
        <mxCell id="0diwWU-np9G5OVkMw-ag-4" value="w3" style="rounded=0;whiteSpace=wrap;html=1;" vertex="1" parent="1">
          <mxGeometry x="370" y="174" width="30" height="10" as="geometry" />
        </mxCell>
        <mxCell id="0diwWU-np9G5OVkMw-ag-5" value="" style="endArrow=none;html=1;rounded=0;exitX=1;exitY=0.5;exitDx=0;exitDy=0;" edge="1" parent="1" source="0diwWU-np9G5OVkMw-ag-2">
          <mxGeometry width="50" height="50" relative="1" as="geometry">
            <mxPoint x="280" y="200" as="sourcePoint" />
            <mxPoint x="400" y="210" as="targetPoint" />
            <Array as="points">
              <mxPoint x="240" y="200" />
              <mxPoint x="240" y="210" />
            </Array>
          </mxGeometry>
        </mxCell>
        <mxCell id="Y5L25fjW0dk2GB3RPWka-3" value="" style="endArrow=none;html=1;rounded=0;entryX=-0.005;entryY=0.319;entryDx=0;entryDy=0;entryPerimeter=0;exitX=1.013;exitY=0.63;exitDx=0;exitDy=0;exitPerimeter=0;" edge="1" parent="1" target="Y5L25fjW0dk2GB3RPWka-2" source="CncBW4m-JcHjogt6ybbl-1">
          <mxGeometry width="50" height="50" relative="1" as="geometry">
            <mxPoint x="220" y="159" as="sourcePoint" />
            <mxPoint x="250" y="160" as="targetPoint" />
            <Array as="points">
              <mxPoint x="200" y="150" />
              <mxPoint x="200" y="159" />
            </Array>
          </mxGeometry>
        </mxCell>
        <mxCell id="0diwWU-np9G5OVkMw-ag-6" value="&lt;font color=&quot;#ff0000&quot;&gt;carry&lt;/font&gt;" style="text;html=1;strokeColor=none;fillColor=none;align=center;verticalAlign=middle;whiteSpace=wrap;rounded=0;" vertex="1" parent="1">
          <mxGeometry x="580" y="190" width="30" height="10" as="geometry" />
        </mxCell>
      </root>
    </mxGraphModel>
  </diagram>
  <diagram id="ld2IyGj1A6hdcy_uK-8w" name="Add16">
    <mxGraphModel dx="511" dy="216" grid="1" gridSize="10" guides="1" tooltips="1" connect="1" arrows="1" fold="1" page="1" pageScale="1" pageWidth="827" pageHeight="1169" math="0" shadow="0">
      <root>
        <mxCell id="0" />
        <mxCell id="1" parent="0" />
        <mxCell id="nBjVIbvSu7U-nOB3DoAf-1" value="" style="group" vertex="1" connectable="0" parent="1">
          <mxGeometry x="80" y="80" width="150" height="80" as="geometry" />
        </mxCell>
        <mxCell id="nBjVIbvSu7U-nOB3DoAf-2" value="" style="group" vertex="1" connectable="0" parent="nBjVIbvSu7U-nOB3DoAf-1">
          <mxGeometry width="150" height="80" as="geometry" />
        </mxCell>
        <mxCell id="nBjVIbvSu7U-nOB3DoAf-3" value="Full&lt;br&gt;Adder" style="rounded=0;whiteSpace=wrap;html=1;" vertex="1" parent="nBjVIbvSu7U-nOB3DoAf-2">
          <mxGeometry x="40" width="70" height="80" as="geometry" />
        </mxCell>
        <mxCell id="nBjVIbvSu7U-nOB3DoAf-4" value="" style="endArrow=none;html=1;rounded=0;entryX=0;entryY=0.25;entryDx=0;entryDy=0;" edge="1" parent="nBjVIbvSu7U-nOB3DoAf-2" target="nBjVIbvSu7U-nOB3DoAf-3">
          <mxGeometry width="50" height="50" relative="1" as="geometry">
            <mxPoint y="20" as="sourcePoint" />
            <mxPoint x="30" y="20" as="targetPoint" />
          </mxGeometry>
        </mxCell>
        <mxCell id="nBjVIbvSu7U-nOB3DoAf-5" value="" style="endArrow=none;html=1;rounded=0;entryX=0;entryY=0.5;entryDx=0;entryDy=0;" edge="1" parent="nBjVIbvSu7U-nOB3DoAf-2" target="nBjVIbvSu7U-nOB3DoAf-3">
          <mxGeometry width="50" height="50" relative="1" as="geometry">
            <mxPoint y="40" as="sourcePoint" />
            <mxPoint x="30" y="40" as="targetPoint" />
          </mxGeometry>
        </mxCell>
        <mxCell id="nBjVIbvSu7U-nOB3DoAf-6" value="a" style="text;html=1;strokeColor=none;fillColor=none;align=center;verticalAlign=middle;whiteSpace=wrap;rounded=0;" vertex="1" parent="nBjVIbvSu7U-nOB3DoAf-2">
          <mxGeometry x="10" y="7" width="30" height="10" as="geometry" />
        </mxCell>
        <mxCell id="nBjVIbvSu7U-nOB3DoAf-7" value="b" style="text;html=1;strokeColor=none;fillColor=none;align=center;verticalAlign=middle;whiteSpace=wrap;rounded=0;" vertex="1" parent="nBjVIbvSu7U-nOB3DoAf-2">
          <mxGeometry x="10" y="29" width="30" height="10" as="geometry" />
        </mxCell>
        <mxCell id="nBjVIbvSu7U-nOB3DoAf-8" value="" style="endArrow=none;html=1;rounded=0;entryX=-0.005;entryY=0.319;entryDx=0;entryDy=0;entryPerimeter=0;" edge="1" parent="nBjVIbvSu7U-nOB3DoAf-2">
          <mxGeometry width="50" height="50" relative="1" as="geometry">
            <mxPoint x="110" y="19" as="sourcePoint" />
            <mxPoint x="150" y="19" as="targetPoint" />
          </mxGeometry>
        </mxCell>
        <mxCell id="nBjVIbvSu7U-nOB3DoAf-9" value="" style="endArrow=none;html=1;rounded=0;entryX=0;entryY=0.663;entryDx=0;entryDy=0;entryPerimeter=0;" edge="1" parent="nBjVIbvSu7U-nOB3DoAf-2">
          <mxGeometry width="50" height="50" relative="1" as="geometry">
            <mxPoint x="110" y="60" as="sourcePoint" />
            <mxPoint x="150" y="60" as="targetPoint" />
          </mxGeometry>
        </mxCell>
        <mxCell id="nBjVIbvSu7U-nOB3DoAf-10" value="sum" style="text;html=1;strokeColor=none;fillColor=none;align=center;verticalAlign=middle;whiteSpace=wrap;rounded=0;" vertex="1" parent="nBjVIbvSu7U-nOB3DoAf-2">
          <mxGeometry x="120" y="7" width="30" height="10" as="geometry" />
        </mxCell>
        <mxCell id="nBjVIbvSu7U-nOB3DoAf-11" value="carry" style="text;html=1;strokeColor=none;fillColor=none;align=center;verticalAlign=middle;whiteSpace=wrap;rounded=0;" vertex="1" parent="nBjVIbvSu7U-nOB3DoAf-2">
          <mxGeometry x="120" y="49" width="30" height="10" as="geometry" />
        </mxCell>
        <mxCell id="nBjVIbvSu7U-nOB3DoAf-12" value="c" style="text;html=1;strokeColor=none;fillColor=none;align=center;verticalAlign=middle;whiteSpace=wrap;rounded=0;" vertex="1" parent="nBjVIbvSu7U-nOB3DoAf-2">
          <mxGeometry x="10" y="49" width="30" height="10" as="geometry" />
        </mxCell>
        <mxCell id="nBjVIbvSu7U-nOB3DoAf-13" value="" style="endArrow=none;html=1;rounded=0;entryX=0;entryY=0.75;entryDx=0;entryDy=0;" edge="1" parent="nBjVIbvSu7U-nOB3DoAf-1" target="nBjVIbvSu7U-nOB3DoAf-3">
          <mxGeometry width="50" height="50" relative="1" as="geometry">
            <mxPoint y="60" as="sourcePoint" />
            <mxPoint x="50" y="50" as="targetPoint" />
          </mxGeometry>
        </mxCell>
        <mxCell id="Zpl2HcO2HJT9mR4b0ReY-1" value="&lt;font color=&quot;#ff0000&quot;&gt;a[0]&lt;/font&gt;" style="text;html=1;strokeColor=none;fillColor=none;align=center;verticalAlign=middle;whiteSpace=wrap;rounded=0;" vertex="1" parent="1">
          <mxGeometry x="50" y="95" width="30" height="10" as="geometry" />
        </mxCell>
        <mxCell id="Zpl2HcO2HJT9mR4b0ReY-2" value="&lt;font color=&quot;#ff0000&quot;&gt;b[0]&lt;/font&gt;" style="text;html=1;strokeColor=none;fillColor=none;align=center;verticalAlign=middle;whiteSpace=wrap;rounded=0;" vertex="1" parent="1">
          <mxGeometry x="50" y="115" width="30" height="10" as="geometry" />
        </mxCell>
        <mxCell id="Zpl2HcO2HJT9mR4b0ReY-14" value="false" style="text;html=1;strokeColor=none;fillColor=none;align=center;verticalAlign=middle;whiteSpace=wrap;rounded=0;" vertex="1" parent="1">
          <mxGeometry x="50" y="135" width="30" height="10" as="geometry" />
        </mxCell>
        <mxCell id="Zpl2HcO2HJT9mR4b0ReY-15" value="" style="group" vertex="1" connectable="0" parent="1">
          <mxGeometry x="80" y="190" width="150" height="80" as="geometry" />
        </mxCell>
        <mxCell id="Zpl2HcO2HJT9mR4b0ReY-16" value="" style="group" vertex="1" connectable="0" parent="Zpl2HcO2HJT9mR4b0ReY-15">
          <mxGeometry width="150" height="80" as="geometry" />
        </mxCell>
        <mxCell id="Zpl2HcO2HJT9mR4b0ReY-17" value="Full&lt;br&gt;Adder" style="rounded=0;whiteSpace=wrap;html=1;" vertex="1" parent="Zpl2HcO2HJT9mR4b0ReY-16">
          <mxGeometry x="40" width="70" height="80" as="geometry" />
        </mxCell>
        <mxCell id="Zpl2HcO2HJT9mR4b0ReY-18" value="" style="endArrow=none;html=1;rounded=0;entryX=0;entryY=0.25;entryDx=0;entryDy=0;" edge="1" parent="Zpl2HcO2HJT9mR4b0ReY-16" target="Zpl2HcO2HJT9mR4b0ReY-17">
          <mxGeometry width="50" height="50" relative="1" as="geometry">
            <mxPoint y="20" as="sourcePoint" />
            <mxPoint x="30" y="20" as="targetPoint" />
          </mxGeometry>
        </mxCell>
        <mxCell id="Zpl2HcO2HJT9mR4b0ReY-19" value="" style="endArrow=none;html=1;rounded=0;entryX=0;entryY=0.5;entryDx=0;entryDy=0;" edge="1" parent="Zpl2HcO2HJT9mR4b0ReY-16" target="Zpl2HcO2HJT9mR4b0ReY-17">
          <mxGeometry width="50" height="50" relative="1" as="geometry">
            <mxPoint y="40" as="sourcePoint" />
            <mxPoint x="30" y="40" as="targetPoint" />
          </mxGeometry>
        </mxCell>
        <mxCell id="Zpl2HcO2HJT9mR4b0ReY-20" value="a" style="text;html=1;strokeColor=none;fillColor=none;align=center;verticalAlign=middle;whiteSpace=wrap;rounded=0;" vertex="1" parent="Zpl2HcO2HJT9mR4b0ReY-16">
          <mxGeometry x="10" y="7" width="30" height="10" as="geometry" />
        </mxCell>
        <mxCell id="Zpl2HcO2HJT9mR4b0ReY-21" value="b" style="text;html=1;strokeColor=none;fillColor=none;align=center;verticalAlign=middle;whiteSpace=wrap;rounded=0;" vertex="1" parent="Zpl2HcO2HJT9mR4b0ReY-16">
          <mxGeometry x="10" y="29" width="30" height="10" as="geometry" />
        </mxCell>
        <mxCell id="Zpl2HcO2HJT9mR4b0ReY-22" value="" style="endArrow=none;html=1;rounded=0;entryX=-0.005;entryY=0.319;entryDx=0;entryDy=0;entryPerimeter=0;" edge="1" parent="Zpl2HcO2HJT9mR4b0ReY-16">
          <mxGeometry width="50" height="50" relative="1" as="geometry">
            <mxPoint x="110" y="19" as="sourcePoint" />
            <mxPoint x="150" y="19" as="targetPoint" />
          </mxGeometry>
        </mxCell>
        <mxCell id="Zpl2HcO2HJT9mR4b0ReY-23" value="" style="endArrow=none;html=1;rounded=0;entryX=0;entryY=0.663;entryDx=0;entryDy=0;entryPerimeter=0;" edge="1" parent="Zpl2HcO2HJT9mR4b0ReY-16">
          <mxGeometry width="50" height="50" relative="1" as="geometry">
            <mxPoint x="110" y="60" as="sourcePoint" />
            <mxPoint x="150" y="60" as="targetPoint" />
          </mxGeometry>
        </mxCell>
        <mxCell id="Zpl2HcO2HJT9mR4b0ReY-24" value="sum" style="text;html=1;strokeColor=none;fillColor=none;align=center;verticalAlign=middle;whiteSpace=wrap;rounded=0;" vertex="1" parent="Zpl2HcO2HJT9mR4b0ReY-16">
          <mxGeometry x="120" y="7" width="30" height="10" as="geometry" />
        </mxCell>
        <mxCell id="Zpl2HcO2HJT9mR4b0ReY-25" value="carry" style="text;html=1;strokeColor=none;fillColor=none;align=center;verticalAlign=middle;whiteSpace=wrap;rounded=0;" vertex="1" parent="Zpl2HcO2HJT9mR4b0ReY-16">
          <mxGeometry x="120" y="49" width="30" height="10" as="geometry" />
        </mxCell>
        <mxCell id="Zpl2HcO2HJT9mR4b0ReY-26" value="c" style="text;html=1;strokeColor=none;fillColor=none;align=center;verticalAlign=middle;whiteSpace=wrap;rounded=0;" vertex="1" parent="Zpl2HcO2HJT9mR4b0ReY-16">
          <mxGeometry x="10" y="49" width="30" height="10" as="geometry" />
        </mxCell>
        <mxCell id="Zpl2HcO2HJT9mR4b0ReY-27" value="" style="endArrow=none;html=1;rounded=0;entryX=0;entryY=0.75;entryDx=0;entryDy=0;" edge="1" parent="Zpl2HcO2HJT9mR4b0ReY-15" target="Zpl2HcO2HJT9mR4b0ReY-17">
          <mxGeometry width="50" height="50" relative="1" as="geometry">
            <mxPoint y="60" as="sourcePoint" />
            <mxPoint x="50" y="50" as="targetPoint" />
          </mxGeometry>
        </mxCell>
        <mxCell id="Zpl2HcO2HJT9mR4b0ReY-28" value="&lt;font color=&quot;#ff0000&quot;&gt;out[0]&lt;/font&gt;" style="text;html=1;strokeColor=none;fillColor=none;align=center;verticalAlign=middle;whiteSpace=wrap;rounded=0;" vertex="1" parent="1">
          <mxGeometry x="230" y="93" width="40" height="10" as="geometry" />
        </mxCell>
        <mxCell id="Sq-6enoDM2-bIMuyn35Z-1" value="w1" style="rounded=0;whiteSpace=wrap;html=1;" vertex="1" parent="1">
          <mxGeometry x="230" y="135" width="30" height="10" as="geometry" />
        </mxCell>
        <mxCell id="Sq-6enoDM2-bIMuyn35Z-2" value="" style="endArrow=none;html=1;rounded=0;entryX=1;entryY=0.5;entryDx=0;entryDy=0;" edge="1" parent="1" target="Sq-6enoDM2-bIMuyn35Z-1">
          <mxGeometry width="50" height="50" relative="1" as="geometry">
            <mxPoint x="80" y="250" as="sourcePoint" />
            <mxPoint x="270" y="130" as="targetPoint" />
            <Array as="points">
              <mxPoint x="50" y="250" />
              <mxPoint x="50" y="180" />
              <mxPoint x="280" y="180" />
              <mxPoint x="280" y="140" />
            </Array>
          </mxGeometry>
        </mxCell>
        <mxCell id="Sq-6enoDM2-bIMuyn35Z-3" value="&lt;font color=&quot;#ff0000&quot;&gt;a[1]&lt;/font&gt;" style="text;html=1;strokeColor=none;fillColor=none;align=center;verticalAlign=middle;whiteSpace=wrap;rounded=0;" vertex="1" parent="1">
          <mxGeometry x="50" y="204" width="30" height="10" as="geometry" />
        </mxCell>
        <mxCell id="Sq-6enoDM2-bIMuyn35Z-4" value="&lt;font color=&quot;#ff0000&quot;&gt;b[1]&lt;/font&gt;" style="text;html=1;strokeColor=none;fillColor=none;align=center;verticalAlign=middle;whiteSpace=wrap;rounded=0;" vertex="1" parent="1">
          <mxGeometry x="50" y="225" width="30" height="10" as="geometry" />
        </mxCell>
        <mxCell id="Sq-6enoDM2-bIMuyn35Z-5" value="&lt;font color=&quot;#ff0000&quot;&gt;out[1]&lt;/font&gt;" style="text;html=1;strokeColor=none;fillColor=none;align=center;verticalAlign=middle;whiteSpace=wrap;rounded=0;" vertex="1" parent="1">
          <mxGeometry x="230" y="204" width="40" height="10" as="geometry" />
        </mxCell>
        <mxCell id="Sq-6enoDM2-bIMuyn35Z-6" value="w2" style="rounded=0;whiteSpace=wrap;html=1;" vertex="1" parent="1">
          <mxGeometry x="230" y="245" width="30" height="10" as="geometry" />
        </mxCell>
        <mxCell id="Sq-6enoDM2-bIMuyn35Z-7" value="" style="endArrow=none;html=1;rounded=0;entryX=1;entryY=0.5;entryDx=0;entryDy=0;" edge="1" parent="1" target="Sq-6enoDM2-bIMuyn35Z-6">
          <mxGeometry width="50" height="50" relative="1" as="geometry">
            <mxPoint x="80" y="360" as="sourcePoint" />
            <mxPoint x="270" y="240" as="targetPoint" />
            <Array as="points">
              <mxPoint x="50" y="360" />
              <mxPoint x="50" y="290" />
              <mxPoint x="280" y="290" />
              <mxPoint x="280" y="250" />
            </Array>
          </mxGeometry>
        </mxCell>
        <mxCell id="Sq-6enoDM2-bIMuyn35Z-8" value="" style="group" vertex="1" connectable="0" parent="1">
          <mxGeometry x="80" y="300" width="150" height="80" as="geometry" />
        </mxCell>
        <mxCell id="Sq-6enoDM2-bIMuyn35Z-9" value="" style="group" vertex="1" connectable="0" parent="Sq-6enoDM2-bIMuyn35Z-8">
          <mxGeometry width="150" height="80" as="geometry" />
        </mxCell>
        <mxCell id="Sq-6enoDM2-bIMuyn35Z-10" value="Full&lt;br&gt;Adder" style="rounded=0;whiteSpace=wrap;html=1;" vertex="1" parent="Sq-6enoDM2-bIMuyn35Z-9">
          <mxGeometry x="40" width="70" height="80" as="geometry" />
        </mxCell>
        <mxCell id="Sq-6enoDM2-bIMuyn35Z-11" value="" style="endArrow=none;html=1;rounded=0;entryX=0;entryY=0.25;entryDx=0;entryDy=0;" edge="1" parent="Sq-6enoDM2-bIMuyn35Z-9" target="Sq-6enoDM2-bIMuyn35Z-10">
          <mxGeometry width="50" height="50" relative="1" as="geometry">
            <mxPoint y="20" as="sourcePoint" />
            <mxPoint x="30" y="20" as="targetPoint" />
          </mxGeometry>
        </mxCell>
        <mxCell id="Sq-6enoDM2-bIMuyn35Z-12" value="" style="endArrow=none;html=1;rounded=0;entryX=0;entryY=0.5;entryDx=0;entryDy=0;" edge="1" parent="Sq-6enoDM2-bIMuyn35Z-9" target="Sq-6enoDM2-bIMuyn35Z-10">
          <mxGeometry width="50" height="50" relative="1" as="geometry">
            <mxPoint y="40" as="sourcePoint" />
            <mxPoint x="30" y="40" as="targetPoint" />
          </mxGeometry>
        </mxCell>
        <mxCell id="Sq-6enoDM2-bIMuyn35Z-13" value="a" style="text;html=1;strokeColor=none;fillColor=none;align=center;verticalAlign=middle;whiteSpace=wrap;rounded=0;" vertex="1" parent="Sq-6enoDM2-bIMuyn35Z-9">
          <mxGeometry x="10" y="7" width="30" height="10" as="geometry" />
        </mxCell>
        <mxCell id="Sq-6enoDM2-bIMuyn35Z-14" value="b" style="text;html=1;strokeColor=none;fillColor=none;align=center;verticalAlign=middle;whiteSpace=wrap;rounded=0;" vertex="1" parent="Sq-6enoDM2-bIMuyn35Z-9">
          <mxGeometry x="10" y="29" width="30" height="10" as="geometry" />
        </mxCell>
        <mxCell id="Sq-6enoDM2-bIMuyn35Z-15" value="" style="endArrow=none;html=1;rounded=0;entryX=-0.005;entryY=0.319;entryDx=0;entryDy=0;entryPerimeter=0;" edge="1" parent="Sq-6enoDM2-bIMuyn35Z-9">
          <mxGeometry width="50" height="50" relative="1" as="geometry">
            <mxPoint x="110" y="19" as="sourcePoint" />
            <mxPoint x="150" y="19" as="targetPoint" />
          </mxGeometry>
        </mxCell>
        <mxCell id="Sq-6enoDM2-bIMuyn35Z-16" value="" style="endArrow=none;html=1;rounded=0;entryX=0;entryY=0.663;entryDx=0;entryDy=0;entryPerimeter=0;" edge="1" parent="Sq-6enoDM2-bIMuyn35Z-9">
          <mxGeometry width="50" height="50" relative="1" as="geometry">
            <mxPoint x="110" y="60" as="sourcePoint" />
            <mxPoint x="150" y="60" as="targetPoint" />
          </mxGeometry>
        </mxCell>
        <mxCell id="Sq-6enoDM2-bIMuyn35Z-17" value="sum" style="text;html=1;strokeColor=none;fillColor=none;align=center;verticalAlign=middle;whiteSpace=wrap;rounded=0;" vertex="1" parent="Sq-6enoDM2-bIMuyn35Z-9">
          <mxGeometry x="120" y="7" width="30" height="10" as="geometry" />
        </mxCell>
        <mxCell id="Sq-6enoDM2-bIMuyn35Z-18" value="carry" style="text;html=1;strokeColor=none;fillColor=none;align=center;verticalAlign=middle;whiteSpace=wrap;rounded=0;" vertex="1" parent="Sq-6enoDM2-bIMuyn35Z-9">
          <mxGeometry x="120" y="49" width="30" height="10" as="geometry" />
        </mxCell>
        <mxCell id="Sq-6enoDM2-bIMuyn35Z-19" value="c" style="text;html=1;strokeColor=none;fillColor=none;align=center;verticalAlign=middle;whiteSpace=wrap;rounded=0;" vertex="1" parent="Sq-6enoDM2-bIMuyn35Z-9">
          <mxGeometry x="10" y="49" width="30" height="10" as="geometry" />
        </mxCell>
        <mxCell id="Sq-6enoDM2-bIMuyn35Z-20" value="" style="endArrow=none;html=1;rounded=0;entryX=0;entryY=0.75;entryDx=0;entryDy=0;" edge="1" parent="Sq-6enoDM2-bIMuyn35Z-8" target="Sq-6enoDM2-bIMuyn35Z-10">
          <mxGeometry width="50" height="50" relative="1" as="geometry">
            <mxPoint y="60" as="sourcePoint" />
            <mxPoint x="50" y="50" as="targetPoint" />
          </mxGeometry>
        </mxCell>
        <mxCell id="Sq-6enoDM2-bIMuyn35Z-21" value="&lt;font color=&quot;#ff0000&quot;&gt;a[2]&lt;/font&gt;" style="text;html=1;strokeColor=none;fillColor=none;align=center;verticalAlign=middle;whiteSpace=wrap;rounded=0;" vertex="1" parent="1">
          <mxGeometry x="50" y="314" width="30" height="10" as="geometry" />
        </mxCell>
        <mxCell id="Sq-6enoDM2-bIMuyn35Z-22" value="&lt;font color=&quot;#ff0000&quot;&gt;b[2]&lt;/font&gt;" style="text;html=1;strokeColor=none;fillColor=none;align=center;verticalAlign=middle;whiteSpace=wrap;rounded=0;" vertex="1" parent="1">
          <mxGeometry x="50" y="335" width="30" height="10" as="geometry" />
        </mxCell>
        <mxCell id="Sq-6enoDM2-bIMuyn35Z-23" value="&lt;font color=&quot;#ff0000&quot;&gt;out[2]&lt;/font&gt;" style="text;html=1;strokeColor=none;fillColor=none;align=center;verticalAlign=middle;whiteSpace=wrap;rounded=0;" vertex="1" parent="1">
          <mxGeometry x="230" y="314" width="40" height="10" as="geometry" />
        </mxCell>
        <mxCell id="Sq-6enoDM2-bIMuyn35Z-24" value="w3" style="rounded=0;whiteSpace=wrap;html=1;" vertex="1" parent="1">
          <mxGeometry x="230" y="355" width="30" height="10" as="geometry" />
        </mxCell>
        <mxCell id="Sq-6enoDM2-bIMuyn35Z-25" value="" style="endArrow=none;html=1;rounded=0;entryX=1;entryY=0.5;entryDx=0;entryDy=0;" edge="1" parent="1" target="Sq-6enoDM2-bIMuyn35Z-24">
          <mxGeometry width="50" height="50" relative="1" as="geometry">
            <mxPoint x="80" y="470" as="sourcePoint" />
            <mxPoint x="270" y="350" as="targetPoint" />
            <Array as="points">
              <mxPoint x="50" y="470" />
              <mxPoint x="50" y="400" />
              <mxPoint x="280" y="400" />
              <mxPoint x="280" y="360" />
            </Array>
          </mxGeometry>
        </mxCell>
        <mxCell id="Sq-6enoDM2-bIMuyn35Z-26" value="" style="group" vertex="1" connectable="0" parent="1">
          <mxGeometry x="80" y="410" width="150" height="80" as="geometry" />
        </mxCell>
        <mxCell id="Sq-6enoDM2-bIMuyn35Z-27" value="" style="group" vertex="1" connectable="0" parent="Sq-6enoDM2-bIMuyn35Z-26">
          <mxGeometry width="150" height="80" as="geometry" />
        </mxCell>
        <mxCell id="Sq-6enoDM2-bIMuyn35Z-28" value="Full&lt;br&gt;Adder" style="rounded=0;whiteSpace=wrap;html=1;" vertex="1" parent="Sq-6enoDM2-bIMuyn35Z-27">
          <mxGeometry x="40" width="70" height="80" as="geometry" />
        </mxCell>
        <mxCell id="Sq-6enoDM2-bIMuyn35Z-29" value="" style="endArrow=none;html=1;rounded=0;entryX=0;entryY=0.25;entryDx=0;entryDy=0;" edge="1" parent="Sq-6enoDM2-bIMuyn35Z-27" target="Sq-6enoDM2-bIMuyn35Z-28">
          <mxGeometry width="50" height="50" relative="1" as="geometry">
            <mxPoint y="20" as="sourcePoint" />
            <mxPoint x="30" y="20" as="targetPoint" />
          </mxGeometry>
        </mxCell>
        <mxCell id="Sq-6enoDM2-bIMuyn35Z-30" value="" style="endArrow=none;html=1;rounded=0;entryX=0;entryY=0.5;entryDx=0;entryDy=0;" edge="1" parent="Sq-6enoDM2-bIMuyn35Z-27" target="Sq-6enoDM2-bIMuyn35Z-28">
          <mxGeometry width="50" height="50" relative="1" as="geometry">
            <mxPoint y="40" as="sourcePoint" />
            <mxPoint x="30" y="40" as="targetPoint" />
          </mxGeometry>
        </mxCell>
        <mxCell id="Sq-6enoDM2-bIMuyn35Z-31" value="a" style="text;html=1;strokeColor=none;fillColor=none;align=center;verticalAlign=middle;whiteSpace=wrap;rounded=0;" vertex="1" parent="Sq-6enoDM2-bIMuyn35Z-27">
          <mxGeometry x="10" y="7" width="30" height="10" as="geometry" />
        </mxCell>
        <mxCell id="Sq-6enoDM2-bIMuyn35Z-32" value="b" style="text;html=1;strokeColor=none;fillColor=none;align=center;verticalAlign=middle;whiteSpace=wrap;rounded=0;" vertex="1" parent="Sq-6enoDM2-bIMuyn35Z-27">
          <mxGeometry x="10" y="29" width="30" height="10" as="geometry" />
        </mxCell>
        <mxCell id="Sq-6enoDM2-bIMuyn35Z-33" value="" style="endArrow=none;html=1;rounded=0;entryX=-0.005;entryY=0.319;entryDx=0;entryDy=0;entryPerimeter=0;" edge="1" parent="Sq-6enoDM2-bIMuyn35Z-27">
          <mxGeometry width="50" height="50" relative="1" as="geometry">
            <mxPoint x="110" y="19" as="sourcePoint" />
            <mxPoint x="150" y="19" as="targetPoint" />
          </mxGeometry>
        </mxCell>
        <mxCell id="Sq-6enoDM2-bIMuyn35Z-34" value="" style="endArrow=none;html=1;rounded=0;entryX=0;entryY=0.663;entryDx=0;entryDy=0;entryPerimeter=0;" edge="1" parent="Sq-6enoDM2-bIMuyn35Z-27">
          <mxGeometry width="50" height="50" relative="1" as="geometry">
            <mxPoint x="110" y="60" as="sourcePoint" />
            <mxPoint x="150" y="60" as="targetPoint" />
          </mxGeometry>
        </mxCell>
        <mxCell id="Sq-6enoDM2-bIMuyn35Z-35" value="sum" style="text;html=1;strokeColor=none;fillColor=none;align=center;verticalAlign=middle;whiteSpace=wrap;rounded=0;" vertex="1" parent="Sq-6enoDM2-bIMuyn35Z-27">
          <mxGeometry x="120" y="7" width="30" height="10" as="geometry" />
        </mxCell>
        <mxCell id="Sq-6enoDM2-bIMuyn35Z-36" value="carry" style="text;html=1;strokeColor=none;fillColor=none;align=center;verticalAlign=middle;whiteSpace=wrap;rounded=0;" vertex="1" parent="Sq-6enoDM2-bIMuyn35Z-27">
          <mxGeometry x="120" y="49" width="30" height="10" as="geometry" />
        </mxCell>
        <mxCell id="Sq-6enoDM2-bIMuyn35Z-37" value="c" style="text;html=1;strokeColor=none;fillColor=none;align=center;verticalAlign=middle;whiteSpace=wrap;rounded=0;" vertex="1" parent="Sq-6enoDM2-bIMuyn35Z-27">
          <mxGeometry x="10" y="49" width="30" height="10" as="geometry" />
        </mxCell>
        <mxCell id="Sq-6enoDM2-bIMuyn35Z-38" value="" style="endArrow=none;html=1;rounded=0;entryX=0;entryY=0.75;entryDx=0;entryDy=0;" edge="1" parent="Sq-6enoDM2-bIMuyn35Z-26" target="Sq-6enoDM2-bIMuyn35Z-28">
          <mxGeometry width="50" height="50" relative="1" as="geometry">
            <mxPoint y="60" as="sourcePoint" />
            <mxPoint x="50" y="50" as="targetPoint" />
          </mxGeometry>
        </mxCell>
        <mxCell id="Sq-6enoDM2-bIMuyn35Z-39" value="&lt;font color=&quot;#ff0000&quot;&gt;a[3]&lt;/font&gt;" style="text;html=1;strokeColor=none;fillColor=none;align=center;verticalAlign=middle;whiteSpace=wrap;rounded=0;" vertex="1" parent="1">
          <mxGeometry x="50" y="424" width="30" height="10" as="geometry" />
        </mxCell>
        <mxCell id="Sq-6enoDM2-bIMuyn35Z-40" value="&lt;font color=&quot;#ff0000&quot;&gt;b[3]&lt;/font&gt;" style="text;html=1;strokeColor=none;fillColor=none;align=center;verticalAlign=middle;whiteSpace=wrap;rounded=0;" vertex="1" parent="1">
          <mxGeometry x="50" y="445" width="30" height="10" as="geometry" />
        </mxCell>
        <mxCell id="Sq-6enoDM2-bIMuyn35Z-41" value="&lt;font color=&quot;#ff0000&quot;&gt;out[3]&lt;/font&gt;" style="text;html=1;strokeColor=none;fillColor=none;align=center;verticalAlign=middle;whiteSpace=wrap;rounded=0;" vertex="1" parent="1">
          <mxGeometry x="230" y="424" width="40" height="10" as="geometry" />
        </mxCell>
        <mxCell id="Sq-6enoDM2-bIMuyn35Z-42" value="w4" style="rounded=0;whiteSpace=wrap;html=1;" vertex="1" parent="1">
          <mxGeometry x="230" y="465" width="30" height="10" as="geometry" />
        </mxCell>
        <mxCell id="Sq-6enoDM2-bIMuyn35Z-43" value="" style="endArrow=none;html=1;rounded=0;entryX=1;entryY=0.5;entryDx=0;entryDy=0;" edge="1" parent="1" target="Sq-6enoDM2-bIMuyn35Z-42">
          <mxGeometry width="50" height="50" relative="1" as="geometry">
            <mxPoint x="80" y="580" as="sourcePoint" />
            <mxPoint x="270" y="460" as="targetPoint" />
            <Array as="points">
              <mxPoint x="50" y="580" />
              <mxPoint x="50" y="510" />
              <mxPoint x="280" y="510" />
              <mxPoint x="280" y="470" />
            </Array>
          </mxGeometry>
        </mxCell>
        <mxCell id="Sq-6enoDM2-bIMuyn35Z-44" value="" style="group" vertex="1" connectable="0" parent="1">
          <mxGeometry x="80" y="520" width="150" height="80" as="geometry" />
        </mxCell>
        <mxCell id="Sq-6enoDM2-bIMuyn35Z-45" value="" style="group" vertex="1" connectable="0" parent="Sq-6enoDM2-bIMuyn35Z-44">
          <mxGeometry width="150" height="80" as="geometry" />
        </mxCell>
        <mxCell id="Sq-6enoDM2-bIMuyn35Z-46" value="Full&lt;br&gt;Adder" style="rounded=0;whiteSpace=wrap;html=1;" vertex="1" parent="Sq-6enoDM2-bIMuyn35Z-45">
          <mxGeometry x="40" width="70" height="80" as="geometry" />
        </mxCell>
        <mxCell id="Sq-6enoDM2-bIMuyn35Z-47" value="" style="endArrow=none;html=1;rounded=0;entryX=0;entryY=0.25;entryDx=0;entryDy=0;" edge="1" parent="Sq-6enoDM2-bIMuyn35Z-45" target="Sq-6enoDM2-bIMuyn35Z-46">
          <mxGeometry width="50" height="50" relative="1" as="geometry">
            <mxPoint y="20" as="sourcePoint" />
            <mxPoint x="30" y="20" as="targetPoint" />
          </mxGeometry>
        </mxCell>
        <mxCell id="Sq-6enoDM2-bIMuyn35Z-48" value="" style="endArrow=none;html=1;rounded=0;entryX=0;entryY=0.5;entryDx=0;entryDy=0;" edge="1" parent="Sq-6enoDM2-bIMuyn35Z-45" target="Sq-6enoDM2-bIMuyn35Z-46">
          <mxGeometry width="50" height="50" relative="1" as="geometry">
            <mxPoint y="40" as="sourcePoint" />
            <mxPoint x="30" y="40" as="targetPoint" />
          </mxGeometry>
        </mxCell>
        <mxCell id="Sq-6enoDM2-bIMuyn35Z-49" value="a" style="text;html=1;strokeColor=none;fillColor=none;align=center;verticalAlign=middle;whiteSpace=wrap;rounded=0;" vertex="1" parent="Sq-6enoDM2-bIMuyn35Z-45">
          <mxGeometry x="10" y="7" width="30" height="10" as="geometry" />
        </mxCell>
        <mxCell id="Sq-6enoDM2-bIMuyn35Z-50" value="b" style="text;html=1;strokeColor=none;fillColor=none;align=center;verticalAlign=middle;whiteSpace=wrap;rounded=0;" vertex="1" parent="Sq-6enoDM2-bIMuyn35Z-45">
          <mxGeometry x="10" y="29" width="30" height="10" as="geometry" />
        </mxCell>
        <mxCell id="Sq-6enoDM2-bIMuyn35Z-51" value="" style="endArrow=none;html=1;rounded=0;entryX=-0.005;entryY=0.319;entryDx=0;entryDy=0;entryPerimeter=0;" edge="1" parent="Sq-6enoDM2-bIMuyn35Z-45">
          <mxGeometry width="50" height="50" relative="1" as="geometry">
            <mxPoint x="110" y="19" as="sourcePoint" />
            <mxPoint x="150" y="19" as="targetPoint" />
          </mxGeometry>
        </mxCell>
        <mxCell id="Sq-6enoDM2-bIMuyn35Z-52" value="" style="endArrow=none;html=1;rounded=0;entryX=0;entryY=0.663;entryDx=0;entryDy=0;entryPerimeter=0;" edge="1" parent="Sq-6enoDM2-bIMuyn35Z-45">
          <mxGeometry width="50" height="50" relative="1" as="geometry">
            <mxPoint x="110" y="60" as="sourcePoint" />
            <mxPoint x="150" y="60" as="targetPoint" />
          </mxGeometry>
        </mxCell>
        <mxCell id="Sq-6enoDM2-bIMuyn35Z-53" value="sum" style="text;html=1;strokeColor=none;fillColor=none;align=center;verticalAlign=middle;whiteSpace=wrap;rounded=0;" vertex="1" parent="Sq-6enoDM2-bIMuyn35Z-45">
          <mxGeometry x="120" y="7" width="30" height="10" as="geometry" />
        </mxCell>
        <mxCell id="Sq-6enoDM2-bIMuyn35Z-54" value="carry" style="text;html=1;strokeColor=none;fillColor=none;align=center;verticalAlign=middle;whiteSpace=wrap;rounded=0;" vertex="1" parent="Sq-6enoDM2-bIMuyn35Z-45">
          <mxGeometry x="120" y="49" width="30" height="10" as="geometry" />
        </mxCell>
        <mxCell id="Sq-6enoDM2-bIMuyn35Z-55" value="c" style="text;html=1;strokeColor=none;fillColor=none;align=center;verticalAlign=middle;whiteSpace=wrap;rounded=0;" vertex="1" parent="Sq-6enoDM2-bIMuyn35Z-45">
          <mxGeometry x="10" y="49" width="30" height="10" as="geometry" />
        </mxCell>
        <mxCell id="Sq-6enoDM2-bIMuyn35Z-56" value="" style="endArrow=none;html=1;rounded=0;entryX=0;entryY=0.75;entryDx=0;entryDy=0;" edge="1" parent="Sq-6enoDM2-bIMuyn35Z-44" target="Sq-6enoDM2-bIMuyn35Z-46">
          <mxGeometry width="50" height="50" relative="1" as="geometry">
            <mxPoint y="60" as="sourcePoint" />
            <mxPoint x="50" y="50" as="targetPoint" />
          </mxGeometry>
        </mxCell>
        <mxCell id="Sq-6enoDM2-bIMuyn35Z-57" value="&lt;font color=&quot;#ff0000&quot;&gt;a[4]&lt;/font&gt;" style="text;html=1;strokeColor=none;fillColor=none;align=center;verticalAlign=middle;whiteSpace=wrap;rounded=0;" vertex="1" parent="1">
          <mxGeometry x="50" y="534" width="30" height="10" as="geometry" />
        </mxCell>
        <mxCell id="Sq-6enoDM2-bIMuyn35Z-58" value="&lt;font color=&quot;#ff0000&quot;&gt;b[4]&lt;/font&gt;" style="text;html=1;strokeColor=none;fillColor=none;align=center;verticalAlign=middle;whiteSpace=wrap;rounded=0;" vertex="1" parent="1">
          <mxGeometry x="50" y="555" width="30" height="10" as="geometry" />
        </mxCell>
        <mxCell id="Sq-6enoDM2-bIMuyn35Z-59" value="&lt;font color=&quot;#ff0000&quot;&gt;out[4]&lt;/font&gt;" style="text;html=1;strokeColor=none;fillColor=none;align=center;verticalAlign=middle;whiteSpace=wrap;rounded=0;" vertex="1" parent="1">
          <mxGeometry x="230" y="534" width="40" height="10" as="geometry" />
        </mxCell>
        <mxCell id="Sq-6enoDM2-bIMuyn35Z-60" value="w5" style="rounded=0;whiteSpace=wrap;html=1;" vertex="1" parent="1">
          <mxGeometry x="230" y="575" width="30" height="10" as="geometry" />
        </mxCell>
        <mxCell id="Sq-6enoDM2-bIMuyn35Z-61" value="" style="endArrow=none;html=1;rounded=0;entryX=1;entryY=0.5;entryDx=0;entryDy=0;" edge="1" parent="1" target="Sq-6enoDM2-bIMuyn35Z-60">
          <mxGeometry width="50" height="50" relative="1" as="geometry">
            <mxPoint x="80" y="690" as="sourcePoint" />
            <mxPoint x="270" y="570" as="targetPoint" />
            <Array as="points">
              <mxPoint x="50" y="690" />
              <mxPoint x="50" y="620" />
              <mxPoint x="280" y="620" />
              <mxPoint x="280" y="580" />
            </Array>
          </mxGeometry>
        </mxCell>
        <mxCell id="Sq-6enoDM2-bIMuyn35Z-62" value="" style="group" vertex="1" connectable="0" parent="1">
          <mxGeometry x="80" y="630" width="150" height="80" as="geometry" />
        </mxCell>
        <mxCell id="Sq-6enoDM2-bIMuyn35Z-63" value="" style="group" vertex="1" connectable="0" parent="Sq-6enoDM2-bIMuyn35Z-62">
          <mxGeometry width="150" height="80" as="geometry" />
        </mxCell>
        <mxCell id="Sq-6enoDM2-bIMuyn35Z-64" value="Full&lt;br&gt;Adder" style="rounded=0;whiteSpace=wrap;html=1;" vertex="1" parent="Sq-6enoDM2-bIMuyn35Z-63">
          <mxGeometry x="40" width="70" height="80" as="geometry" />
        </mxCell>
        <mxCell id="Sq-6enoDM2-bIMuyn35Z-65" value="" style="endArrow=none;html=1;rounded=0;entryX=0;entryY=0.25;entryDx=0;entryDy=0;" edge="1" parent="Sq-6enoDM2-bIMuyn35Z-63" target="Sq-6enoDM2-bIMuyn35Z-64">
          <mxGeometry width="50" height="50" relative="1" as="geometry">
            <mxPoint y="20" as="sourcePoint" />
            <mxPoint x="30" y="20" as="targetPoint" />
          </mxGeometry>
        </mxCell>
        <mxCell id="Sq-6enoDM2-bIMuyn35Z-66" value="" style="endArrow=none;html=1;rounded=0;entryX=0;entryY=0.5;entryDx=0;entryDy=0;" edge="1" parent="Sq-6enoDM2-bIMuyn35Z-63" target="Sq-6enoDM2-bIMuyn35Z-64">
          <mxGeometry width="50" height="50" relative="1" as="geometry">
            <mxPoint y="40" as="sourcePoint" />
            <mxPoint x="30" y="40" as="targetPoint" />
          </mxGeometry>
        </mxCell>
        <mxCell id="Sq-6enoDM2-bIMuyn35Z-67" value="a" style="text;html=1;strokeColor=none;fillColor=none;align=center;verticalAlign=middle;whiteSpace=wrap;rounded=0;" vertex="1" parent="Sq-6enoDM2-bIMuyn35Z-63">
          <mxGeometry x="10" y="7" width="30" height="10" as="geometry" />
        </mxCell>
        <mxCell id="Sq-6enoDM2-bIMuyn35Z-68" value="b" style="text;html=1;strokeColor=none;fillColor=none;align=center;verticalAlign=middle;whiteSpace=wrap;rounded=0;" vertex="1" parent="Sq-6enoDM2-bIMuyn35Z-63">
          <mxGeometry x="10" y="29" width="30" height="10" as="geometry" />
        </mxCell>
        <mxCell id="Sq-6enoDM2-bIMuyn35Z-69" value="" style="endArrow=none;html=1;rounded=0;entryX=-0.005;entryY=0.319;entryDx=0;entryDy=0;entryPerimeter=0;" edge="1" parent="Sq-6enoDM2-bIMuyn35Z-63">
          <mxGeometry width="50" height="50" relative="1" as="geometry">
            <mxPoint x="110" y="19" as="sourcePoint" />
            <mxPoint x="150" y="19" as="targetPoint" />
          </mxGeometry>
        </mxCell>
        <mxCell id="Sq-6enoDM2-bIMuyn35Z-70" value="" style="endArrow=none;html=1;rounded=0;entryX=0;entryY=0.663;entryDx=0;entryDy=0;entryPerimeter=0;" edge="1" parent="Sq-6enoDM2-bIMuyn35Z-63">
          <mxGeometry width="50" height="50" relative="1" as="geometry">
            <mxPoint x="110" y="60" as="sourcePoint" />
            <mxPoint x="150" y="60" as="targetPoint" />
          </mxGeometry>
        </mxCell>
        <mxCell id="Sq-6enoDM2-bIMuyn35Z-71" value="sum" style="text;html=1;strokeColor=none;fillColor=none;align=center;verticalAlign=middle;whiteSpace=wrap;rounded=0;" vertex="1" parent="Sq-6enoDM2-bIMuyn35Z-63">
          <mxGeometry x="120" y="7" width="30" height="10" as="geometry" />
        </mxCell>
        <mxCell id="Sq-6enoDM2-bIMuyn35Z-72" value="carry" style="text;html=1;strokeColor=none;fillColor=none;align=center;verticalAlign=middle;whiteSpace=wrap;rounded=0;" vertex="1" parent="Sq-6enoDM2-bIMuyn35Z-63">
          <mxGeometry x="120" y="49" width="30" height="10" as="geometry" />
        </mxCell>
        <mxCell id="Sq-6enoDM2-bIMuyn35Z-73" value="c" style="text;html=1;strokeColor=none;fillColor=none;align=center;verticalAlign=middle;whiteSpace=wrap;rounded=0;" vertex="1" parent="Sq-6enoDM2-bIMuyn35Z-63">
          <mxGeometry x="10" y="49" width="30" height="10" as="geometry" />
        </mxCell>
        <mxCell id="Sq-6enoDM2-bIMuyn35Z-74" value="" style="endArrow=none;html=1;rounded=0;entryX=0;entryY=0.75;entryDx=0;entryDy=0;" edge="1" parent="Sq-6enoDM2-bIMuyn35Z-62" target="Sq-6enoDM2-bIMuyn35Z-64">
          <mxGeometry width="50" height="50" relative="1" as="geometry">
            <mxPoint y="60" as="sourcePoint" />
            <mxPoint x="50" y="50" as="targetPoint" />
          </mxGeometry>
        </mxCell>
        <mxCell id="Sq-6enoDM2-bIMuyn35Z-75" value="&lt;font color=&quot;#ff0000&quot;&gt;a[5]&lt;/font&gt;" style="text;html=1;strokeColor=none;fillColor=none;align=center;verticalAlign=middle;whiteSpace=wrap;rounded=0;" vertex="1" parent="1">
          <mxGeometry x="50" y="644" width="30" height="10" as="geometry" />
        </mxCell>
        <mxCell id="Sq-6enoDM2-bIMuyn35Z-76" value="&lt;font color=&quot;#ff0000&quot;&gt;b[5]&lt;/font&gt;" style="text;html=1;strokeColor=none;fillColor=none;align=center;verticalAlign=middle;whiteSpace=wrap;rounded=0;" vertex="1" parent="1">
          <mxGeometry x="50" y="665" width="30" height="10" as="geometry" />
        </mxCell>
        <mxCell id="Sq-6enoDM2-bIMuyn35Z-77" value="&lt;font color=&quot;#ff0000&quot;&gt;out[5]&lt;/font&gt;" style="text;html=1;strokeColor=none;fillColor=none;align=center;verticalAlign=middle;whiteSpace=wrap;rounded=0;" vertex="1" parent="1">
          <mxGeometry x="230" y="644" width="40" height="10" as="geometry" />
        </mxCell>
        <mxCell id="Sq-6enoDM2-bIMuyn35Z-78" value="w6" style="rounded=0;whiteSpace=wrap;html=1;" vertex="1" parent="1">
          <mxGeometry x="230" y="685" width="30" height="10" as="geometry" />
        </mxCell>
        <mxCell id="Sq-6enoDM2-bIMuyn35Z-79" value="" style="endArrow=none;html=1;rounded=0;entryX=1;entryY=0.5;entryDx=0;entryDy=0;" edge="1" parent="1" target="Sq-6enoDM2-bIMuyn35Z-78">
          <mxGeometry width="50" height="50" relative="1" as="geometry">
            <mxPoint x="80" y="800" as="sourcePoint" />
            <mxPoint x="270" y="680" as="targetPoint" />
            <Array as="points">
              <mxPoint x="50" y="800" />
              <mxPoint x="50" y="730" />
              <mxPoint x="280" y="730" />
              <mxPoint x="280" y="690" />
            </Array>
          </mxGeometry>
        </mxCell>
        <mxCell id="Sq-6enoDM2-bIMuyn35Z-80" value="" style="group" vertex="1" connectable="0" parent="1">
          <mxGeometry x="80" y="740" width="150" height="80" as="geometry" />
        </mxCell>
        <mxCell id="Sq-6enoDM2-bIMuyn35Z-81" value="" style="group" vertex="1" connectable="0" parent="Sq-6enoDM2-bIMuyn35Z-80">
          <mxGeometry width="150" height="80" as="geometry" />
        </mxCell>
        <mxCell id="Sq-6enoDM2-bIMuyn35Z-82" value="Full&lt;br&gt;Adder" style="rounded=0;whiteSpace=wrap;html=1;" vertex="1" parent="Sq-6enoDM2-bIMuyn35Z-81">
          <mxGeometry x="40" width="70" height="80" as="geometry" />
        </mxCell>
        <mxCell id="Sq-6enoDM2-bIMuyn35Z-83" value="" style="endArrow=none;html=1;rounded=0;entryX=0;entryY=0.25;entryDx=0;entryDy=0;" edge="1" parent="Sq-6enoDM2-bIMuyn35Z-81" target="Sq-6enoDM2-bIMuyn35Z-82">
          <mxGeometry width="50" height="50" relative="1" as="geometry">
            <mxPoint y="20" as="sourcePoint" />
            <mxPoint x="30" y="20" as="targetPoint" />
          </mxGeometry>
        </mxCell>
        <mxCell id="Sq-6enoDM2-bIMuyn35Z-84" value="" style="endArrow=none;html=1;rounded=0;entryX=0;entryY=0.5;entryDx=0;entryDy=0;" edge="1" parent="Sq-6enoDM2-bIMuyn35Z-81" target="Sq-6enoDM2-bIMuyn35Z-82">
          <mxGeometry width="50" height="50" relative="1" as="geometry">
            <mxPoint y="40" as="sourcePoint" />
            <mxPoint x="30" y="40" as="targetPoint" />
          </mxGeometry>
        </mxCell>
        <mxCell id="Sq-6enoDM2-bIMuyn35Z-85" value="a" style="text;html=1;strokeColor=none;fillColor=none;align=center;verticalAlign=middle;whiteSpace=wrap;rounded=0;" vertex="1" parent="Sq-6enoDM2-bIMuyn35Z-81">
          <mxGeometry x="10" y="7" width="30" height="10" as="geometry" />
        </mxCell>
        <mxCell id="Sq-6enoDM2-bIMuyn35Z-86" value="b" style="text;html=1;strokeColor=none;fillColor=none;align=center;verticalAlign=middle;whiteSpace=wrap;rounded=0;" vertex="1" parent="Sq-6enoDM2-bIMuyn35Z-81">
          <mxGeometry x="10" y="29" width="30" height="10" as="geometry" />
        </mxCell>
        <mxCell id="Sq-6enoDM2-bIMuyn35Z-87" value="" style="endArrow=none;html=1;rounded=0;entryX=-0.005;entryY=0.319;entryDx=0;entryDy=0;entryPerimeter=0;" edge="1" parent="Sq-6enoDM2-bIMuyn35Z-81">
          <mxGeometry width="50" height="50" relative="1" as="geometry">
            <mxPoint x="110" y="19" as="sourcePoint" />
            <mxPoint x="150" y="19" as="targetPoint" />
          </mxGeometry>
        </mxCell>
        <mxCell id="Sq-6enoDM2-bIMuyn35Z-88" value="" style="endArrow=none;html=1;rounded=0;entryX=0;entryY=0.663;entryDx=0;entryDy=0;entryPerimeter=0;" edge="1" parent="Sq-6enoDM2-bIMuyn35Z-81">
          <mxGeometry width="50" height="50" relative="1" as="geometry">
            <mxPoint x="110" y="60" as="sourcePoint" />
            <mxPoint x="150" y="60" as="targetPoint" />
          </mxGeometry>
        </mxCell>
        <mxCell id="Sq-6enoDM2-bIMuyn35Z-89" value="sum" style="text;html=1;strokeColor=none;fillColor=none;align=center;verticalAlign=middle;whiteSpace=wrap;rounded=0;" vertex="1" parent="Sq-6enoDM2-bIMuyn35Z-81">
          <mxGeometry x="120" y="7" width="30" height="10" as="geometry" />
        </mxCell>
        <mxCell id="Sq-6enoDM2-bIMuyn35Z-90" value="carry" style="text;html=1;strokeColor=none;fillColor=none;align=center;verticalAlign=middle;whiteSpace=wrap;rounded=0;" vertex="1" parent="Sq-6enoDM2-bIMuyn35Z-81">
          <mxGeometry x="120" y="49" width="30" height="10" as="geometry" />
        </mxCell>
        <mxCell id="Sq-6enoDM2-bIMuyn35Z-91" value="c" style="text;html=1;strokeColor=none;fillColor=none;align=center;verticalAlign=middle;whiteSpace=wrap;rounded=0;" vertex="1" parent="Sq-6enoDM2-bIMuyn35Z-81">
          <mxGeometry x="10" y="49" width="30" height="10" as="geometry" />
        </mxCell>
        <mxCell id="Sq-6enoDM2-bIMuyn35Z-92" value="" style="endArrow=none;html=1;rounded=0;entryX=0;entryY=0.75;entryDx=0;entryDy=0;" edge="1" parent="Sq-6enoDM2-bIMuyn35Z-80" target="Sq-6enoDM2-bIMuyn35Z-82">
          <mxGeometry width="50" height="50" relative="1" as="geometry">
            <mxPoint y="60" as="sourcePoint" />
            <mxPoint x="50" y="50" as="targetPoint" />
          </mxGeometry>
        </mxCell>
        <mxCell id="Sq-6enoDM2-bIMuyn35Z-93" value="&lt;font color=&quot;#ff0000&quot;&gt;a[6]&lt;/font&gt;" style="text;html=1;strokeColor=none;fillColor=none;align=center;verticalAlign=middle;whiteSpace=wrap;rounded=0;" vertex="1" parent="1">
          <mxGeometry x="50" y="754" width="30" height="10" as="geometry" />
        </mxCell>
        <mxCell id="Sq-6enoDM2-bIMuyn35Z-94" value="&lt;font color=&quot;#ff0000&quot;&gt;b[6]&lt;/font&gt;" style="text;html=1;strokeColor=none;fillColor=none;align=center;verticalAlign=middle;whiteSpace=wrap;rounded=0;" vertex="1" parent="1">
          <mxGeometry x="50" y="775" width="30" height="10" as="geometry" />
        </mxCell>
        <mxCell id="Sq-6enoDM2-bIMuyn35Z-95" value="&lt;font color=&quot;#ff0000&quot;&gt;out[6]&lt;/font&gt;" style="text;html=1;strokeColor=none;fillColor=none;align=center;verticalAlign=middle;whiteSpace=wrap;rounded=0;" vertex="1" parent="1">
          <mxGeometry x="230" y="754" width="40" height="10" as="geometry" />
        </mxCell>
        <mxCell id="Sq-6enoDM2-bIMuyn35Z-96" value="w7" style="rounded=0;whiteSpace=wrap;html=1;" vertex="1" parent="1">
          <mxGeometry x="230" y="795" width="30" height="10" as="geometry" />
        </mxCell>
        <mxCell id="Sq-6enoDM2-bIMuyn35Z-97" value="" style="endArrow=none;html=1;rounded=0;entryX=1;entryY=0.5;entryDx=0;entryDy=0;" edge="1" parent="1" target="Sq-6enoDM2-bIMuyn35Z-96">
          <mxGeometry width="50" height="50" relative="1" as="geometry">
            <mxPoint x="80" y="910" as="sourcePoint" />
            <mxPoint x="270" y="790" as="targetPoint" />
            <Array as="points">
              <mxPoint x="50" y="910" />
              <mxPoint x="50" y="840" />
              <mxPoint x="280" y="840" />
              <mxPoint x="280" y="800" />
            </Array>
          </mxGeometry>
        </mxCell>
        <mxCell id="Sq-6enoDM2-bIMuyn35Z-98" value="" style="group" vertex="1" connectable="0" parent="1">
          <mxGeometry x="80" y="850" width="150" height="80" as="geometry" />
        </mxCell>
        <mxCell id="Sq-6enoDM2-bIMuyn35Z-99" value="" style="group" vertex="1" connectable="0" parent="Sq-6enoDM2-bIMuyn35Z-98">
          <mxGeometry width="150" height="80" as="geometry" />
        </mxCell>
        <mxCell id="Sq-6enoDM2-bIMuyn35Z-100" value="Full&lt;br&gt;Adder" style="rounded=0;whiteSpace=wrap;html=1;" vertex="1" parent="Sq-6enoDM2-bIMuyn35Z-99">
          <mxGeometry x="40" width="70" height="80" as="geometry" />
        </mxCell>
        <mxCell id="Sq-6enoDM2-bIMuyn35Z-101" value="" style="endArrow=none;html=1;rounded=0;entryX=0;entryY=0.25;entryDx=0;entryDy=0;" edge="1" parent="Sq-6enoDM2-bIMuyn35Z-99" target="Sq-6enoDM2-bIMuyn35Z-100">
          <mxGeometry width="50" height="50" relative="1" as="geometry">
            <mxPoint y="20" as="sourcePoint" />
            <mxPoint x="30" y="20" as="targetPoint" />
          </mxGeometry>
        </mxCell>
        <mxCell id="Sq-6enoDM2-bIMuyn35Z-102" value="" style="endArrow=none;html=1;rounded=0;entryX=0;entryY=0.5;entryDx=0;entryDy=0;" edge="1" parent="Sq-6enoDM2-bIMuyn35Z-99" target="Sq-6enoDM2-bIMuyn35Z-100">
          <mxGeometry width="50" height="50" relative="1" as="geometry">
            <mxPoint y="40" as="sourcePoint" />
            <mxPoint x="30" y="40" as="targetPoint" />
          </mxGeometry>
        </mxCell>
        <mxCell id="Sq-6enoDM2-bIMuyn35Z-103" value="a" style="text;html=1;strokeColor=none;fillColor=none;align=center;verticalAlign=middle;whiteSpace=wrap;rounded=0;" vertex="1" parent="Sq-6enoDM2-bIMuyn35Z-99">
          <mxGeometry x="10" y="7" width="30" height="10" as="geometry" />
        </mxCell>
        <mxCell id="Sq-6enoDM2-bIMuyn35Z-104" value="b" style="text;html=1;strokeColor=none;fillColor=none;align=center;verticalAlign=middle;whiteSpace=wrap;rounded=0;" vertex="1" parent="Sq-6enoDM2-bIMuyn35Z-99">
          <mxGeometry x="10" y="29" width="30" height="10" as="geometry" />
        </mxCell>
        <mxCell id="Sq-6enoDM2-bIMuyn35Z-105" value="" style="endArrow=none;html=1;rounded=0;entryX=-0.005;entryY=0.319;entryDx=0;entryDy=0;entryPerimeter=0;" edge="1" parent="Sq-6enoDM2-bIMuyn35Z-99">
          <mxGeometry width="50" height="50" relative="1" as="geometry">
            <mxPoint x="110" y="19" as="sourcePoint" />
            <mxPoint x="150" y="19" as="targetPoint" />
          </mxGeometry>
        </mxCell>
        <mxCell id="Sq-6enoDM2-bIMuyn35Z-106" value="" style="endArrow=none;html=1;rounded=0;entryX=0;entryY=0.663;entryDx=0;entryDy=0;entryPerimeter=0;" edge="1" parent="Sq-6enoDM2-bIMuyn35Z-99">
          <mxGeometry width="50" height="50" relative="1" as="geometry">
            <mxPoint x="110" y="60" as="sourcePoint" />
            <mxPoint x="150" y="60" as="targetPoint" />
          </mxGeometry>
        </mxCell>
        <mxCell id="Sq-6enoDM2-bIMuyn35Z-107" value="sum" style="text;html=1;strokeColor=none;fillColor=none;align=center;verticalAlign=middle;whiteSpace=wrap;rounded=0;" vertex="1" parent="Sq-6enoDM2-bIMuyn35Z-99">
          <mxGeometry x="120" y="7" width="30" height="10" as="geometry" />
        </mxCell>
        <mxCell id="Sq-6enoDM2-bIMuyn35Z-108" value="carry" style="text;html=1;strokeColor=none;fillColor=none;align=center;verticalAlign=middle;whiteSpace=wrap;rounded=0;" vertex="1" parent="Sq-6enoDM2-bIMuyn35Z-99">
          <mxGeometry x="120" y="49" width="30" height="10" as="geometry" />
        </mxCell>
        <mxCell id="Sq-6enoDM2-bIMuyn35Z-109" value="c" style="text;html=1;strokeColor=none;fillColor=none;align=center;verticalAlign=middle;whiteSpace=wrap;rounded=0;" vertex="1" parent="Sq-6enoDM2-bIMuyn35Z-99">
          <mxGeometry x="10" y="49" width="30" height="10" as="geometry" />
        </mxCell>
        <mxCell id="Sq-6enoDM2-bIMuyn35Z-110" value="" style="endArrow=none;html=1;rounded=0;entryX=0;entryY=0.75;entryDx=0;entryDy=0;" edge="1" parent="Sq-6enoDM2-bIMuyn35Z-98" target="Sq-6enoDM2-bIMuyn35Z-100">
          <mxGeometry width="50" height="50" relative="1" as="geometry">
            <mxPoint y="60" as="sourcePoint" />
            <mxPoint x="50" y="50" as="targetPoint" />
          </mxGeometry>
        </mxCell>
        <mxCell id="Sq-6enoDM2-bIMuyn35Z-111" value="&lt;font color=&quot;#ff0000&quot;&gt;a[7]&lt;/font&gt;" style="text;html=1;strokeColor=none;fillColor=none;align=center;verticalAlign=middle;whiteSpace=wrap;rounded=0;" vertex="1" parent="1">
          <mxGeometry x="50" y="864" width="30" height="10" as="geometry" />
        </mxCell>
        <mxCell id="Sq-6enoDM2-bIMuyn35Z-112" value="&lt;font color=&quot;#ff0000&quot;&gt;b[7]&lt;/font&gt;" style="text;html=1;strokeColor=none;fillColor=none;align=center;verticalAlign=middle;whiteSpace=wrap;rounded=0;" vertex="1" parent="1">
          <mxGeometry x="50" y="885" width="30" height="10" as="geometry" />
        </mxCell>
        <mxCell id="Sq-6enoDM2-bIMuyn35Z-113" value="&lt;font color=&quot;#ff0000&quot;&gt;out[7]&lt;/font&gt;" style="text;html=1;strokeColor=none;fillColor=none;align=center;verticalAlign=middle;whiteSpace=wrap;rounded=0;" vertex="1" parent="1">
          <mxGeometry x="230" y="864" width="40" height="10" as="geometry" />
        </mxCell>
        <mxCell id="Sq-6enoDM2-bIMuyn35Z-114" value="w8" style="rounded=0;whiteSpace=wrap;html=1;" vertex="1" parent="1">
          <mxGeometry x="230" y="905" width="30" height="10" as="geometry" />
        </mxCell>
        <mxCell id="Sq-6enoDM2-bIMuyn35Z-115" value="" style="endArrow=none;html=1;rounded=0;entryX=1;entryY=0.5;entryDx=0;entryDy=0;" edge="1" parent="1" target="Sq-6enoDM2-bIMuyn35Z-114">
          <mxGeometry width="50" height="50" relative="1" as="geometry">
            <mxPoint x="80" y="1020" as="sourcePoint" />
            <mxPoint x="270" y="900" as="targetPoint" />
            <Array as="points">
              <mxPoint x="50" y="1020" />
              <mxPoint x="50" y="950" />
              <mxPoint x="280" y="950" />
              <mxPoint x="280" y="910" />
            </Array>
          </mxGeometry>
        </mxCell>
        <mxCell id="Sq-6enoDM2-bIMuyn35Z-116" value="" style="group" vertex="1" connectable="0" parent="1">
          <mxGeometry x="80" y="960" width="150" height="80" as="geometry" />
        </mxCell>
        <mxCell id="Sq-6enoDM2-bIMuyn35Z-117" value="" style="group" vertex="1" connectable="0" parent="Sq-6enoDM2-bIMuyn35Z-116">
          <mxGeometry width="150" height="80" as="geometry" />
        </mxCell>
        <mxCell id="Sq-6enoDM2-bIMuyn35Z-118" value="Full&lt;br&gt;Adder" style="rounded=0;whiteSpace=wrap;html=1;" vertex="1" parent="Sq-6enoDM2-bIMuyn35Z-117">
          <mxGeometry x="40" width="70" height="80" as="geometry" />
        </mxCell>
        <mxCell id="Sq-6enoDM2-bIMuyn35Z-119" value="" style="endArrow=none;html=1;rounded=0;entryX=0;entryY=0.25;entryDx=0;entryDy=0;" edge="1" parent="Sq-6enoDM2-bIMuyn35Z-117" target="Sq-6enoDM2-bIMuyn35Z-118">
          <mxGeometry width="50" height="50" relative="1" as="geometry">
            <mxPoint y="20" as="sourcePoint" />
            <mxPoint x="30" y="20" as="targetPoint" />
          </mxGeometry>
        </mxCell>
        <mxCell id="Sq-6enoDM2-bIMuyn35Z-120" value="" style="endArrow=none;html=1;rounded=0;entryX=0;entryY=0.5;entryDx=0;entryDy=0;" edge="1" parent="Sq-6enoDM2-bIMuyn35Z-117" target="Sq-6enoDM2-bIMuyn35Z-118">
          <mxGeometry width="50" height="50" relative="1" as="geometry">
            <mxPoint y="40" as="sourcePoint" />
            <mxPoint x="30" y="40" as="targetPoint" />
          </mxGeometry>
        </mxCell>
        <mxCell id="Sq-6enoDM2-bIMuyn35Z-121" value="a" style="text;html=1;strokeColor=none;fillColor=none;align=center;verticalAlign=middle;whiteSpace=wrap;rounded=0;" vertex="1" parent="Sq-6enoDM2-bIMuyn35Z-117">
          <mxGeometry x="10" y="7" width="30" height="10" as="geometry" />
        </mxCell>
        <mxCell id="Sq-6enoDM2-bIMuyn35Z-122" value="b" style="text;html=1;strokeColor=none;fillColor=none;align=center;verticalAlign=middle;whiteSpace=wrap;rounded=0;" vertex="1" parent="Sq-6enoDM2-bIMuyn35Z-117">
          <mxGeometry x="10" y="29" width="30" height="10" as="geometry" />
        </mxCell>
        <mxCell id="Sq-6enoDM2-bIMuyn35Z-123" value="" style="endArrow=none;html=1;rounded=0;entryX=-0.005;entryY=0.319;entryDx=0;entryDy=0;entryPerimeter=0;" edge="1" parent="Sq-6enoDM2-bIMuyn35Z-117">
          <mxGeometry width="50" height="50" relative="1" as="geometry">
            <mxPoint x="110" y="19" as="sourcePoint" />
            <mxPoint x="150" y="19" as="targetPoint" />
          </mxGeometry>
        </mxCell>
        <mxCell id="Sq-6enoDM2-bIMuyn35Z-124" value="" style="endArrow=none;html=1;rounded=0;entryX=0;entryY=0.663;entryDx=0;entryDy=0;entryPerimeter=0;" edge="1" parent="Sq-6enoDM2-bIMuyn35Z-117">
          <mxGeometry width="50" height="50" relative="1" as="geometry">
            <mxPoint x="110" y="60" as="sourcePoint" />
            <mxPoint x="150" y="60" as="targetPoint" />
          </mxGeometry>
        </mxCell>
        <mxCell id="Sq-6enoDM2-bIMuyn35Z-125" value="sum" style="text;html=1;strokeColor=none;fillColor=none;align=center;verticalAlign=middle;whiteSpace=wrap;rounded=0;" vertex="1" parent="Sq-6enoDM2-bIMuyn35Z-117">
          <mxGeometry x="120" y="7" width="30" height="10" as="geometry" />
        </mxCell>
        <mxCell id="Sq-6enoDM2-bIMuyn35Z-126" value="carry" style="text;html=1;strokeColor=none;fillColor=none;align=center;verticalAlign=middle;whiteSpace=wrap;rounded=0;" vertex="1" parent="Sq-6enoDM2-bIMuyn35Z-117">
          <mxGeometry x="120" y="49" width="30" height="10" as="geometry" />
        </mxCell>
        <mxCell id="Sq-6enoDM2-bIMuyn35Z-127" value="c" style="text;html=1;strokeColor=none;fillColor=none;align=center;verticalAlign=middle;whiteSpace=wrap;rounded=0;" vertex="1" parent="Sq-6enoDM2-bIMuyn35Z-117">
          <mxGeometry x="10" y="49" width="30" height="10" as="geometry" />
        </mxCell>
        <mxCell id="Sq-6enoDM2-bIMuyn35Z-128" value="" style="endArrow=none;html=1;rounded=0;entryX=0;entryY=0.75;entryDx=0;entryDy=0;" edge="1" parent="Sq-6enoDM2-bIMuyn35Z-116" target="Sq-6enoDM2-bIMuyn35Z-118">
          <mxGeometry width="50" height="50" relative="1" as="geometry">
            <mxPoint y="60" as="sourcePoint" />
            <mxPoint x="50" y="50" as="targetPoint" />
          </mxGeometry>
        </mxCell>
        <mxCell id="Sq-6enoDM2-bIMuyn35Z-129" value="&lt;font color=&quot;#ff0000&quot;&gt;a[8]&lt;/font&gt;" style="text;html=1;strokeColor=none;fillColor=none;align=center;verticalAlign=middle;whiteSpace=wrap;rounded=0;" vertex="1" parent="1">
          <mxGeometry x="50" y="974" width="30" height="10" as="geometry" />
        </mxCell>
        <mxCell id="Sq-6enoDM2-bIMuyn35Z-130" value="&lt;font color=&quot;#ff0000&quot;&gt;b[8]&lt;/font&gt;" style="text;html=1;strokeColor=none;fillColor=none;align=center;verticalAlign=middle;whiteSpace=wrap;rounded=0;" vertex="1" parent="1">
          <mxGeometry x="50" y="995" width="30" height="10" as="geometry" />
        </mxCell>
        <mxCell id="Sq-6enoDM2-bIMuyn35Z-131" value="&lt;font color=&quot;#ff0000&quot;&gt;out[8]&lt;/font&gt;" style="text;html=1;strokeColor=none;fillColor=none;align=center;verticalAlign=middle;whiteSpace=wrap;rounded=0;" vertex="1" parent="1">
          <mxGeometry x="230" y="974" width="40" height="10" as="geometry" />
        </mxCell>
        <mxCell id="Sq-6enoDM2-bIMuyn35Z-132" value="w9" style="rounded=0;whiteSpace=wrap;html=1;" vertex="1" parent="1">
          <mxGeometry x="230" y="1015" width="30" height="10" as="geometry" />
        </mxCell>
        <mxCell id="Sq-6enoDM2-bIMuyn35Z-133" value="" style="endArrow=none;html=1;rounded=0;entryX=1;entryY=0.5;entryDx=0;entryDy=0;" edge="1" parent="1" target="Sq-6enoDM2-bIMuyn35Z-132">
          <mxGeometry width="50" height="50" relative="1" as="geometry">
            <mxPoint x="80" y="1130" as="sourcePoint" />
            <mxPoint x="270" y="1010" as="targetPoint" />
            <Array as="points">
              <mxPoint x="50" y="1130" />
              <mxPoint x="50" y="1060" />
              <mxPoint x="280" y="1060" />
              <mxPoint x="280" y="1020" />
            </Array>
          </mxGeometry>
        </mxCell>
        <mxCell id="Sq-6enoDM2-bIMuyn35Z-259" value="" style="group" vertex="1" connectable="0" parent="1">
          <mxGeometry x="80" y="1070" width="150" height="80" as="geometry" />
        </mxCell>
        <mxCell id="Sq-6enoDM2-bIMuyn35Z-260" value="" style="group" vertex="1" connectable="0" parent="Sq-6enoDM2-bIMuyn35Z-259">
          <mxGeometry width="150" height="80" as="geometry" />
        </mxCell>
        <mxCell id="Sq-6enoDM2-bIMuyn35Z-261" value="Full&lt;br&gt;Adder" style="rounded=0;whiteSpace=wrap;html=1;" vertex="1" parent="Sq-6enoDM2-bIMuyn35Z-260">
          <mxGeometry x="40" width="70" height="80" as="geometry" />
        </mxCell>
        <mxCell id="Sq-6enoDM2-bIMuyn35Z-262" value="" style="endArrow=none;html=1;rounded=0;entryX=0;entryY=0.25;entryDx=0;entryDy=0;" edge="1" parent="Sq-6enoDM2-bIMuyn35Z-260" target="Sq-6enoDM2-bIMuyn35Z-261">
          <mxGeometry width="50" height="50" relative="1" as="geometry">
            <mxPoint y="20" as="sourcePoint" />
            <mxPoint x="30" y="20" as="targetPoint" />
          </mxGeometry>
        </mxCell>
        <mxCell id="Sq-6enoDM2-bIMuyn35Z-263" value="" style="endArrow=none;html=1;rounded=0;entryX=0;entryY=0.5;entryDx=0;entryDy=0;" edge="1" parent="Sq-6enoDM2-bIMuyn35Z-260" target="Sq-6enoDM2-bIMuyn35Z-261">
          <mxGeometry width="50" height="50" relative="1" as="geometry">
            <mxPoint y="40" as="sourcePoint" />
            <mxPoint x="30" y="40" as="targetPoint" />
          </mxGeometry>
        </mxCell>
        <mxCell id="Sq-6enoDM2-bIMuyn35Z-264" value="a" style="text;html=1;strokeColor=none;fillColor=none;align=center;verticalAlign=middle;whiteSpace=wrap;rounded=0;" vertex="1" parent="Sq-6enoDM2-bIMuyn35Z-260">
          <mxGeometry x="10" y="7" width="30" height="10" as="geometry" />
        </mxCell>
        <mxCell id="Sq-6enoDM2-bIMuyn35Z-265" value="b" style="text;html=1;strokeColor=none;fillColor=none;align=center;verticalAlign=middle;whiteSpace=wrap;rounded=0;" vertex="1" parent="Sq-6enoDM2-bIMuyn35Z-260">
          <mxGeometry x="10" y="29" width="30" height="10" as="geometry" />
        </mxCell>
        <mxCell id="Sq-6enoDM2-bIMuyn35Z-266" value="" style="endArrow=none;html=1;rounded=0;entryX=-0.005;entryY=0.319;entryDx=0;entryDy=0;entryPerimeter=0;" edge="1" parent="Sq-6enoDM2-bIMuyn35Z-260">
          <mxGeometry width="50" height="50" relative="1" as="geometry">
            <mxPoint x="110" y="19" as="sourcePoint" />
            <mxPoint x="150" y="19" as="targetPoint" />
          </mxGeometry>
        </mxCell>
        <mxCell id="Sq-6enoDM2-bIMuyn35Z-267" value="" style="endArrow=none;html=1;rounded=0;entryX=0;entryY=0.663;entryDx=0;entryDy=0;entryPerimeter=0;" edge="1" parent="Sq-6enoDM2-bIMuyn35Z-260">
          <mxGeometry width="50" height="50" relative="1" as="geometry">
            <mxPoint x="110" y="60" as="sourcePoint" />
            <mxPoint x="150" y="60" as="targetPoint" />
          </mxGeometry>
        </mxCell>
        <mxCell id="Sq-6enoDM2-bIMuyn35Z-268" value="sum" style="text;html=1;strokeColor=none;fillColor=none;align=center;verticalAlign=middle;whiteSpace=wrap;rounded=0;" vertex="1" parent="Sq-6enoDM2-bIMuyn35Z-260">
          <mxGeometry x="120" y="7" width="30" height="10" as="geometry" />
        </mxCell>
        <mxCell id="Sq-6enoDM2-bIMuyn35Z-269" value="carry" style="text;html=1;strokeColor=none;fillColor=none;align=center;verticalAlign=middle;whiteSpace=wrap;rounded=0;" vertex="1" parent="Sq-6enoDM2-bIMuyn35Z-260">
          <mxGeometry x="120" y="49" width="30" height="10" as="geometry" />
        </mxCell>
        <mxCell id="Sq-6enoDM2-bIMuyn35Z-270" value="c" style="text;html=1;strokeColor=none;fillColor=none;align=center;verticalAlign=middle;whiteSpace=wrap;rounded=0;" vertex="1" parent="Sq-6enoDM2-bIMuyn35Z-260">
          <mxGeometry x="10" y="49" width="30" height="10" as="geometry" />
        </mxCell>
        <mxCell id="Sq-6enoDM2-bIMuyn35Z-271" value="" style="endArrow=none;html=1;rounded=0;entryX=0;entryY=0.75;entryDx=0;entryDy=0;" edge="1" parent="Sq-6enoDM2-bIMuyn35Z-259" target="Sq-6enoDM2-bIMuyn35Z-261">
          <mxGeometry width="50" height="50" relative="1" as="geometry">
            <mxPoint y="60" as="sourcePoint" />
            <mxPoint x="50" y="50" as="targetPoint" />
          </mxGeometry>
        </mxCell>
        <mxCell id="Sq-6enoDM2-bIMuyn35Z-272" value="&lt;font color=&quot;#ff0000&quot;&gt;a[9]&lt;/font&gt;" style="text;html=1;strokeColor=none;fillColor=none;align=center;verticalAlign=middle;whiteSpace=wrap;rounded=0;" vertex="1" parent="1">
          <mxGeometry x="50" y="1084" width="30" height="10" as="geometry" />
        </mxCell>
        <mxCell id="Sq-6enoDM2-bIMuyn35Z-273" value="&lt;font color=&quot;#ff0000&quot;&gt;b[9]&lt;/font&gt;" style="text;html=1;strokeColor=none;fillColor=none;align=center;verticalAlign=middle;whiteSpace=wrap;rounded=0;" vertex="1" parent="1">
          <mxGeometry x="50" y="1105" width="30" height="10" as="geometry" />
        </mxCell>
        <mxCell id="Sq-6enoDM2-bIMuyn35Z-274" value="&lt;font color=&quot;#ff0000&quot;&gt;out[9]&lt;/font&gt;" style="text;html=1;strokeColor=none;fillColor=none;align=center;verticalAlign=middle;whiteSpace=wrap;rounded=0;" vertex="1" parent="1">
          <mxGeometry x="230" y="1084" width="40" height="10" as="geometry" />
        </mxCell>
        <mxCell id="Sq-6enoDM2-bIMuyn35Z-275" value="w10" style="rounded=0;whiteSpace=wrap;html=1;" vertex="1" parent="1">
          <mxGeometry x="230" y="1125" width="30" height="10" as="geometry" />
        </mxCell>
        <mxCell id="Sq-6enoDM2-bIMuyn35Z-276" value="" style="endArrow=none;html=1;rounded=0;entryX=1;entryY=0.5;entryDx=0;entryDy=0;" edge="1" parent="1" target="Sq-6enoDM2-bIMuyn35Z-275">
          <mxGeometry width="50" height="50" relative="1" as="geometry">
            <mxPoint x="80" y="1240" as="sourcePoint" />
            <mxPoint x="270" y="1120" as="targetPoint" />
            <Array as="points">
              <mxPoint x="50" y="1240" />
              <mxPoint x="50" y="1170" />
              <mxPoint x="280" y="1170" />
              <mxPoint x="280" y="1130" />
            </Array>
          </mxGeometry>
        </mxCell>
        <mxCell id="Sq-6enoDM2-bIMuyn35Z-277" value="" style="group" vertex="1" connectable="0" parent="1">
          <mxGeometry x="80" y="1180" width="150" height="80" as="geometry" />
        </mxCell>
        <mxCell id="Sq-6enoDM2-bIMuyn35Z-278" value="" style="group" vertex="1" connectable="0" parent="Sq-6enoDM2-bIMuyn35Z-277">
          <mxGeometry width="150" height="80" as="geometry" />
        </mxCell>
        <mxCell id="Sq-6enoDM2-bIMuyn35Z-279" value="Full&lt;br&gt;Adder" style="rounded=0;whiteSpace=wrap;html=1;" vertex="1" parent="Sq-6enoDM2-bIMuyn35Z-278">
          <mxGeometry x="40" width="70" height="80" as="geometry" />
        </mxCell>
        <mxCell id="Sq-6enoDM2-bIMuyn35Z-280" value="" style="endArrow=none;html=1;rounded=0;entryX=0;entryY=0.25;entryDx=0;entryDy=0;" edge="1" parent="Sq-6enoDM2-bIMuyn35Z-278" target="Sq-6enoDM2-bIMuyn35Z-279">
          <mxGeometry width="50" height="50" relative="1" as="geometry">
            <mxPoint y="20" as="sourcePoint" />
            <mxPoint x="30" y="20" as="targetPoint" />
          </mxGeometry>
        </mxCell>
        <mxCell id="Sq-6enoDM2-bIMuyn35Z-281" value="" style="endArrow=none;html=1;rounded=0;entryX=0;entryY=0.5;entryDx=0;entryDy=0;" edge="1" parent="Sq-6enoDM2-bIMuyn35Z-278" target="Sq-6enoDM2-bIMuyn35Z-279">
          <mxGeometry width="50" height="50" relative="1" as="geometry">
            <mxPoint y="40" as="sourcePoint" />
            <mxPoint x="30" y="40" as="targetPoint" />
          </mxGeometry>
        </mxCell>
        <mxCell id="Sq-6enoDM2-bIMuyn35Z-282" value="a" style="text;html=1;strokeColor=none;fillColor=none;align=center;verticalAlign=middle;whiteSpace=wrap;rounded=0;" vertex="1" parent="Sq-6enoDM2-bIMuyn35Z-278">
          <mxGeometry x="10" y="7" width="30" height="10" as="geometry" />
        </mxCell>
        <mxCell id="Sq-6enoDM2-bIMuyn35Z-283" value="b" style="text;html=1;strokeColor=none;fillColor=none;align=center;verticalAlign=middle;whiteSpace=wrap;rounded=0;" vertex="1" parent="Sq-6enoDM2-bIMuyn35Z-278">
          <mxGeometry x="10" y="29" width="30" height="10" as="geometry" />
        </mxCell>
        <mxCell id="Sq-6enoDM2-bIMuyn35Z-284" value="" style="endArrow=none;html=1;rounded=0;entryX=-0.005;entryY=0.319;entryDx=0;entryDy=0;entryPerimeter=0;" edge="1" parent="Sq-6enoDM2-bIMuyn35Z-278">
          <mxGeometry width="50" height="50" relative="1" as="geometry">
            <mxPoint x="110" y="19" as="sourcePoint" />
            <mxPoint x="150" y="19" as="targetPoint" />
          </mxGeometry>
        </mxCell>
        <mxCell id="Sq-6enoDM2-bIMuyn35Z-285" value="" style="endArrow=none;html=1;rounded=0;entryX=0;entryY=0.663;entryDx=0;entryDy=0;entryPerimeter=0;" edge="1" parent="Sq-6enoDM2-bIMuyn35Z-278">
          <mxGeometry width="50" height="50" relative="1" as="geometry">
            <mxPoint x="110" y="60" as="sourcePoint" />
            <mxPoint x="150" y="60" as="targetPoint" />
          </mxGeometry>
        </mxCell>
        <mxCell id="Sq-6enoDM2-bIMuyn35Z-286" value="sum" style="text;html=1;strokeColor=none;fillColor=none;align=center;verticalAlign=middle;whiteSpace=wrap;rounded=0;" vertex="1" parent="Sq-6enoDM2-bIMuyn35Z-278">
          <mxGeometry x="120" y="7" width="30" height="10" as="geometry" />
        </mxCell>
        <mxCell id="Sq-6enoDM2-bIMuyn35Z-287" value="carry" style="text;html=1;strokeColor=none;fillColor=none;align=center;verticalAlign=middle;whiteSpace=wrap;rounded=0;" vertex="1" parent="Sq-6enoDM2-bIMuyn35Z-278">
          <mxGeometry x="120" y="49" width="30" height="10" as="geometry" />
        </mxCell>
        <mxCell id="Sq-6enoDM2-bIMuyn35Z-288" value="c" style="text;html=1;strokeColor=none;fillColor=none;align=center;verticalAlign=middle;whiteSpace=wrap;rounded=0;" vertex="1" parent="Sq-6enoDM2-bIMuyn35Z-278">
          <mxGeometry x="10" y="49" width="30" height="10" as="geometry" />
        </mxCell>
        <mxCell id="Sq-6enoDM2-bIMuyn35Z-289" value="" style="endArrow=none;html=1;rounded=0;entryX=0;entryY=0.75;entryDx=0;entryDy=0;" edge="1" parent="Sq-6enoDM2-bIMuyn35Z-277" target="Sq-6enoDM2-bIMuyn35Z-279">
          <mxGeometry width="50" height="50" relative="1" as="geometry">
            <mxPoint y="60" as="sourcePoint" />
            <mxPoint x="50" y="50" as="targetPoint" />
          </mxGeometry>
        </mxCell>
        <mxCell id="Sq-6enoDM2-bIMuyn35Z-290" value="&lt;font color=&quot;#ff0000&quot;&gt;a[10]&lt;/font&gt;" style="text;html=1;strokeColor=none;fillColor=none;align=center;verticalAlign=middle;whiteSpace=wrap;rounded=0;" vertex="1" parent="1">
          <mxGeometry x="50" y="1194" width="30" height="10" as="geometry" />
        </mxCell>
        <mxCell id="Sq-6enoDM2-bIMuyn35Z-291" value="&lt;font color=&quot;#ff0000&quot;&gt;b[10]&lt;/font&gt;" style="text;html=1;strokeColor=none;fillColor=none;align=center;verticalAlign=middle;whiteSpace=wrap;rounded=0;" vertex="1" parent="1">
          <mxGeometry x="50" y="1215" width="30" height="10" as="geometry" />
        </mxCell>
        <mxCell id="Sq-6enoDM2-bIMuyn35Z-292" value="&lt;font color=&quot;#ff0000&quot;&gt;out[10]&lt;/font&gt;" style="text;html=1;strokeColor=none;fillColor=none;align=center;verticalAlign=middle;whiteSpace=wrap;rounded=0;" vertex="1" parent="1">
          <mxGeometry x="230" y="1194" width="40" height="10" as="geometry" />
        </mxCell>
        <mxCell id="Sq-6enoDM2-bIMuyn35Z-293" value="w11" style="rounded=0;whiteSpace=wrap;html=1;" vertex="1" parent="1">
          <mxGeometry x="230" y="1235" width="30" height="10" as="geometry" />
        </mxCell>
        <mxCell id="Sq-6enoDM2-bIMuyn35Z-294" value="" style="endArrow=none;html=1;rounded=0;entryX=1;entryY=0.5;entryDx=0;entryDy=0;" edge="1" parent="1" target="Sq-6enoDM2-bIMuyn35Z-293">
          <mxGeometry width="50" height="50" relative="1" as="geometry">
            <mxPoint x="80" y="1350" as="sourcePoint" />
            <mxPoint x="270" y="1230" as="targetPoint" />
            <Array as="points">
              <mxPoint x="50" y="1350" />
              <mxPoint x="50" y="1280" />
              <mxPoint x="280" y="1280" />
              <mxPoint x="280" y="1240" />
            </Array>
          </mxGeometry>
        </mxCell>
        <mxCell id="Sq-6enoDM2-bIMuyn35Z-295" value="" style="group" vertex="1" connectable="0" parent="1">
          <mxGeometry x="80" y="1290" width="150" height="80" as="geometry" />
        </mxCell>
        <mxCell id="Sq-6enoDM2-bIMuyn35Z-296" value="" style="group" vertex="1" connectable="0" parent="Sq-6enoDM2-bIMuyn35Z-295">
          <mxGeometry width="150" height="80" as="geometry" />
        </mxCell>
        <mxCell id="Sq-6enoDM2-bIMuyn35Z-297" value="Full&lt;br&gt;Adder" style="rounded=0;whiteSpace=wrap;html=1;" vertex="1" parent="Sq-6enoDM2-bIMuyn35Z-296">
          <mxGeometry x="40" width="70" height="80" as="geometry" />
        </mxCell>
        <mxCell id="Sq-6enoDM2-bIMuyn35Z-298" value="" style="endArrow=none;html=1;rounded=0;entryX=0;entryY=0.25;entryDx=0;entryDy=0;" edge="1" parent="Sq-6enoDM2-bIMuyn35Z-296" target="Sq-6enoDM2-bIMuyn35Z-297">
          <mxGeometry width="50" height="50" relative="1" as="geometry">
            <mxPoint y="20" as="sourcePoint" />
            <mxPoint x="30" y="20" as="targetPoint" />
          </mxGeometry>
        </mxCell>
        <mxCell id="Sq-6enoDM2-bIMuyn35Z-299" value="" style="endArrow=none;html=1;rounded=0;entryX=0;entryY=0.5;entryDx=0;entryDy=0;" edge="1" parent="Sq-6enoDM2-bIMuyn35Z-296" target="Sq-6enoDM2-bIMuyn35Z-297">
          <mxGeometry width="50" height="50" relative="1" as="geometry">
            <mxPoint y="40" as="sourcePoint" />
            <mxPoint x="30" y="40" as="targetPoint" />
          </mxGeometry>
        </mxCell>
        <mxCell id="Sq-6enoDM2-bIMuyn35Z-300" value="a" style="text;html=1;strokeColor=none;fillColor=none;align=center;verticalAlign=middle;whiteSpace=wrap;rounded=0;" vertex="1" parent="Sq-6enoDM2-bIMuyn35Z-296">
          <mxGeometry x="10" y="7" width="30" height="10" as="geometry" />
        </mxCell>
        <mxCell id="Sq-6enoDM2-bIMuyn35Z-301" value="b" style="text;html=1;strokeColor=none;fillColor=none;align=center;verticalAlign=middle;whiteSpace=wrap;rounded=0;" vertex="1" parent="Sq-6enoDM2-bIMuyn35Z-296">
          <mxGeometry x="10" y="29" width="30" height="10" as="geometry" />
        </mxCell>
        <mxCell id="Sq-6enoDM2-bIMuyn35Z-302" value="" style="endArrow=none;html=1;rounded=0;entryX=-0.005;entryY=0.319;entryDx=0;entryDy=0;entryPerimeter=0;" edge="1" parent="Sq-6enoDM2-bIMuyn35Z-296">
          <mxGeometry width="50" height="50" relative="1" as="geometry">
            <mxPoint x="110" y="19" as="sourcePoint" />
            <mxPoint x="150" y="19" as="targetPoint" />
          </mxGeometry>
        </mxCell>
        <mxCell id="Sq-6enoDM2-bIMuyn35Z-303" value="" style="endArrow=none;html=1;rounded=0;entryX=0;entryY=0.663;entryDx=0;entryDy=0;entryPerimeter=0;" edge="1" parent="Sq-6enoDM2-bIMuyn35Z-296">
          <mxGeometry width="50" height="50" relative="1" as="geometry">
            <mxPoint x="110" y="60" as="sourcePoint" />
            <mxPoint x="150" y="60" as="targetPoint" />
          </mxGeometry>
        </mxCell>
        <mxCell id="Sq-6enoDM2-bIMuyn35Z-304" value="sum" style="text;html=1;strokeColor=none;fillColor=none;align=center;verticalAlign=middle;whiteSpace=wrap;rounded=0;" vertex="1" parent="Sq-6enoDM2-bIMuyn35Z-296">
          <mxGeometry x="120" y="7" width="30" height="10" as="geometry" />
        </mxCell>
        <mxCell id="Sq-6enoDM2-bIMuyn35Z-305" value="carry" style="text;html=1;strokeColor=none;fillColor=none;align=center;verticalAlign=middle;whiteSpace=wrap;rounded=0;" vertex="1" parent="Sq-6enoDM2-bIMuyn35Z-296">
          <mxGeometry x="120" y="49" width="30" height="10" as="geometry" />
        </mxCell>
        <mxCell id="Sq-6enoDM2-bIMuyn35Z-306" value="c" style="text;html=1;strokeColor=none;fillColor=none;align=center;verticalAlign=middle;whiteSpace=wrap;rounded=0;" vertex="1" parent="Sq-6enoDM2-bIMuyn35Z-296">
          <mxGeometry x="10" y="49" width="30" height="10" as="geometry" />
        </mxCell>
        <mxCell id="Sq-6enoDM2-bIMuyn35Z-307" value="" style="endArrow=none;html=1;rounded=0;entryX=0;entryY=0.75;entryDx=0;entryDy=0;" edge="1" parent="Sq-6enoDM2-bIMuyn35Z-295" target="Sq-6enoDM2-bIMuyn35Z-297">
          <mxGeometry width="50" height="50" relative="1" as="geometry">
            <mxPoint y="60" as="sourcePoint" />
            <mxPoint x="50" y="50" as="targetPoint" />
          </mxGeometry>
        </mxCell>
        <mxCell id="Sq-6enoDM2-bIMuyn35Z-308" value="&lt;font color=&quot;#ff0000&quot;&gt;a[11]&lt;/font&gt;" style="text;html=1;strokeColor=none;fillColor=none;align=center;verticalAlign=middle;whiteSpace=wrap;rounded=0;" vertex="1" parent="1">
          <mxGeometry x="50" y="1304" width="30" height="10" as="geometry" />
        </mxCell>
        <mxCell id="Sq-6enoDM2-bIMuyn35Z-309" value="&lt;font color=&quot;#ff0000&quot;&gt;b[11]&lt;/font&gt;" style="text;html=1;strokeColor=none;fillColor=none;align=center;verticalAlign=middle;whiteSpace=wrap;rounded=0;" vertex="1" parent="1">
          <mxGeometry x="50" y="1325" width="30" height="10" as="geometry" />
        </mxCell>
        <mxCell id="Sq-6enoDM2-bIMuyn35Z-310" value="&lt;font color=&quot;#ff0000&quot;&gt;out[11]&lt;/font&gt;" style="text;html=1;strokeColor=none;fillColor=none;align=center;verticalAlign=middle;whiteSpace=wrap;rounded=0;" vertex="1" parent="1">
          <mxGeometry x="230" y="1304" width="40" height="10" as="geometry" />
        </mxCell>
        <mxCell id="Sq-6enoDM2-bIMuyn35Z-311" value="w12" style="rounded=0;whiteSpace=wrap;html=1;" vertex="1" parent="1">
          <mxGeometry x="230" y="1345" width="30" height="10" as="geometry" />
        </mxCell>
        <mxCell id="Sq-6enoDM2-bIMuyn35Z-312" value="" style="endArrow=none;html=1;rounded=0;entryX=1;entryY=0.5;entryDx=0;entryDy=0;" edge="1" parent="1" target="Sq-6enoDM2-bIMuyn35Z-311">
          <mxGeometry width="50" height="50" relative="1" as="geometry">
            <mxPoint x="80" y="1460" as="sourcePoint" />
            <mxPoint x="270" y="1340" as="targetPoint" />
            <Array as="points">
              <mxPoint x="50" y="1460" />
              <mxPoint x="50" y="1390" />
              <mxPoint x="280" y="1390" />
              <mxPoint x="280" y="1350" />
            </Array>
          </mxGeometry>
        </mxCell>
        <mxCell id="Sq-6enoDM2-bIMuyn35Z-313" value="" style="group" vertex="1" connectable="0" parent="1">
          <mxGeometry x="80" y="1400" width="150" height="80" as="geometry" />
        </mxCell>
        <mxCell id="Sq-6enoDM2-bIMuyn35Z-314" value="" style="group" vertex="1" connectable="0" parent="Sq-6enoDM2-bIMuyn35Z-313">
          <mxGeometry width="150" height="80" as="geometry" />
        </mxCell>
        <mxCell id="Sq-6enoDM2-bIMuyn35Z-315" value="Full&lt;br&gt;Adder" style="rounded=0;whiteSpace=wrap;html=1;" vertex="1" parent="Sq-6enoDM2-bIMuyn35Z-314">
          <mxGeometry x="40" width="70" height="80" as="geometry" />
        </mxCell>
        <mxCell id="Sq-6enoDM2-bIMuyn35Z-316" value="" style="endArrow=none;html=1;rounded=0;entryX=0;entryY=0.25;entryDx=0;entryDy=0;" edge="1" parent="Sq-6enoDM2-bIMuyn35Z-314" target="Sq-6enoDM2-bIMuyn35Z-315">
          <mxGeometry width="50" height="50" relative="1" as="geometry">
            <mxPoint y="20" as="sourcePoint" />
            <mxPoint x="30" y="20" as="targetPoint" />
          </mxGeometry>
        </mxCell>
        <mxCell id="Sq-6enoDM2-bIMuyn35Z-317" value="" style="endArrow=none;html=1;rounded=0;entryX=0;entryY=0.5;entryDx=0;entryDy=0;" edge="1" parent="Sq-6enoDM2-bIMuyn35Z-314" target="Sq-6enoDM2-bIMuyn35Z-315">
          <mxGeometry width="50" height="50" relative="1" as="geometry">
            <mxPoint y="40" as="sourcePoint" />
            <mxPoint x="30" y="40" as="targetPoint" />
          </mxGeometry>
        </mxCell>
        <mxCell id="Sq-6enoDM2-bIMuyn35Z-318" value="a" style="text;html=1;strokeColor=none;fillColor=none;align=center;verticalAlign=middle;whiteSpace=wrap;rounded=0;" vertex="1" parent="Sq-6enoDM2-bIMuyn35Z-314">
          <mxGeometry x="10" y="7" width="30" height="10" as="geometry" />
        </mxCell>
        <mxCell id="Sq-6enoDM2-bIMuyn35Z-319" value="b" style="text;html=1;strokeColor=none;fillColor=none;align=center;verticalAlign=middle;whiteSpace=wrap;rounded=0;" vertex="1" parent="Sq-6enoDM2-bIMuyn35Z-314">
          <mxGeometry x="10" y="29" width="30" height="10" as="geometry" />
        </mxCell>
        <mxCell id="Sq-6enoDM2-bIMuyn35Z-320" value="" style="endArrow=none;html=1;rounded=0;entryX=-0.005;entryY=0.319;entryDx=0;entryDy=0;entryPerimeter=0;" edge="1" parent="Sq-6enoDM2-bIMuyn35Z-314">
          <mxGeometry width="50" height="50" relative="1" as="geometry">
            <mxPoint x="110" y="19" as="sourcePoint" />
            <mxPoint x="150" y="19" as="targetPoint" />
          </mxGeometry>
        </mxCell>
        <mxCell id="Sq-6enoDM2-bIMuyn35Z-321" value="" style="endArrow=none;html=1;rounded=0;entryX=0;entryY=0.663;entryDx=0;entryDy=0;entryPerimeter=0;" edge="1" parent="Sq-6enoDM2-bIMuyn35Z-314">
          <mxGeometry width="50" height="50" relative="1" as="geometry">
            <mxPoint x="110" y="60" as="sourcePoint" />
            <mxPoint x="150" y="60" as="targetPoint" />
          </mxGeometry>
        </mxCell>
        <mxCell id="Sq-6enoDM2-bIMuyn35Z-322" value="sum" style="text;html=1;strokeColor=none;fillColor=none;align=center;verticalAlign=middle;whiteSpace=wrap;rounded=0;" vertex="1" parent="Sq-6enoDM2-bIMuyn35Z-314">
          <mxGeometry x="120" y="7" width="30" height="10" as="geometry" />
        </mxCell>
        <mxCell id="Sq-6enoDM2-bIMuyn35Z-323" value="carry" style="text;html=1;strokeColor=none;fillColor=none;align=center;verticalAlign=middle;whiteSpace=wrap;rounded=0;" vertex="1" parent="Sq-6enoDM2-bIMuyn35Z-314">
          <mxGeometry x="120" y="49" width="30" height="10" as="geometry" />
        </mxCell>
        <mxCell id="Sq-6enoDM2-bIMuyn35Z-324" value="c" style="text;html=1;strokeColor=none;fillColor=none;align=center;verticalAlign=middle;whiteSpace=wrap;rounded=0;" vertex="1" parent="Sq-6enoDM2-bIMuyn35Z-314">
          <mxGeometry x="10" y="49" width="30" height="10" as="geometry" />
        </mxCell>
        <mxCell id="Sq-6enoDM2-bIMuyn35Z-325" value="" style="endArrow=none;html=1;rounded=0;entryX=0;entryY=0.75;entryDx=0;entryDy=0;" edge="1" parent="Sq-6enoDM2-bIMuyn35Z-313" target="Sq-6enoDM2-bIMuyn35Z-315">
          <mxGeometry width="50" height="50" relative="1" as="geometry">
            <mxPoint y="60" as="sourcePoint" />
            <mxPoint x="50" y="50" as="targetPoint" />
          </mxGeometry>
        </mxCell>
        <mxCell id="Sq-6enoDM2-bIMuyn35Z-326" value="&lt;font color=&quot;#ff0000&quot;&gt;a[12]&lt;/font&gt;" style="text;html=1;strokeColor=none;fillColor=none;align=center;verticalAlign=middle;whiteSpace=wrap;rounded=0;" vertex="1" parent="1">
          <mxGeometry x="50" y="1414" width="30" height="10" as="geometry" />
        </mxCell>
        <mxCell id="Sq-6enoDM2-bIMuyn35Z-327" value="&lt;font color=&quot;#ff0000&quot;&gt;b[12]&lt;/font&gt;" style="text;html=1;strokeColor=none;fillColor=none;align=center;verticalAlign=middle;whiteSpace=wrap;rounded=0;" vertex="1" parent="1">
          <mxGeometry x="50" y="1435" width="30" height="10" as="geometry" />
        </mxCell>
        <mxCell id="Sq-6enoDM2-bIMuyn35Z-328" value="&lt;font color=&quot;#ff0000&quot;&gt;out[12]&lt;/font&gt;" style="text;html=1;strokeColor=none;fillColor=none;align=center;verticalAlign=middle;whiteSpace=wrap;rounded=0;" vertex="1" parent="1">
          <mxGeometry x="230" y="1414" width="40" height="10" as="geometry" />
        </mxCell>
        <mxCell id="Sq-6enoDM2-bIMuyn35Z-329" value="w13" style="rounded=0;whiteSpace=wrap;html=1;" vertex="1" parent="1">
          <mxGeometry x="230" y="1455" width="30" height="10" as="geometry" />
        </mxCell>
        <mxCell id="Sq-6enoDM2-bIMuyn35Z-330" value="" style="endArrow=none;html=1;rounded=0;entryX=1;entryY=0.5;entryDx=0;entryDy=0;" edge="1" parent="1" target="Sq-6enoDM2-bIMuyn35Z-329">
          <mxGeometry width="50" height="50" relative="1" as="geometry">
            <mxPoint x="80" y="1570" as="sourcePoint" />
            <mxPoint x="270" y="1450" as="targetPoint" />
            <Array as="points">
              <mxPoint x="50" y="1570" />
              <mxPoint x="50" y="1500" />
              <mxPoint x="280" y="1500" />
              <mxPoint x="280" y="1460" />
            </Array>
          </mxGeometry>
        </mxCell>
        <mxCell id="Sq-6enoDM2-bIMuyn35Z-331" value="" style="group" vertex="1" connectable="0" parent="1">
          <mxGeometry x="80" y="1510" width="150" height="80" as="geometry" />
        </mxCell>
        <mxCell id="Sq-6enoDM2-bIMuyn35Z-332" value="" style="group" vertex="1" connectable="0" parent="Sq-6enoDM2-bIMuyn35Z-331">
          <mxGeometry width="150" height="80" as="geometry" />
        </mxCell>
        <mxCell id="Sq-6enoDM2-bIMuyn35Z-333" value="Full&lt;br&gt;Adder" style="rounded=0;whiteSpace=wrap;html=1;" vertex="1" parent="Sq-6enoDM2-bIMuyn35Z-332">
          <mxGeometry x="40" width="70" height="80" as="geometry" />
        </mxCell>
        <mxCell id="Sq-6enoDM2-bIMuyn35Z-334" value="" style="endArrow=none;html=1;rounded=0;entryX=0;entryY=0.25;entryDx=0;entryDy=0;" edge="1" parent="Sq-6enoDM2-bIMuyn35Z-332" target="Sq-6enoDM2-bIMuyn35Z-333">
          <mxGeometry width="50" height="50" relative="1" as="geometry">
            <mxPoint y="20" as="sourcePoint" />
            <mxPoint x="30" y="20" as="targetPoint" />
          </mxGeometry>
        </mxCell>
        <mxCell id="Sq-6enoDM2-bIMuyn35Z-335" value="" style="endArrow=none;html=1;rounded=0;entryX=0;entryY=0.5;entryDx=0;entryDy=0;" edge="1" parent="Sq-6enoDM2-bIMuyn35Z-332" target="Sq-6enoDM2-bIMuyn35Z-333">
          <mxGeometry width="50" height="50" relative="1" as="geometry">
            <mxPoint y="40" as="sourcePoint" />
            <mxPoint x="30" y="40" as="targetPoint" />
          </mxGeometry>
        </mxCell>
        <mxCell id="Sq-6enoDM2-bIMuyn35Z-336" value="a" style="text;html=1;strokeColor=none;fillColor=none;align=center;verticalAlign=middle;whiteSpace=wrap;rounded=0;" vertex="1" parent="Sq-6enoDM2-bIMuyn35Z-332">
          <mxGeometry x="10" y="7" width="30" height="10" as="geometry" />
        </mxCell>
        <mxCell id="Sq-6enoDM2-bIMuyn35Z-337" value="b" style="text;html=1;strokeColor=none;fillColor=none;align=center;verticalAlign=middle;whiteSpace=wrap;rounded=0;" vertex="1" parent="Sq-6enoDM2-bIMuyn35Z-332">
          <mxGeometry x="10" y="29" width="30" height="10" as="geometry" />
        </mxCell>
        <mxCell id="Sq-6enoDM2-bIMuyn35Z-338" value="" style="endArrow=none;html=1;rounded=0;entryX=-0.005;entryY=0.319;entryDx=0;entryDy=0;entryPerimeter=0;" edge="1" parent="Sq-6enoDM2-bIMuyn35Z-332">
          <mxGeometry width="50" height="50" relative="1" as="geometry">
            <mxPoint x="110" y="19" as="sourcePoint" />
            <mxPoint x="150" y="19" as="targetPoint" />
          </mxGeometry>
        </mxCell>
        <mxCell id="Sq-6enoDM2-bIMuyn35Z-339" value="" style="endArrow=none;html=1;rounded=0;entryX=0;entryY=0.663;entryDx=0;entryDy=0;entryPerimeter=0;" edge="1" parent="Sq-6enoDM2-bIMuyn35Z-332">
          <mxGeometry width="50" height="50" relative="1" as="geometry">
            <mxPoint x="110" y="60" as="sourcePoint" />
            <mxPoint x="150" y="60" as="targetPoint" />
          </mxGeometry>
        </mxCell>
        <mxCell id="Sq-6enoDM2-bIMuyn35Z-340" value="sum" style="text;html=1;strokeColor=none;fillColor=none;align=center;verticalAlign=middle;whiteSpace=wrap;rounded=0;" vertex="1" parent="Sq-6enoDM2-bIMuyn35Z-332">
          <mxGeometry x="120" y="7" width="30" height="10" as="geometry" />
        </mxCell>
        <mxCell id="Sq-6enoDM2-bIMuyn35Z-341" value="carry" style="text;html=1;strokeColor=none;fillColor=none;align=center;verticalAlign=middle;whiteSpace=wrap;rounded=0;" vertex="1" parent="Sq-6enoDM2-bIMuyn35Z-332">
          <mxGeometry x="120" y="49" width="30" height="10" as="geometry" />
        </mxCell>
        <mxCell id="Sq-6enoDM2-bIMuyn35Z-342" value="c" style="text;html=1;strokeColor=none;fillColor=none;align=center;verticalAlign=middle;whiteSpace=wrap;rounded=0;" vertex="1" parent="Sq-6enoDM2-bIMuyn35Z-332">
          <mxGeometry x="10" y="49" width="30" height="10" as="geometry" />
        </mxCell>
        <mxCell id="Sq-6enoDM2-bIMuyn35Z-343" value="" style="endArrow=none;html=1;rounded=0;entryX=0;entryY=0.75;entryDx=0;entryDy=0;" edge="1" parent="Sq-6enoDM2-bIMuyn35Z-331" target="Sq-6enoDM2-bIMuyn35Z-333">
          <mxGeometry width="50" height="50" relative="1" as="geometry">
            <mxPoint y="60" as="sourcePoint" />
            <mxPoint x="50" y="50" as="targetPoint" />
          </mxGeometry>
        </mxCell>
        <mxCell id="Sq-6enoDM2-bIMuyn35Z-344" value="&lt;font color=&quot;#ff0000&quot;&gt;a[13]&lt;/font&gt;" style="text;html=1;strokeColor=none;fillColor=none;align=center;verticalAlign=middle;whiteSpace=wrap;rounded=0;" vertex="1" parent="1">
          <mxGeometry x="50" y="1524" width="30" height="10" as="geometry" />
        </mxCell>
        <mxCell id="Sq-6enoDM2-bIMuyn35Z-345" value="&lt;font color=&quot;#ff0000&quot;&gt;b[13]&lt;/font&gt;" style="text;html=1;strokeColor=none;fillColor=none;align=center;verticalAlign=middle;whiteSpace=wrap;rounded=0;" vertex="1" parent="1">
          <mxGeometry x="50" y="1545" width="30" height="10" as="geometry" />
        </mxCell>
        <mxCell id="Sq-6enoDM2-bIMuyn35Z-346" value="&lt;font color=&quot;#ff0000&quot;&gt;out[13]&lt;/font&gt;" style="text;html=1;strokeColor=none;fillColor=none;align=center;verticalAlign=middle;whiteSpace=wrap;rounded=0;" vertex="1" parent="1">
          <mxGeometry x="230" y="1524" width="40" height="10" as="geometry" />
        </mxCell>
        <mxCell id="Sq-6enoDM2-bIMuyn35Z-347" value="w14" style="rounded=0;whiteSpace=wrap;html=1;" vertex="1" parent="1">
          <mxGeometry x="230" y="1565" width="30" height="10" as="geometry" />
        </mxCell>
        <mxCell id="Sq-6enoDM2-bIMuyn35Z-348" value="" style="endArrow=none;html=1;rounded=0;entryX=1;entryY=0.5;entryDx=0;entryDy=0;" edge="1" parent="1" target="Sq-6enoDM2-bIMuyn35Z-347">
          <mxGeometry width="50" height="50" relative="1" as="geometry">
            <mxPoint x="80" y="1680" as="sourcePoint" />
            <mxPoint x="270" y="1560" as="targetPoint" />
            <Array as="points">
              <mxPoint x="50" y="1680" />
              <mxPoint x="50" y="1610" />
              <mxPoint x="280" y="1610" />
              <mxPoint x="280" y="1570" />
            </Array>
          </mxGeometry>
        </mxCell>
        <mxCell id="Sq-6enoDM2-bIMuyn35Z-349" value="" style="group" vertex="1" connectable="0" parent="1">
          <mxGeometry x="80" y="1620" width="150" height="80" as="geometry" />
        </mxCell>
        <mxCell id="Sq-6enoDM2-bIMuyn35Z-350" value="" style="group" vertex="1" connectable="0" parent="Sq-6enoDM2-bIMuyn35Z-349">
          <mxGeometry width="150" height="80" as="geometry" />
        </mxCell>
        <mxCell id="Sq-6enoDM2-bIMuyn35Z-351" value="Full&lt;br&gt;Adder" style="rounded=0;whiteSpace=wrap;html=1;" vertex="1" parent="Sq-6enoDM2-bIMuyn35Z-350">
          <mxGeometry x="40" width="70" height="80" as="geometry" />
        </mxCell>
        <mxCell id="Sq-6enoDM2-bIMuyn35Z-352" value="" style="endArrow=none;html=1;rounded=0;entryX=0;entryY=0.25;entryDx=0;entryDy=0;" edge="1" parent="Sq-6enoDM2-bIMuyn35Z-350" target="Sq-6enoDM2-bIMuyn35Z-351">
          <mxGeometry width="50" height="50" relative="1" as="geometry">
            <mxPoint y="20" as="sourcePoint" />
            <mxPoint x="30" y="20" as="targetPoint" />
          </mxGeometry>
        </mxCell>
        <mxCell id="Sq-6enoDM2-bIMuyn35Z-353" value="" style="endArrow=none;html=1;rounded=0;entryX=0;entryY=0.5;entryDx=0;entryDy=0;" edge="1" parent="Sq-6enoDM2-bIMuyn35Z-350" target="Sq-6enoDM2-bIMuyn35Z-351">
          <mxGeometry width="50" height="50" relative="1" as="geometry">
            <mxPoint y="40" as="sourcePoint" />
            <mxPoint x="30" y="40" as="targetPoint" />
          </mxGeometry>
        </mxCell>
        <mxCell id="Sq-6enoDM2-bIMuyn35Z-354" value="a" style="text;html=1;strokeColor=none;fillColor=none;align=center;verticalAlign=middle;whiteSpace=wrap;rounded=0;" vertex="1" parent="Sq-6enoDM2-bIMuyn35Z-350">
          <mxGeometry x="10" y="7" width="30" height="10" as="geometry" />
        </mxCell>
        <mxCell id="Sq-6enoDM2-bIMuyn35Z-355" value="b" style="text;html=1;strokeColor=none;fillColor=none;align=center;verticalAlign=middle;whiteSpace=wrap;rounded=0;" vertex="1" parent="Sq-6enoDM2-bIMuyn35Z-350">
          <mxGeometry x="10" y="29" width="30" height="10" as="geometry" />
        </mxCell>
        <mxCell id="Sq-6enoDM2-bIMuyn35Z-356" value="" style="endArrow=none;html=1;rounded=0;entryX=-0.005;entryY=0.319;entryDx=0;entryDy=0;entryPerimeter=0;" edge="1" parent="Sq-6enoDM2-bIMuyn35Z-350">
          <mxGeometry width="50" height="50" relative="1" as="geometry">
            <mxPoint x="110" y="19" as="sourcePoint" />
            <mxPoint x="150" y="19" as="targetPoint" />
          </mxGeometry>
        </mxCell>
        <mxCell id="Sq-6enoDM2-bIMuyn35Z-357" value="" style="endArrow=none;html=1;rounded=0;entryX=0;entryY=0.663;entryDx=0;entryDy=0;entryPerimeter=0;" edge="1" parent="Sq-6enoDM2-bIMuyn35Z-350">
          <mxGeometry width="50" height="50" relative="1" as="geometry">
            <mxPoint x="110" y="60" as="sourcePoint" />
            <mxPoint x="150" y="60" as="targetPoint" />
          </mxGeometry>
        </mxCell>
        <mxCell id="Sq-6enoDM2-bIMuyn35Z-358" value="sum" style="text;html=1;strokeColor=none;fillColor=none;align=center;verticalAlign=middle;whiteSpace=wrap;rounded=0;" vertex="1" parent="Sq-6enoDM2-bIMuyn35Z-350">
          <mxGeometry x="120" y="7" width="30" height="10" as="geometry" />
        </mxCell>
        <mxCell id="Sq-6enoDM2-bIMuyn35Z-359" value="carry" style="text;html=1;strokeColor=none;fillColor=none;align=center;verticalAlign=middle;whiteSpace=wrap;rounded=0;" vertex="1" parent="Sq-6enoDM2-bIMuyn35Z-350">
          <mxGeometry x="120" y="49" width="30" height="10" as="geometry" />
        </mxCell>
        <mxCell id="Sq-6enoDM2-bIMuyn35Z-360" value="c" style="text;html=1;strokeColor=none;fillColor=none;align=center;verticalAlign=middle;whiteSpace=wrap;rounded=0;" vertex="1" parent="Sq-6enoDM2-bIMuyn35Z-350">
          <mxGeometry x="10" y="49" width="30" height="10" as="geometry" />
        </mxCell>
        <mxCell id="Sq-6enoDM2-bIMuyn35Z-361" value="" style="endArrow=none;html=1;rounded=0;entryX=0;entryY=0.75;entryDx=0;entryDy=0;" edge="1" parent="Sq-6enoDM2-bIMuyn35Z-349" target="Sq-6enoDM2-bIMuyn35Z-351">
          <mxGeometry width="50" height="50" relative="1" as="geometry">
            <mxPoint y="60" as="sourcePoint" />
            <mxPoint x="50" y="50" as="targetPoint" />
          </mxGeometry>
        </mxCell>
        <mxCell id="Sq-6enoDM2-bIMuyn35Z-362" value="&lt;font color=&quot;#ff0000&quot;&gt;a[14]&lt;/font&gt;" style="text;html=1;strokeColor=none;fillColor=none;align=center;verticalAlign=middle;whiteSpace=wrap;rounded=0;" vertex="1" parent="1">
          <mxGeometry x="50" y="1634" width="30" height="10" as="geometry" />
        </mxCell>
        <mxCell id="Sq-6enoDM2-bIMuyn35Z-363" value="&lt;font color=&quot;#ff0000&quot;&gt;b[14]&lt;/font&gt;" style="text;html=1;strokeColor=none;fillColor=none;align=center;verticalAlign=middle;whiteSpace=wrap;rounded=0;" vertex="1" parent="1">
          <mxGeometry x="50" y="1655" width="30" height="10" as="geometry" />
        </mxCell>
        <mxCell id="Sq-6enoDM2-bIMuyn35Z-364" value="&lt;font color=&quot;#ff0000&quot;&gt;out[14]&lt;/font&gt;" style="text;html=1;strokeColor=none;fillColor=none;align=center;verticalAlign=middle;whiteSpace=wrap;rounded=0;" vertex="1" parent="1">
          <mxGeometry x="230" y="1634" width="40" height="10" as="geometry" />
        </mxCell>
        <mxCell id="Sq-6enoDM2-bIMuyn35Z-365" value="w15" style="rounded=0;whiteSpace=wrap;html=1;" vertex="1" parent="1">
          <mxGeometry x="230" y="1675" width="30" height="10" as="geometry" />
        </mxCell>
        <mxCell id="Sq-6enoDM2-bIMuyn35Z-366" value="" style="endArrow=none;html=1;rounded=0;entryX=1;entryY=0.5;entryDx=0;entryDy=0;" edge="1" parent="1" target="Sq-6enoDM2-bIMuyn35Z-365">
          <mxGeometry width="50" height="50" relative="1" as="geometry">
            <mxPoint x="80" y="1790" as="sourcePoint" />
            <mxPoint x="270" y="1670" as="targetPoint" />
            <Array as="points">
              <mxPoint x="50" y="1790" />
              <mxPoint x="50" y="1720" />
              <mxPoint x="280" y="1720" />
              <mxPoint x="280" y="1680" />
            </Array>
          </mxGeometry>
        </mxCell>
        <mxCell id="Sq-6enoDM2-bIMuyn35Z-367" value="" style="group" vertex="1" connectable="0" parent="1">
          <mxGeometry x="80" y="1730" width="150" height="80" as="geometry" />
        </mxCell>
        <mxCell id="Sq-6enoDM2-bIMuyn35Z-368" value="" style="group" vertex="1" connectable="0" parent="Sq-6enoDM2-bIMuyn35Z-367">
          <mxGeometry width="150" height="80" as="geometry" />
        </mxCell>
        <mxCell id="Sq-6enoDM2-bIMuyn35Z-369" value="Full&lt;br&gt;Adder" style="rounded=0;whiteSpace=wrap;html=1;" vertex="1" parent="Sq-6enoDM2-bIMuyn35Z-368">
          <mxGeometry x="40" width="70" height="80" as="geometry" />
        </mxCell>
        <mxCell id="Sq-6enoDM2-bIMuyn35Z-370" value="" style="endArrow=none;html=1;rounded=0;entryX=0;entryY=0.25;entryDx=0;entryDy=0;" edge="1" parent="Sq-6enoDM2-bIMuyn35Z-368" target="Sq-6enoDM2-bIMuyn35Z-369">
          <mxGeometry width="50" height="50" relative="1" as="geometry">
            <mxPoint y="20" as="sourcePoint" />
            <mxPoint x="30" y="20" as="targetPoint" />
          </mxGeometry>
        </mxCell>
        <mxCell id="Sq-6enoDM2-bIMuyn35Z-371" value="" style="endArrow=none;html=1;rounded=0;entryX=0;entryY=0.5;entryDx=0;entryDy=0;" edge="1" parent="Sq-6enoDM2-bIMuyn35Z-368" target="Sq-6enoDM2-bIMuyn35Z-369">
          <mxGeometry width="50" height="50" relative="1" as="geometry">
            <mxPoint y="40" as="sourcePoint" />
            <mxPoint x="30" y="40" as="targetPoint" />
          </mxGeometry>
        </mxCell>
        <mxCell id="Sq-6enoDM2-bIMuyn35Z-372" value="a" style="text;html=1;strokeColor=none;fillColor=none;align=center;verticalAlign=middle;whiteSpace=wrap;rounded=0;" vertex="1" parent="Sq-6enoDM2-bIMuyn35Z-368">
          <mxGeometry x="10" y="7" width="30" height="10" as="geometry" />
        </mxCell>
        <mxCell id="Sq-6enoDM2-bIMuyn35Z-373" value="b" style="text;html=1;strokeColor=none;fillColor=none;align=center;verticalAlign=middle;whiteSpace=wrap;rounded=0;" vertex="1" parent="Sq-6enoDM2-bIMuyn35Z-368">
          <mxGeometry x="10" y="29" width="30" height="10" as="geometry" />
        </mxCell>
        <mxCell id="Sq-6enoDM2-bIMuyn35Z-374" value="" style="endArrow=none;html=1;rounded=0;entryX=-0.005;entryY=0.319;entryDx=0;entryDy=0;entryPerimeter=0;" edge="1" parent="Sq-6enoDM2-bIMuyn35Z-368">
          <mxGeometry width="50" height="50" relative="1" as="geometry">
            <mxPoint x="110" y="19" as="sourcePoint" />
            <mxPoint x="150" y="19" as="targetPoint" />
          </mxGeometry>
        </mxCell>
        <mxCell id="Sq-6enoDM2-bIMuyn35Z-375" value="" style="endArrow=none;html=1;rounded=0;entryX=0;entryY=0.663;entryDx=0;entryDy=0;entryPerimeter=0;" edge="1" parent="Sq-6enoDM2-bIMuyn35Z-368">
          <mxGeometry width="50" height="50" relative="1" as="geometry">
            <mxPoint x="110" y="60" as="sourcePoint" />
            <mxPoint x="150" y="60" as="targetPoint" />
          </mxGeometry>
        </mxCell>
        <mxCell id="Sq-6enoDM2-bIMuyn35Z-376" value="sum" style="text;html=1;strokeColor=none;fillColor=none;align=center;verticalAlign=middle;whiteSpace=wrap;rounded=0;" vertex="1" parent="Sq-6enoDM2-bIMuyn35Z-368">
          <mxGeometry x="120" y="7" width="30" height="10" as="geometry" />
        </mxCell>
        <mxCell id="Sq-6enoDM2-bIMuyn35Z-377" value="carry" style="text;html=1;strokeColor=none;fillColor=none;align=center;verticalAlign=middle;whiteSpace=wrap;rounded=0;" vertex="1" parent="Sq-6enoDM2-bIMuyn35Z-368">
          <mxGeometry x="120" y="49" width="30" height="10" as="geometry" />
        </mxCell>
        <mxCell id="Sq-6enoDM2-bIMuyn35Z-378" value="c" style="text;html=1;strokeColor=none;fillColor=none;align=center;verticalAlign=middle;whiteSpace=wrap;rounded=0;" vertex="1" parent="Sq-6enoDM2-bIMuyn35Z-368">
          <mxGeometry x="10" y="49" width="30" height="10" as="geometry" />
        </mxCell>
        <mxCell id="Sq-6enoDM2-bIMuyn35Z-379" value="" style="endArrow=none;html=1;rounded=0;entryX=0;entryY=0.75;entryDx=0;entryDy=0;" edge="1" parent="Sq-6enoDM2-bIMuyn35Z-367" target="Sq-6enoDM2-bIMuyn35Z-369">
          <mxGeometry width="50" height="50" relative="1" as="geometry">
            <mxPoint y="60" as="sourcePoint" />
            <mxPoint x="50" y="50" as="targetPoint" />
          </mxGeometry>
        </mxCell>
        <mxCell id="Sq-6enoDM2-bIMuyn35Z-380" value="&lt;font color=&quot;#ff0000&quot;&gt;a[15]&lt;/font&gt;" style="text;html=1;strokeColor=none;fillColor=none;align=center;verticalAlign=middle;whiteSpace=wrap;rounded=0;" vertex="1" parent="1">
          <mxGeometry x="50" y="1744" width="30" height="10" as="geometry" />
        </mxCell>
        <mxCell id="Sq-6enoDM2-bIMuyn35Z-381" value="&lt;font color=&quot;#ff0000&quot;&gt;b[15]&lt;/font&gt;" style="text;html=1;strokeColor=none;fillColor=none;align=center;verticalAlign=middle;whiteSpace=wrap;rounded=0;" vertex="1" parent="1">
          <mxGeometry x="50" y="1765" width="30" height="10" as="geometry" />
        </mxCell>
        <mxCell id="Sq-6enoDM2-bIMuyn35Z-382" value="&lt;font color=&quot;#ff0000&quot;&gt;out[15]&lt;/font&gt;" style="text;html=1;strokeColor=none;fillColor=none;align=center;verticalAlign=middle;whiteSpace=wrap;rounded=0;" vertex="1" parent="1">
          <mxGeometry x="230" y="1744" width="40" height="10" as="geometry" />
        </mxCell>
        <mxCell id="Sq-6enoDM2-bIMuyn35Z-383" value="w16" style="rounded=0;whiteSpace=wrap;html=1;" vertex="1" parent="1">
          <mxGeometry x="230" y="1785" width="30" height="10" as="geometry" />
        </mxCell>
      </root>
    </mxGraphModel>
  </diagram>
  <diagram id="jseaQ6C7R111S9sHGt9T" name="Inc16">
    <mxGraphModel dx="796" dy="337" grid="1" gridSize="10" guides="1" tooltips="1" connect="1" arrows="1" fold="1" page="1" pageScale="1" pageWidth="827" pageHeight="1169" math="0" shadow="0">
      <root>
        <mxCell id="0" />
        <mxCell id="1" parent="0" />
        <mxCell id="u1NxLLdr4rIvM4Ff1Xs--1" value="" style="group" vertex="1" connectable="0" parent="1">
          <mxGeometry x="80" y="230" width="180" height="60" as="geometry" />
        </mxCell>
        <mxCell id="u1NxLLdr4rIvM4Ff1Xs--2" value="" style="group" vertex="1" connectable="0" parent="u1NxLLdr4rIvM4Ff1Xs--1">
          <mxGeometry width="180" height="60" as="geometry" />
        </mxCell>
        <mxCell id="u1NxLLdr4rIvM4Ff1Xs--3" value="Add16" style="rounded=0;whiteSpace=wrap;html=1;" vertex="1" parent="u1NxLLdr4rIvM4Ff1Xs--2">
          <mxGeometry x="40" width="70" height="60" as="geometry" />
        </mxCell>
        <mxCell id="u1NxLLdr4rIvM4Ff1Xs--4" value="" style="endArrow=none;html=1;rounded=0;entryX=-0.005;entryY=0.319;entryDx=0;entryDy=0;entryPerimeter=0;" edge="1" parent="u1NxLLdr4rIvM4Ff1Xs--2" target="u1NxLLdr4rIvM4Ff1Xs--3">
          <mxGeometry width="50" height="50" relative="1" as="geometry">
            <mxPoint y="19" as="sourcePoint" />
            <mxPoint x="30" y="20" as="targetPoint" />
          </mxGeometry>
        </mxCell>
        <mxCell id="u1NxLLdr4rIvM4Ff1Xs--5" value="" style="endArrow=none;html=1;rounded=0;entryX=0;entryY=0.663;entryDx=0;entryDy=0;entryPerimeter=0;" edge="1" parent="u1NxLLdr4rIvM4Ff1Xs--2" target="u1NxLLdr4rIvM4Ff1Xs--3">
          <mxGeometry width="50" height="50" relative="1" as="geometry">
            <mxPoint y="40" as="sourcePoint" />
            <mxPoint x="30" y="40" as="targetPoint" />
          </mxGeometry>
        </mxCell>
        <mxCell id="u1NxLLdr4rIvM4Ff1Xs--6" value="a[0..15]" style="text;html=1;strokeColor=none;fillColor=none;align=center;verticalAlign=middle;whiteSpace=wrap;rounded=0;" vertex="1" parent="u1NxLLdr4rIvM4Ff1Xs--2">
          <mxGeometry x="-10" y="2" width="49" height="10" as="geometry" />
        </mxCell>
        <mxCell id="u1NxLLdr4rIvM4Ff1Xs--7" value="b[0..15]" style="text;html=1;strokeColor=none;fillColor=none;align=center;verticalAlign=middle;whiteSpace=wrap;rounded=0;" vertex="1" parent="u1NxLLdr4rIvM4Ff1Xs--2">
          <mxGeometry x="-10" y="25" width="50" height="10" as="geometry" />
        </mxCell>
        <mxCell id="u1NxLLdr4rIvM4Ff1Xs--8" value="" style="endArrow=none;html=1;rounded=0;entryX=-0.005;entryY=0.319;entryDx=0;entryDy=0;entryPerimeter=0;" edge="1" parent="u1NxLLdr4rIvM4Ff1Xs--2">
          <mxGeometry width="50" height="50" relative="1" as="geometry">
            <mxPoint x="110" y="29" as="sourcePoint" />
            <mxPoint x="150" y="29" as="targetPoint" />
          </mxGeometry>
        </mxCell>
        <mxCell id="u1NxLLdr4rIvM4Ff1Xs--9" value="out[0..15]" style="text;html=1;strokeColor=none;fillColor=none;align=center;verticalAlign=middle;whiteSpace=wrap;rounded=0;" vertex="1" parent="u1NxLLdr4rIvM4Ff1Xs--2">
          <mxGeometry x="106" y="15" width="60" height="10" as="geometry" />
        </mxCell>
        <mxCell id="u1NxLLdr4rIvM4Ff1Xs--10" value="" style="endArrow=none;html=1;rounded=0;" edge="1" parent="u1NxLLdr4rIvM4Ff1Xs--2">
          <mxGeometry width="50" height="50" relative="1" as="geometry">
            <mxPoint x="10" y="45" as="sourcePoint" />
            <mxPoint x="20" y="35" as="targetPoint" />
          </mxGeometry>
        </mxCell>
        <mxCell id="OkCkHA6yyWeyh80QBNuk-3" value="&lt;font color=&quot;#ff0000&quot;&gt;out&lt;/font&gt;" style="text;html=1;strokeColor=none;fillColor=none;align=center;verticalAlign=middle;whiteSpace=wrap;rounded=0;" vertex="1" parent="u1NxLLdr4rIvM4Ff1Xs--2">
          <mxGeometry x="151" y="24" width="30" height="10" as="geometry" />
        </mxCell>
        <mxCell id="u1NxLLdr4rIvM4Ff1Xs--11" value="" style="endArrow=none;html=1;rounded=0;" edge="1" parent="u1NxLLdr4rIvM4Ff1Xs--1">
          <mxGeometry width="50" height="50" relative="1" as="geometry">
            <mxPoint x="10" y="24" as="sourcePoint" />
            <mxPoint x="20" y="14" as="targetPoint" />
          </mxGeometry>
        </mxCell>
        <mxCell id="OkCkHA6yyWeyh80QBNuk-1" value="&lt;font color=&quot;#ff0000&quot;&gt;in&lt;/font&gt;" style="text;html=1;strokeColor=none;fillColor=none;align=center;verticalAlign=middle;whiteSpace=wrap;rounded=0;" vertex="1" parent="1">
          <mxGeometry x="40" y="244" width="30" height="10" as="geometry" />
        </mxCell>
        <mxCell id="OkCkHA6yyWeyh80QBNuk-2" value="&lt;font color=&quot;#ff0000&quot;&gt;00..1&lt;/font&gt;" style="text;html=1;strokeColor=none;fillColor=none;align=center;verticalAlign=middle;whiteSpace=wrap;rounded=0;" vertex="1" parent="1">
          <mxGeometry x="40" y="264" width="30" height="10" as="geometry" />
        </mxCell>
      </root>
    </mxGraphModel>
  </diagram>
</mxfile>
